G75*
G70*
%OFA0B0*%
%FSLAX24Y24*%
%IPPOS*%
%LPD*%
%AMOC8*
5,1,8,0,0,1.08239X$1,22.5*
%
%ADD10C,0.1010*%
%ADD11R,0.0356X0.0178*%
%ADD12R,0.0178X0.0356*%
%ADD13C,0.0104*%
%ADD14R,0.0552X0.1537*%
%ADD15R,0.0434X0.0395*%
%ADD16R,0.0395X0.0552*%
%ADD17R,0.0434X0.0356*%
%ADD18R,0.0356X0.0434*%
%ADD19C,0.0112*%
%ADD20R,0.1064X0.1340*%
%ADD21R,0.1025X0.1025*%
%ADD22R,0.0118X0.0374*%
%ADD23R,0.0848X0.1045*%
%ADD24R,0.1340X0.0789*%
%ADD25C,0.0680*%
%ADD26R,0.0592X0.0710*%
%ADD27R,0.0867X0.0710*%
%ADD28R,0.0277X0.0356*%
%ADD29R,0.0592X0.0671*%
%ADD30R,0.1064X0.0946*%
%ADD31R,0.0277X0.0867*%
%ADD32C,0.0434*%
%ADD33R,0.0671X0.0592*%
%ADD34OC8,0.0730*%
%ADD35OC8,0.0671*%
%ADD36R,0.0395X0.0395*%
%ADD37C,0.0350*%
%ADD38C,0.0420*%
D10*
X002020Y001870D03*
X019520Y001870D03*
X019520Y019370D03*
X002020Y019370D03*
D11*
X009772Y009362D03*
X009772Y009166D03*
X009772Y008969D03*
X009772Y008772D03*
X009772Y008575D03*
X009772Y008378D03*
X011268Y008378D03*
X011268Y008575D03*
X011268Y008772D03*
X011268Y008969D03*
X011268Y009166D03*
X011268Y009362D03*
X015825Y010075D03*
X015825Y010272D03*
X015825Y010469D03*
X015825Y010666D03*
X017715Y010666D03*
X017715Y010469D03*
X017715Y010272D03*
X017715Y010075D03*
D12*
X017262Y009622D03*
X017065Y009622D03*
X016868Y009622D03*
X016672Y009622D03*
X016475Y009622D03*
X016278Y009622D03*
X016278Y011118D03*
X016475Y011118D03*
X016672Y011118D03*
X016868Y011118D03*
X017065Y011118D03*
X017262Y011118D03*
X011012Y009618D03*
X010815Y009618D03*
X010618Y009618D03*
X010422Y009618D03*
X010225Y009618D03*
X010028Y009618D03*
X010028Y008122D03*
X010225Y008122D03*
X010422Y008122D03*
X010618Y008122D03*
X010815Y008122D03*
X011012Y008122D03*
D13*
X010990Y008400D02*
X010990Y009340D01*
X010990Y008400D02*
X010050Y008400D01*
X010050Y009340D01*
X010990Y009340D01*
X010990Y008503D02*
X010050Y008503D01*
X010050Y008606D02*
X010990Y008606D01*
X010990Y008709D02*
X010050Y008709D01*
X010050Y008812D02*
X010990Y008812D01*
X010990Y008915D02*
X010050Y008915D01*
X010050Y009018D02*
X010990Y009018D01*
X010990Y009121D02*
X010050Y009121D01*
X010050Y009224D02*
X010990Y009224D01*
X010990Y009327D02*
X010050Y009327D01*
D14*
X009969Y011870D03*
X011071Y011870D03*
X010821Y005620D03*
X009719Y005620D03*
D15*
X008376Y007621D03*
X008376Y008369D03*
X009203Y007995D03*
D16*
X009166Y007120D03*
X009874Y007120D03*
X010416Y007120D03*
X011124Y007120D03*
X010124Y010370D03*
X009416Y010370D03*
D17*
X011895Y008001D03*
X012395Y008001D03*
X012895Y008001D03*
X012895Y007489D03*
X012395Y007489D03*
X011895Y007489D03*
X014770Y010927D03*
X014770Y011439D03*
X014270Y011552D03*
X013770Y011552D03*
X013770Y012064D03*
X014270Y012064D03*
X014770Y012177D03*
X015270Y012064D03*
X015770Y012064D03*
X015770Y011552D03*
X015270Y011552D03*
X014770Y012689D03*
X016458Y015302D03*
X016458Y015814D03*
X019020Y010751D03*
X019020Y010239D03*
X019020Y009376D03*
X019020Y008864D03*
X020020Y008864D03*
X020020Y009376D03*
X020020Y010239D03*
X020020Y010751D03*
X013520Y002189D03*
X013520Y001677D03*
X003645Y010364D03*
X003145Y010189D03*
X003145Y009677D03*
X003645Y010876D03*
X003145Y011052D03*
X003145Y011564D03*
X005520Y013552D03*
X005520Y014064D03*
X006145Y014064D03*
X006145Y013552D03*
D18*
X004276Y011620D03*
X003764Y011620D03*
X003764Y009620D03*
X004276Y009620D03*
X003776Y008620D03*
X003264Y008620D03*
X003264Y007870D03*
X003776Y007870D03*
X004514Y007870D03*
X005026Y007870D03*
X005026Y007120D03*
X004514Y007120D03*
X003776Y007120D03*
X003264Y007120D03*
X008389Y008995D03*
X008901Y008995D03*
X010639Y010245D03*
X011151Y010245D03*
X012389Y010245D03*
X012389Y010745D03*
X012901Y010745D03*
X012901Y010245D03*
X012901Y009745D03*
X012901Y009245D03*
X012901Y008745D03*
X012389Y008745D03*
X012389Y009245D03*
X012389Y009745D03*
X012389Y011245D03*
X012389Y011745D03*
X012901Y011745D03*
X012901Y011245D03*
X011651Y016620D03*
X011139Y016620D03*
X010401Y016620D03*
X009889Y016620D03*
X004026Y016620D03*
X003514Y016620D03*
X003514Y015620D03*
X004026Y015620D03*
D19*
X016068Y009865D02*
X017472Y009865D01*
X016068Y009865D02*
X016068Y010875D01*
X017472Y010875D01*
X017472Y009865D01*
X017472Y009976D02*
X016068Y009976D01*
X016068Y010087D02*
X017472Y010087D01*
X017472Y010198D02*
X016068Y010198D01*
X016068Y010309D02*
X017472Y010309D01*
X017472Y010420D02*
X016068Y010420D01*
X016068Y010531D02*
X017472Y010531D01*
X017472Y010642D02*
X016068Y010642D01*
X016068Y010753D02*
X017472Y010753D01*
X017472Y010864D02*
X016068Y010864D01*
D20*
X014676Y006370D03*
X017864Y006370D03*
D21*
X017833Y012567D03*
X017833Y014299D03*
D22*
X005914Y012898D03*
X005756Y012898D03*
X005599Y012898D03*
X005441Y012898D03*
X005284Y012898D03*
X005126Y012898D03*
X005126Y011343D03*
X005284Y011343D03*
X005441Y011343D03*
X005599Y011343D03*
X005756Y011343D03*
X005914Y011343D03*
D23*
X005520Y012120D03*
D24*
X002020Y011723D03*
X002020Y009518D03*
D25*
X001720Y008120D02*
X002320Y008120D01*
X002320Y007120D02*
X001720Y007120D01*
X001720Y006120D02*
X002320Y006120D01*
D26*
X012643Y013174D03*
X013647Y013174D03*
D27*
X013145Y014316D03*
D28*
X017458Y015100D03*
X017833Y015100D03*
X018207Y015100D03*
X018207Y016016D03*
X017833Y016016D03*
X017458Y016016D03*
D29*
X016355Y016870D03*
X015685Y016870D03*
X015685Y014120D03*
X016355Y014120D03*
D30*
X012424Y003408D03*
X012424Y001321D03*
X009116Y001321D03*
X009116Y003408D03*
D31*
X010140Y003506D03*
X010455Y003506D03*
X010770Y003506D03*
X011085Y003506D03*
X011400Y003506D03*
D32*
X011459Y002620D03*
X010081Y002620D03*
D33*
X014770Y008911D03*
X014770Y009580D03*
D34*
X012270Y019370D03*
X011270Y019370D03*
X010270Y019370D03*
X009270Y019370D03*
D35*
X002520Y017620D03*
X002520Y016620D03*
X001520Y016620D03*
X001520Y017620D03*
X001520Y015620D03*
X002520Y015620D03*
X002520Y014620D03*
X001520Y014620D03*
X001520Y013620D03*
X002520Y013620D03*
X019020Y013620D03*
X020020Y013620D03*
X020020Y014620D03*
X019020Y014620D03*
X019020Y015620D03*
X020020Y015620D03*
X020020Y016620D03*
X019020Y016620D03*
X019020Y017620D03*
X020020Y017620D03*
X020020Y007620D03*
X019020Y007620D03*
X019020Y006620D03*
X019020Y005620D03*
X020020Y005620D03*
X020020Y006620D03*
X020020Y004620D03*
X019020Y004620D03*
X019020Y003620D03*
X020020Y003620D03*
D36*
X013520Y003416D03*
X013520Y002825D03*
X019020Y011575D03*
X019020Y012166D03*
X020020Y012166D03*
X020020Y011575D03*
X011815Y017120D03*
X011225Y017120D03*
X010315Y017120D03*
X009725Y017120D03*
X005315Y016620D03*
X004725Y016620D03*
X004725Y015620D03*
X005315Y015620D03*
D37*
X005833Y014120D03*
X005520Y013245D03*
X005520Y012120D03*
X004270Y011120D03*
X004020Y010870D03*
X004458Y010433D03*
X004270Y010120D03*
X004770Y010120D03*
X005520Y010370D03*
X005770Y010620D03*
X005520Y009370D03*
X004770Y008370D03*
X005520Y007870D03*
X005520Y007120D03*
X007020Y006370D03*
X007020Y005870D03*
X007520Y005870D03*
X007520Y006370D03*
X007770Y005370D03*
X008770Y006870D03*
X008770Y007245D03*
X008770Y007620D03*
X009520Y007620D03*
X010020Y007620D03*
X010145Y008495D03*
X010520Y008495D03*
X010895Y008495D03*
X010895Y008870D03*
X010520Y008870D03*
X010145Y008870D03*
X010145Y009245D03*
X010520Y009245D03*
X010895Y009245D03*
X011770Y008370D03*
X011270Y007620D03*
X011270Y006620D03*
X011770Y005620D03*
X010270Y006120D03*
X010270Y006620D03*
X009333Y008683D03*
X008083Y008995D03*
X007520Y008620D03*
X007020Y008120D03*
X007770Y010370D03*
X008020Y010620D03*
X009395Y010745D03*
X009395Y009995D03*
X010645Y010495D03*
X010895Y010808D03*
X011145Y010495D03*
X013520Y010370D03*
X013520Y009870D03*
X013520Y009370D03*
X013520Y008870D03*
X013520Y008370D03*
X013520Y007870D03*
X013520Y007370D03*
X013520Y006870D03*
X015958Y009370D03*
X016270Y008995D03*
X015270Y009620D03*
X014270Y009620D03*
X014270Y009995D03*
X016520Y011620D03*
X015270Y012683D03*
X014270Y012683D03*
X014270Y014120D03*
X017020Y014120D03*
X017020Y016120D03*
X010520Y012870D03*
X006770Y013120D03*
X002520Y012870D03*
X002520Y012370D03*
X002020Y012370D03*
X001520Y012370D03*
X001520Y012870D03*
X002020Y012870D03*
D38*
X005770Y015620D03*
X005770Y016620D03*
X010770Y016620D03*
X015020Y016620D03*
X015020Y017120D03*
X015520Y016245D03*
X015520Y015870D03*
X015520Y015495D03*
X015520Y015120D03*
X015520Y014745D03*
X015020Y014620D03*
X015020Y015120D03*
X015020Y015620D03*
X015020Y016120D03*
X019020Y012620D03*
X020020Y012620D03*
X017270Y010620D03*
X016770Y010620D03*
X016270Y010620D03*
X016270Y010120D03*
X016770Y010120D03*
X017270Y010120D03*
X015520Y007870D03*
X015520Y007370D03*
X015520Y006870D03*
X015020Y007370D03*
X014520Y007370D03*
X014520Y007870D03*
X015020Y007870D03*
X015520Y006370D03*
X015520Y005870D03*
X015520Y005370D03*
X015020Y005370D03*
X014520Y005370D03*
X011270Y004120D03*
X013520Y001120D03*
M02*
