G75*
G70*
%OFA0B0*%
%FSLAX24Y24*%
%IPPOS*%
%LPD*%
%AMOC8*
5,1,8,0,0,1.08239X$1,22.5*
%
%ADD10C,0.0000*%
D10*
X000770Y001620D02*
X000770Y019620D01*
X000772Y019680D01*
X000777Y019741D01*
X000786Y019800D01*
X000799Y019859D01*
X000815Y019918D01*
X000835Y019975D01*
X000858Y020030D01*
X000885Y020085D01*
X000914Y020137D01*
X000947Y020188D01*
X000983Y020237D01*
X001021Y020283D01*
X001063Y020327D01*
X001107Y020369D01*
X001153Y020407D01*
X001202Y020443D01*
X001253Y020476D01*
X001305Y020505D01*
X001360Y020532D01*
X001415Y020555D01*
X001472Y020575D01*
X001531Y020591D01*
X001590Y020604D01*
X001649Y020613D01*
X001710Y020618D01*
X001770Y020620D01*
X019770Y020620D01*
X019830Y020618D01*
X019891Y020613D01*
X019950Y020604D01*
X020009Y020591D01*
X020068Y020575D01*
X020125Y020555D01*
X020180Y020532D01*
X020235Y020505D01*
X020287Y020476D01*
X020338Y020443D01*
X020387Y020407D01*
X020433Y020369D01*
X020477Y020327D01*
X020519Y020283D01*
X020557Y020237D01*
X020593Y020188D01*
X020626Y020137D01*
X020655Y020085D01*
X020682Y020030D01*
X020705Y019975D01*
X020725Y019918D01*
X020741Y019859D01*
X020754Y019800D01*
X020763Y019741D01*
X020768Y019680D01*
X020770Y019620D01*
X020770Y001620D01*
X020768Y001560D01*
X020763Y001499D01*
X020754Y001440D01*
X020741Y001381D01*
X020725Y001322D01*
X020705Y001265D01*
X020682Y001210D01*
X020655Y001155D01*
X020626Y001103D01*
X020593Y001052D01*
X020557Y001003D01*
X020519Y000957D01*
X020477Y000913D01*
X020433Y000871D01*
X020387Y000833D01*
X020338Y000797D01*
X020287Y000764D01*
X020235Y000735D01*
X020180Y000708D01*
X020125Y000685D01*
X020068Y000665D01*
X020009Y000649D01*
X019950Y000636D01*
X019891Y000627D01*
X019830Y000622D01*
X019770Y000620D01*
X001770Y000620D01*
X001710Y000622D01*
X001649Y000627D01*
X001590Y000636D01*
X001531Y000649D01*
X001472Y000665D01*
X001415Y000685D01*
X001360Y000708D01*
X001305Y000735D01*
X001253Y000764D01*
X001202Y000797D01*
X001153Y000833D01*
X001107Y000871D01*
X001063Y000913D01*
X001021Y000957D01*
X000983Y001003D01*
X000947Y001052D01*
X000914Y001103D01*
X000885Y001155D01*
X000858Y001210D01*
X000835Y001265D01*
X000815Y001322D01*
X000799Y001381D01*
X000786Y001440D01*
X000777Y001499D01*
X000772Y001560D01*
X000770Y001620D01*
X001555Y001870D02*
X001557Y001913D01*
X001563Y001955D01*
X001573Y001997D01*
X001586Y002038D01*
X001604Y002077D01*
X001625Y002115D01*
X001649Y002150D01*
X001676Y002183D01*
X001707Y002214D01*
X001740Y002241D01*
X001775Y002265D01*
X001813Y002286D01*
X001852Y002304D01*
X001893Y002317D01*
X001935Y002327D01*
X001977Y002333D01*
X002020Y002335D01*
X002063Y002333D01*
X002105Y002327D01*
X002147Y002317D01*
X002188Y002304D01*
X002227Y002286D01*
X002265Y002265D01*
X002300Y002241D01*
X002333Y002214D01*
X002364Y002183D01*
X002391Y002150D01*
X002415Y002115D01*
X002436Y002077D01*
X002454Y002038D01*
X002467Y001997D01*
X002477Y001955D01*
X002483Y001913D01*
X002485Y001870D01*
X002483Y001827D01*
X002477Y001785D01*
X002467Y001743D01*
X002454Y001702D01*
X002436Y001663D01*
X002415Y001625D01*
X002391Y001590D01*
X002364Y001557D01*
X002333Y001526D01*
X002300Y001499D01*
X002265Y001475D01*
X002227Y001454D01*
X002188Y001436D01*
X002147Y001423D01*
X002105Y001413D01*
X002063Y001407D01*
X002020Y001405D01*
X001977Y001407D01*
X001935Y001413D01*
X001893Y001423D01*
X001852Y001436D01*
X001813Y001454D01*
X001775Y001475D01*
X001740Y001499D01*
X001707Y001526D01*
X001676Y001557D01*
X001649Y001590D01*
X001625Y001625D01*
X001604Y001663D01*
X001586Y001702D01*
X001573Y001743D01*
X001563Y001785D01*
X001557Y001827D01*
X001555Y001870D01*
X009904Y002620D02*
X009906Y002646D01*
X009912Y002672D01*
X009922Y002697D01*
X009935Y002720D01*
X009951Y002740D01*
X009971Y002758D01*
X009993Y002773D01*
X010016Y002785D01*
X010042Y002793D01*
X010068Y002797D01*
X010094Y002797D01*
X010120Y002793D01*
X010146Y002785D01*
X010170Y002773D01*
X010191Y002758D01*
X010211Y002740D01*
X010227Y002720D01*
X010240Y002697D01*
X010250Y002672D01*
X010256Y002646D01*
X010258Y002620D01*
X010256Y002594D01*
X010250Y002568D01*
X010240Y002543D01*
X010227Y002520D01*
X010211Y002500D01*
X010191Y002482D01*
X010169Y002467D01*
X010146Y002455D01*
X010120Y002447D01*
X010094Y002443D01*
X010068Y002443D01*
X010042Y002447D01*
X010016Y002455D01*
X009992Y002467D01*
X009971Y002482D01*
X009951Y002500D01*
X009935Y002520D01*
X009922Y002543D01*
X009912Y002568D01*
X009906Y002594D01*
X009904Y002620D01*
X011282Y002620D02*
X011284Y002646D01*
X011290Y002672D01*
X011300Y002697D01*
X011313Y002720D01*
X011329Y002740D01*
X011349Y002758D01*
X011371Y002773D01*
X011394Y002785D01*
X011420Y002793D01*
X011446Y002797D01*
X011472Y002797D01*
X011498Y002793D01*
X011524Y002785D01*
X011548Y002773D01*
X011569Y002758D01*
X011589Y002740D01*
X011605Y002720D01*
X011618Y002697D01*
X011628Y002672D01*
X011634Y002646D01*
X011636Y002620D01*
X011634Y002594D01*
X011628Y002568D01*
X011618Y002543D01*
X011605Y002520D01*
X011589Y002500D01*
X011569Y002482D01*
X011547Y002467D01*
X011524Y002455D01*
X011498Y002447D01*
X011472Y002443D01*
X011446Y002443D01*
X011420Y002447D01*
X011394Y002455D01*
X011370Y002467D01*
X011349Y002482D01*
X011329Y002500D01*
X011313Y002520D01*
X011300Y002543D01*
X011290Y002568D01*
X011284Y002594D01*
X011282Y002620D01*
X019055Y001870D02*
X019057Y001913D01*
X019063Y001955D01*
X019073Y001997D01*
X019086Y002038D01*
X019104Y002077D01*
X019125Y002115D01*
X019149Y002150D01*
X019176Y002183D01*
X019207Y002214D01*
X019240Y002241D01*
X019275Y002265D01*
X019313Y002286D01*
X019352Y002304D01*
X019393Y002317D01*
X019435Y002327D01*
X019477Y002333D01*
X019520Y002335D01*
X019563Y002333D01*
X019605Y002327D01*
X019647Y002317D01*
X019688Y002304D01*
X019727Y002286D01*
X019765Y002265D01*
X019800Y002241D01*
X019833Y002214D01*
X019864Y002183D01*
X019891Y002150D01*
X019915Y002115D01*
X019936Y002077D01*
X019954Y002038D01*
X019967Y001997D01*
X019977Y001955D01*
X019983Y001913D01*
X019985Y001870D01*
X019983Y001827D01*
X019977Y001785D01*
X019967Y001743D01*
X019954Y001702D01*
X019936Y001663D01*
X019915Y001625D01*
X019891Y001590D01*
X019864Y001557D01*
X019833Y001526D01*
X019800Y001499D01*
X019765Y001475D01*
X019727Y001454D01*
X019688Y001436D01*
X019647Y001423D01*
X019605Y001413D01*
X019563Y001407D01*
X019520Y001405D01*
X019477Y001407D01*
X019435Y001413D01*
X019393Y001423D01*
X019352Y001436D01*
X019313Y001454D01*
X019275Y001475D01*
X019240Y001499D01*
X019207Y001526D01*
X019176Y001557D01*
X019149Y001590D01*
X019125Y001625D01*
X019104Y001663D01*
X019086Y001702D01*
X019073Y001743D01*
X019063Y001785D01*
X019057Y001827D01*
X019055Y001870D01*
X019055Y019370D02*
X019057Y019413D01*
X019063Y019455D01*
X019073Y019497D01*
X019086Y019538D01*
X019104Y019577D01*
X019125Y019615D01*
X019149Y019650D01*
X019176Y019683D01*
X019207Y019714D01*
X019240Y019741D01*
X019275Y019765D01*
X019313Y019786D01*
X019352Y019804D01*
X019393Y019817D01*
X019435Y019827D01*
X019477Y019833D01*
X019520Y019835D01*
X019563Y019833D01*
X019605Y019827D01*
X019647Y019817D01*
X019688Y019804D01*
X019727Y019786D01*
X019765Y019765D01*
X019800Y019741D01*
X019833Y019714D01*
X019864Y019683D01*
X019891Y019650D01*
X019915Y019615D01*
X019936Y019577D01*
X019954Y019538D01*
X019967Y019497D01*
X019977Y019455D01*
X019983Y019413D01*
X019985Y019370D01*
X019983Y019327D01*
X019977Y019285D01*
X019967Y019243D01*
X019954Y019202D01*
X019936Y019163D01*
X019915Y019125D01*
X019891Y019090D01*
X019864Y019057D01*
X019833Y019026D01*
X019800Y018999D01*
X019765Y018975D01*
X019727Y018954D01*
X019688Y018936D01*
X019647Y018923D01*
X019605Y018913D01*
X019563Y018907D01*
X019520Y018905D01*
X019477Y018907D01*
X019435Y018913D01*
X019393Y018923D01*
X019352Y018936D01*
X019313Y018954D01*
X019275Y018975D01*
X019240Y018999D01*
X019207Y019026D01*
X019176Y019057D01*
X019149Y019090D01*
X019125Y019125D01*
X019104Y019163D01*
X019086Y019202D01*
X019073Y019243D01*
X019063Y019285D01*
X019057Y019327D01*
X019055Y019370D01*
X001555Y019370D02*
X001557Y019413D01*
X001563Y019455D01*
X001573Y019497D01*
X001586Y019538D01*
X001604Y019577D01*
X001625Y019615D01*
X001649Y019650D01*
X001676Y019683D01*
X001707Y019714D01*
X001740Y019741D01*
X001775Y019765D01*
X001813Y019786D01*
X001852Y019804D01*
X001893Y019817D01*
X001935Y019827D01*
X001977Y019833D01*
X002020Y019835D01*
X002063Y019833D01*
X002105Y019827D01*
X002147Y019817D01*
X002188Y019804D01*
X002227Y019786D01*
X002265Y019765D01*
X002300Y019741D01*
X002333Y019714D01*
X002364Y019683D01*
X002391Y019650D01*
X002415Y019615D01*
X002436Y019577D01*
X002454Y019538D01*
X002467Y019497D01*
X002477Y019455D01*
X002483Y019413D01*
X002485Y019370D01*
X002483Y019327D01*
X002477Y019285D01*
X002467Y019243D01*
X002454Y019202D01*
X002436Y019163D01*
X002415Y019125D01*
X002391Y019090D01*
X002364Y019057D01*
X002333Y019026D01*
X002300Y018999D01*
X002265Y018975D01*
X002227Y018954D01*
X002188Y018936D01*
X002147Y018923D01*
X002105Y018913D01*
X002063Y018907D01*
X002020Y018905D01*
X001977Y018907D01*
X001935Y018913D01*
X001893Y018923D01*
X001852Y018936D01*
X001813Y018954D01*
X001775Y018975D01*
X001740Y018999D01*
X001707Y019026D01*
X001676Y019057D01*
X001649Y019090D01*
X001625Y019125D01*
X001604Y019163D01*
X001586Y019202D01*
X001573Y019243D01*
X001563Y019285D01*
X001557Y019327D01*
X001555Y019370D01*
M02*
