%
M48
M72
T01C0.0130
T02C0.0200
T03C0.0354
T04C0.0394
T05C0.0400
T06C0.0433
T07C0.0930
%
T01
X7020Y5870
X7520Y5870
X7520Y6370
X7020Y6370
X7770Y5370
X8770Y6870
X8770Y7245
X8770Y7620
X9520Y7620
X10020Y7620
X10145Y8495
X10520Y8495
X10895Y8495
X10895Y8870
X10520Y8870
X10145Y8870
X10145Y9245
X10520Y9245
X10895Y9245
X11770Y8370
X11270Y7620
X11270Y6620
X11770Y5620
X10270Y6120
X10270Y6620
X9333Y8683
X8083Y8995
X7520Y8620
X7020Y8120
X5520Y7870
X5520Y7120
X4770Y8370
X5520Y9370
X4770Y10120
X4458Y10433
X4270Y10120
X4020Y10870
X4270Y11120
X5520Y10370
X5770Y10620
X5520Y12120
X5520Y13245
X5833Y14120
X6770Y13120
X8020Y10620
X7770Y10370
X9395Y9995
X9395Y10745
X10645Y10495
X10895Y10808
X11145Y10495
X13520Y10370
X13520Y9870
X13520Y9370
X13520Y8870
X13520Y8370
X13520Y7870
X13520Y7370
X13520Y6870
X15958Y9370
X16270Y8995
X15270Y9620
X14270Y9620
X14270Y9995
X16520Y11620
X15270Y12683
X14270Y12683
X14270Y14120
X17020Y14120
X17020Y16120
X10520Y12870
X2520Y12870
X2520Y12370
X2020Y12370
X1520Y12370
X1520Y12870
X2020Y12870
T02
X5770Y15620
X5770Y16620
X10770Y16620
X15020Y16620
X15020Y17120
X15520Y16245
X15520Y15870
X15520Y15495
X15520Y15120
X15520Y14745
X15020Y14620
X15020Y15120
X15020Y15620
X15020Y16120
X19020Y12620
X20020Y12620
X17270Y10620
X16770Y10620
X16270Y10620
X16270Y10120
X16770Y10120
X17270Y10120
X15520Y7870
X15520Y7370
X15520Y6870
X15020Y7370
X14520Y7370
X14520Y7870
X15020Y7870
X15520Y6370
X15520Y5870
X15520Y5370
X15020Y5370
X14520Y5370
X11270Y4120
X13520Y1120
T03
X11459Y2620
X10081Y2620
T04
X19020Y3620
X20020Y3620
X20020Y4620
X19020Y4620
X19020Y5620
X20020Y5620
X20020Y6620
X19020Y6620
X19020Y7620
X20020Y7620
X20020Y13620
X19020Y13620
X19020Y14620
X20020Y14620
X20020Y15620
X19020Y15620
X19020Y16620
X20020Y16620
X20020Y17620
X19020Y17620
X2520Y17620
X2520Y16620
X1520Y16620
X1520Y17620
X1520Y15620
X2520Y15620
X2520Y14620
X1520Y14620
X1520Y13620
X2520Y13620
T05
X2020Y8120
X2020Y7120
X2020Y6120
T06
X9270Y19370
X10270Y19370
X11270Y19370
X12270Y19370
T07
X2020Y1870
X19520Y1870
X19520Y19370
X2020Y19370
M30
