G75*
G70*
%OFA0B0*%
%FSLAX24Y24*%
%IPPOS*%
%LPD*%
%AMOC8*
5,1,8,0,0,1.08239X$1,22.5*
%
%ADD10C,0.1010*%
%ADD11C,0.0680*%
%ADD12R,0.0580X0.0330*%
%ADD13C,0.0434*%
%ADD14OC8,0.0730*%
%ADD15OC8,0.0671*%
%ADD16C,0.0350*%
%ADD17C,0.0420*%
D10*
X002020Y001870D03*
X019520Y001870D03*
X019520Y019370D03*
X002020Y019370D03*
D11*
X001720Y008120D02*
X002320Y008120D01*
X002320Y007120D02*
X001720Y007120D01*
X001720Y006120D02*
X002320Y006120D01*
D12*
X011770Y010270D03*
X011770Y010620D03*
X011770Y010970D03*
D13*
X011459Y002620D03*
X010081Y002620D03*
D14*
X010270Y019370D03*
X009270Y019370D03*
X011270Y019370D03*
X012270Y019370D03*
D15*
X019020Y017620D03*
X019020Y016620D03*
X020020Y016620D03*
X020020Y017620D03*
X020020Y015620D03*
X019020Y015620D03*
X019020Y014620D03*
X020020Y014620D03*
X020020Y013620D03*
X019020Y013620D03*
X019020Y007620D03*
X020020Y007620D03*
X020020Y006620D03*
X020020Y005620D03*
X019020Y005620D03*
X019020Y006620D03*
X019020Y004620D03*
X020020Y004620D03*
X020020Y003620D03*
X019020Y003620D03*
X002520Y013620D03*
X001520Y013620D03*
X001520Y014620D03*
X002520Y014620D03*
X002520Y015620D03*
X001520Y015620D03*
X001520Y016620D03*
X002520Y016620D03*
X002520Y017620D03*
X001520Y017620D03*
D16*
X005833Y014120D03*
X005520Y013245D03*
X005520Y012120D03*
X004270Y011120D03*
X004020Y010870D03*
X004458Y010433D03*
X004270Y010120D03*
X004770Y010120D03*
X005520Y010370D03*
X005770Y010620D03*
X005520Y009370D03*
X004770Y008370D03*
X005520Y007870D03*
X005520Y007120D03*
X007020Y006370D03*
X007020Y005870D03*
X007520Y005870D03*
X007520Y006370D03*
X007770Y005370D03*
X008770Y006870D03*
X008770Y007245D03*
X008770Y007620D03*
X009520Y007620D03*
X010020Y007620D03*
X010145Y008495D03*
X010520Y008495D03*
X010895Y008495D03*
X010895Y008870D03*
X010520Y008870D03*
X010145Y008870D03*
X010145Y009245D03*
X010520Y009245D03*
X010895Y009245D03*
X011770Y008370D03*
X011270Y007620D03*
X011270Y006620D03*
X011770Y005620D03*
X010270Y006120D03*
X010270Y006620D03*
X009333Y008683D03*
X008083Y008995D03*
X007520Y008620D03*
X007020Y008120D03*
X007770Y010370D03*
X008020Y010620D03*
X009395Y010745D03*
X009395Y009995D03*
X010645Y010495D03*
X010895Y010808D03*
X011145Y010495D03*
X013520Y010370D03*
X013520Y009870D03*
X013520Y009370D03*
X013520Y008870D03*
X013520Y008370D03*
X013520Y007870D03*
X013520Y007370D03*
X013520Y006870D03*
X015958Y009370D03*
X016270Y008995D03*
X015270Y009620D03*
X014270Y009620D03*
X014270Y009995D03*
X016520Y011620D03*
X015270Y012683D03*
X014270Y012683D03*
X014270Y014120D03*
X017020Y014120D03*
X017020Y016120D03*
X010520Y012870D03*
X006770Y013120D03*
X002520Y012870D03*
X002520Y012370D03*
X002020Y012370D03*
X001520Y012370D03*
X001520Y012870D03*
X002020Y012870D03*
D17*
X005770Y015620D03*
X005770Y016620D03*
X010770Y016620D03*
X015020Y016620D03*
X015020Y017120D03*
X015520Y016245D03*
X015520Y015870D03*
X015520Y015495D03*
X015520Y015120D03*
X015520Y014745D03*
X015020Y014620D03*
X015020Y015120D03*
X015020Y015620D03*
X015020Y016120D03*
X019020Y012620D03*
X020020Y012620D03*
X017270Y010620D03*
X016770Y010620D03*
X016270Y010620D03*
X016270Y010120D03*
X016770Y010120D03*
X017270Y010120D03*
X015520Y007870D03*
X015520Y007370D03*
X015520Y006870D03*
X015020Y007370D03*
X014520Y007370D03*
X014520Y007870D03*
X015020Y007870D03*
X015520Y006370D03*
X015520Y005870D03*
X015520Y005370D03*
X015020Y005370D03*
X014520Y005370D03*
X011270Y004120D03*
X013520Y001120D03*
M02*
