G75*
G70*
%OFA0B0*%
%FSLAX24Y24*%
%IPPOS*%
%LPD*%
%AMOC8*
5,1,8,0,0,1.08239X$1,22.5*
%
%ADD10C,0.0600*%
%ADD11R,0.0500X0.0250*%
%ADD12OC8,0.0650*%
%ADD13OC8,0.0591*%
%ADD14C,0.0270*%
%ADD15C,0.0340*%
%ADD16C,0.0100*%
%ADD17C,0.0080*%
%ADD18C,0.0160*%
%ADD19C,0.0060*%
D10*
X001720Y006120D02*
X002320Y006120D01*
X002320Y007120D02*
X001720Y007120D01*
X001720Y008120D02*
X002320Y008120D01*
D11*
X011770Y010270D03*
X011770Y010620D03*
X011770Y010970D03*
D12*
X011270Y019370D03*
X012270Y019370D03*
X010270Y019370D03*
X009270Y019370D03*
D13*
X002520Y017620D03*
X002520Y016620D03*
X001520Y016620D03*
X001520Y017620D03*
X001520Y015620D03*
X002520Y015620D03*
X002520Y014620D03*
X001520Y014620D03*
X001520Y013620D03*
X002520Y013620D03*
X019020Y013620D03*
X020020Y013620D03*
X020020Y014620D03*
X019020Y014620D03*
X019020Y015620D03*
X020020Y015620D03*
X020020Y016620D03*
X019020Y016620D03*
X019020Y017620D03*
X020020Y017620D03*
X020020Y007620D03*
X019020Y007620D03*
X019020Y006620D03*
X019020Y005620D03*
X020020Y005620D03*
X020020Y006620D03*
X020020Y004620D03*
X019020Y004620D03*
X019020Y003620D03*
X020020Y003620D03*
D14*
X016270Y008995D03*
X015958Y009370D03*
X015270Y009620D03*
X014270Y009620D03*
X014270Y009995D03*
X013520Y009870D03*
X013520Y009370D03*
X013520Y008870D03*
X013520Y008370D03*
X013520Y007870D03*
X013520Y007370D03*
X013520Y006870D03*
X011770Y005620D03*
X011270Y006620D03*
X010270Y006620D03*
X010270Y006120D03*
X010020Y007620D03*
X009520Y007620D03*
X008770Y007620D03*
X008770Y007245D03*
X008770Y006870D03*
X007520Y006370D03*
X007520Y005870D03*
X007020Y005870D03*
X007020Y006370D03*
X007770Y005370D03*
X005520Y007120D03*
X005520Y007870D03*
X004770Y008370D03*
X005520Y009370D03*
X004770Y010120D03*
X004458Y010433D03*
X004270Y010120D03*
X004020Y010870D03*
X004270Y011120D03*
X005520Y010370D03*
X005770Y010620D03*
X005520Y012120D03*
X005520Y013245D03*
X005833Y014120D03*
X006770Y013120D03*
X008020Y010620D03*
X007770Y010370D03*
X008083Y008995D03*
X007520Y008620D03*
X007020Y008120D03*
X009333Y008683D03*
X010145Y008870D03*
X010145Y008495D03*
X010520Y008495D03*
X010895Y008495D03*
X010895Y008870D03*
X010520Y008870D03*
X010520Y009245D03*
X010145Y009245D03*
X010895Y009245D03*
X011770Y008370D03*
X011270Y007620D03*
X009395Y009995D03*
X009395Y010745D03*
X010645Y010495D03*
X010895Y010808D03*
X011145Y010495D03*
X013520Y010370D03*
X014270Y012683D03*
X015270Y012683D03*
X016520Y011620D03*
X017020Y014120D03*
X017020Y016120D03*
X014270Y014120D03*
X010520Y012870D03*
X002520Y012870D03*
X002520Y012370D03*
X002020Y012370D03*
X001520Y012370D03*
X001520Y012870D03*
X002020Y012870D03*
D15*
X005770Y015620D03*
X005770Y016620D03*
X010770Y016620D03*
X015020Y016620D03*
X015020Y017120D03*
X015520Y016245D03*
X015520Y015870D03*
X015520Y015495D03*
X015520Y015120D03*
X015520Y014745D03*
X015020Y014620D03*
X015020Y015120D03*
X015020Y015620D03*
X015020Y016120D03*
X019020Y012620D03*
X020020Y012620D03*
X017270Y010620D03*
X016770Y010620D03*
X016270Y010620D03*
X016270Y010120D03*
X016770Y010120D03*
X017270Y010120D03*
X015520Y007870D03*
X015520Y007370D03*
X015520Y006870D03*
X015020Y007370D03*
X014520Y007370D03*
X014520Y007870D03*
X015020Y007870D03*
X015520Y006370D03*
X015520Y005870D03*
X015520Y005370D03*
X015020Y005370D03*
X014520Y005370D03*
X011270Y004120D03*
X013520Y001120D03*
D16*
X001204Y001055D02*
X001057Y001257D01*
X000980Y001495D01*
X000970Y001620D01*
X000970Y019620D01*
X000980Y019746D01*
X001057Y019984D01*
X001204Y020186D01*
X001407Y020333D01*
X001645Y020411D01*
X001770Y020420D01*
X019770Y020420D01*
X019895Y020411D01*
X020133Y020333D01*
X020336Y020186D01*
X020483Y019984D01*
X020560Y019746D01*
X020570Y019620D01*
X020570Y001620D01*
X020560Y001495D01*
X020483Y001257D01*
X020483Y001257D01*
X020336Y001055D01*
X020133Y000908D01*
X019895Y000830D01*
X019770Y000820D01*
X001770Y000820D01*
X001645Y000830D01*
X001407Y000908D01*
X001204Y001055D01*
X001260Y001014D02*
X020280Y001014D01*
X020378Y001113D02*
X001162Y001113D01*
X001090Y001211D02*
X001873Y001211D01*
X001888Y001205D02*
X002152Y001205D01*
X002397Y001307D01*
X002584Y001494D01*
X002685Y001738D01*
X002685Y002003D01*
X002584Y002247D01*
X002397Y002434D01*
X002152Y002535D01*
X001888Y002535D01*
X001643Y002434D01*
X001456Y002247D01*
X001355Y002003D01*
X001355Y001738D01*
X001456Y001494D01*
X001643Y001307D01*
X001888Y001205D01*
X001640Y001310D02*
X001040Y001310D01*
X001008Y001408D02*
X001542Y001408D01*
X001451Y001507D02*
X000979Y001507D01*
X000971Y001605D02*
X001410Y001605D01*
X001369Y001704D02*
X000970Y001704D01*
X000970Y001802D02*
X001355Y001802D01*
X001355Y001901D02*
X000970Y001901D01*
X000970Y001999D02*
X001355Y001999D01*
X001394Y002098D02*
X000970Y002098D01*
X000970Y002196D02*
X001435Y002196D01*
X001504Y002295D02*
X000970Y002295D01*
X000970Y002393D02*
X001603Y002393D01*
X001783Y002492D02*
X000970Y002492D01*
X000970Y002590D02*
X009704Y002590D01*
X009704Y002545D02*
X009761Y002407D01*
X009867Y002301D01*
X010006Y002243D01*
X010156Y002243D01*
X010295Y002301D01*
X010401Y002407D01*
X010458Y002545D01*
X010458Y002695D01*
X010401Y002834D01*
X010295Y002940D01*
X010156Y002998D01*
X010006Y002998D01*
X009867Y002940D01*
X009761Y002834D01*
X009704Y002695D01*
X009704Y002545D01*
X009726Y002492D02*
X002257Y002492D01*
X002437Y002393D02*
X009775Y002393D01*
X009881Y002295D02*
X002536Y002295D01*
X002605Y002196D02*
X018935Y002196D01*
X018956Y002247D02*
X018855Y002003D01*
X018855Y001738D01*
X018956Y001494D01*
X019143Y001307D01*
X019388Y001205D01*
X019652Y001205D01*
X019897Y001307D01*
X020084Y001494D01*
X020185Y001738D01*
X020185Y002003D01*
X020084Y002247D01*
X019897Y002434D01*
X019652Y002535D01*
X019388Y002535D01*
X019143Y002434D01*
X018956Y002247D01*
X019004Y002295D02*
X011659Y002295D01*
X011673Y002301D02*
X011534Y002243D01*
X011384Y002243D01*
X011245Y002301D01*
X011139Y002407D01*
X011082Y002545D01*
X011082Y002695D01*
X011139Y002834D01*
X011245Y002940D01*
X011384Y002998D01*
X011534Y002998D01*
X011673Y002940D01*
X011779Y002834D01*
X011836Y002695D01*
X011836Y002545D01*
X011779Y002407D01*
X011673Y002301D01*
X011765Y002393D02*
X019103Y002393D01*
X019283Y002492D02*
X011814Y002492D01*
X011836Y002590D02*
X020570Y002590D01*
X020570Y002492D02*
X019757Y002492D01*
X019937Y002393D02*
X020570Y002393D01*
X020570Y002295D02*
X020036Y002295D01*
X020105Y002196D02*
X020570Y002196D01*
X020570Y002098D02*
X020146Y002098D01*
X020185Y001999D02*
X020570Y001999D01*
X020570Y001901D02*
X020185Y001901D01*
X020185Y001802D02*
X020570Y001802D01*
X020570Y001704D02*
X020171Y001704D01*
X020130Y001605D02*
X020569Y001605D01*
X020561Y001507D02*
X020089Y001507D01*
X019998Y001408D02*
X020532Y001408D01*
X020500Y001310D02*
X019900Y001310D01*
X019667Y001211D02*
X020450Y001211D01*
X020145Y000916D02*
X001395Y000916D01*
X002167Y001211D02*
X019373Y001211D01*
X019140Y001310D02*
X002400Y001310D01*
X002498Y001408D02*
X019042Y001408D01*
X018951Y001507D02*
X002589Y001507D01*
X002630Y001605D02*
X018910Y001605D01*
X018869Y001704D02*
X002671Y001704D01*
X002685Y001802D02*
X018855Y001802D01*
X018855Y001901D02*
X002685Y001901D01*
X002685Y001999D02*
X018855Y001999D01*
X018894Y002098D02*
X002646Y002098D01*
X000970Y002689D02*
X009704Y002689D01*
X009742Y002787D02*
X000970Y002787D01*
X000970Y002886D02*
X009813Y002886D01*
X009974Y002984D02*
X000970Y002984D01*
X000970Y003083D02*
X020570Y003083D01*
X020570Y003181D02*
X000970Y003181D01*
X000970Y003280D02*
X018787Y003280D01*
X018852Y003215D02*
X018615Y003452D01*
X018615Y003788D01*
X018852Y004026D01*
X019188Y004026D01*
X019425Y003788D01*
X019425Y003452D01*
X019188Y003215D01*
X018852Y003215D01*
X018689Y003378D02*
X000970Y003378D01*
X000970Y003477D02*
X018615Y003477D01*
X018615Y003575D02*
X000970Y003575D01*
X000970Y003674D02*
X018615Y003674D01*
X018615Y003772D02*
X000970Y003772D01*
X000970Y003871D02*
X018697Y003871D01*
X018796Y003969D02*
X000970Y003969D01*
X000970Y004068D02*
X020570Y004068D01*
X020570Y004166D02*
X000970Y004166D01*
X000970Y004265D02*
X018802Y004265D01*
X018852Y004215D02*
X019188Y004215D01*
X019425Y004452D01*
X019425Y004788D01*
X019188Y005026D01*
X018852Y005026D01*
X018615Y004788D01*
X018615Y004452D01*
X018852Y004215D01*
X018704Y004363D02*
X000970Y004363D01*
X000970Y004462D02*
X018615Y004462D01*
X018615Y004560D02*
X000970Y004560D01*
X000970Y004659D02*
X018615Y004659D01*
X018615Y004757D02*
X000970Y004757D01*
X000970Y004856D02*
X018682Y004856D01*
X018781Y004954D02*
X000970Y004954D01*
X000970Y005053D02*
X020570Y005053D01*
X020570Y005151D02*
X015697Y005151D01*
X015679Y005133D02*
X015757Y005212D01*
X015800Y005315D01*
X015800Y005426D01*
X015757Y005529D01*
X015679Y005608D01*
X015648Y005620D01*
X015679Y005633D01*
X015757Y005712D01*
X015800Y005815D01*
X015800Y005926D01*
X015757Y006029D01*
X015679Y006108D01*
X015648Y006120D01*
X015679Y006133D01*
X015757Y006212D01*
X015800Y006315D01*
X015800Y006426D01*
X015757Y006529D01*
X015679Y006608D01*
X015648Y006620D01*
X015679Y006633D01*
X015757Y006712D01*
X015800Y006815D01*
X015800Y006926D01*
X015757Y007029D01*
X015679Y007108D01*
X015648Y007120D01*
X015679Y007133D01*
X015757Y007212D01*
X015800Y007315D01*
X015800Y007426D01*
X015757Y007529D01*
X015679Y007608D01*
X015648Y007620D01*
X015679Y007633D01*
X015757Y007712D01*
X015800Y007815D01*
X015800Y007926D01*
X015757Y008029D01*
X015679Y008108D01*
X015576Y008150D01*
X015464Y008150D01*
X015361Y008108D01*
X015283Y008029D01*
X015270Y007998D01*
X015257Y008029D01*
X015179Y008108D01*
X015076Y008150D01*
X014964Y008150D01*
X014861Y008108D01*
X014783Y008029D01*
X014770Y007998D01*
X014757Y008029D01*
X014679Y008108D01*
X014576Y008150D01*
X014464Y008150D01*
X014361Y008108D01*
X014283Y008029D01*
X014240Y007926D01*
X014240Y007815D01*
X014283Y007712D01*
X014361Y007633D01*
X014392Y007620D01*
X014361Y007608D01*
X014283Y007529D01*
X014240Y007426D01*
X014240Y007315D01*
X014283Y007212D01*
X014361Y007133D01*
X014464Y007090D01*
X014576Y007090D01*
X014679Y007133D01*
X014757Y007212D01*
X014770Y007242D01*
X014783Y007212D01*
X014861Y007133D01*
X014964Y007090D01*
X015076Y007090D01*
X015179Y007133D01*
X015257Y007212D01*
X015270Y007242D01*
X015283Y007212D01*
X015361Y007133D01*
X015392Y007120D01*
X015361Y007108D01*
X015283Y007029D01*
X015240Y006926D01*
X015240Y006815D01*
X015283Y006712D01*
X015361Y006633D01*
X015392Y006620D01*
X015361Y006608D01*
X015283Y006529D01*
X015240Y006426D01*
X015240Y006315D01*
X015283Y006212D01*
X015361Y006133D01*
X015392Y006120D01*
X015361Y006108D01*
X015283Y006029D01*
X015240Y005926D01*
X015240Y005815D01*
X015283Y005712D01*
X015361Y005633D01*
X015392Y005620D01*
X015361Y005608D01*
X015283Y005529D01*
X015270Y005498D01*
X015257Y005529D01*
X015179Y005608D01*
X015076Y005650D01*
X014964Y005650D01*
X014861Y005608D01*
X014783Y005529D01*
X014770Y005498D01*
X014757Y005529D01*
X014679Y005608D01*
X014576Y005650D01*
X014464Y005650D01*
X014361Y005608D01*
X014283Y005529D01*
X014240Y005426D01*
X014240Y005315D01*
X014283Y005212D01*
X014361Y005133D01*
X014464Y005090D01*
X014576Y005090D01*
X014679Y005133D01*
X014757Y005212D01*
X014770Y005242D01*
X014783Y005212D01*
X014861Y005133D01*
X014964Y005090D01*
X015076Y005090D01*
X015179Y005133D01*
X015257Y005212D01*
X015270Y005242D01*
X015283Y005212D01*
X015361Y005133D01*
X015464Y005090D01*
X015576Y005090D01*
X015679Y005133D01*
X015773Y005250D02*
X020570Y005250D01*
X020570Y005348D02*
X015800Y005348D01*
X015791Y005447D02*
X020570Y005447D01*
X020570Y005545D02*
X015741Y005545D01*
X015689Y005644D02*
X020570Y005644D01*
X020570Y005742D02*
X015770Y005742D01*
X015800Y005841D02*
X020570Y005841D01*
X020570Y005939D02*
X015794Y005939D01*
X015748Y006038D02*
X020570Y006038D01*
X020570Y006136D02*
X015682Y006136D01*
X015767Y006235D02*
X018832Y006235D01*
X018852Y006215D02*
X018615Y006452D01*
X018615Y006788D01*
X018852Y007026D01*
X019188Y007026D01*
X019425Y006788D01*
X019425Y006452D01*
X019188Y006215D01*
X018852Y006215D01*
X018734Y006333D02*
X015800Y006333D01*
X015798Y006432D02*
X018635Y006432D01*
X018615Y006530D02*
X015756Y006530D01*
X015669Y006629D02*
X018615Y006629D01*
X018615Y006727D02*
X015764Y006727D01*
X015800Y006826D02*
X018652Y006826D01*
X018751Y006924D02*
X015800Y006924D01*
X015760Y007023D02*
X018849Y007023D01*
X018852Y007215D02*
X019188Y007215D01*
X019425Y007452D01*
X019425Y007788D01*
X019188Y008026D01*
X018852Y008026D01*
X018615Y007788D01*
X018615Y007452D01*
X018852Y007215D01*
X018847Y007220D02*
X015761Y007220D01*
X015800Y007318D02*
X018749Y007318D01*
X018650Y007417D02*
X015800Y007417D01*
X015763Y007515D02*
X018615Y007515D01*
X018615Y007614D02*
X015664Y007614D01*
X015758Y007712D02*
X018615Y007712D01*
X018637Y007811D02*
X015798Y007811D01*
X015800Y007909D02*
X018736Y007909D01*
X018834Y008008D02*
X015766Y008008D01*
X015680Y008106D02*
X020570Y008106D01*
X020570Y008008D02*
X020206Y008008D01*
X020188Y008026D02*
X019852Y008026D01*
X019615Y007788D01*
X019615Y007452D01*
X019852Y007215D01*
X020188Y007215D01*
X020425Y007452D01*
X020425Y007788D01*
X020188Y008026D01*
X020304Y007909D02*
X020570Y007909D01*
X020570Y007811D02*
X020403Y007811D01*
X020425Y007712D02*
X020570Y007712D01*
X020570Y007614D02*
X020425Y007614D01*
X020425Y007515D02*
X020570Y007515D01*
X020570Y007417D02*
X020390Y007417D01*
X020291Y007318D02*
X020570Y007318D01*
X020570Y007220D02*
X020193Y007220D01*
X020188Y007026D02*
X019852Y007026D01*
X019615Y006788D01*
X019615Y006452D01*
X019852Y006215D01*
X020188Y006215D01*
X020425Y006452D01*
X020425Y006788D01*
X020188Y007026D01*
X020191Y007023D02*
X020570Y007023D01*
X020570Y007121D02*
X015651Y007121D01*
X015389Y007121D02*
X015151Y007121D01*
X015261Y007220D02*
X015279Y007220D01*
X015280Y007023D02*
X002723Y007023D01*
X002730Y007039D02*
X002730Y007202D01*
X002668Y007353D01*
X002552Y007468D01*
X002402Y007530D01*
X001638Y007530D01*
X001488Y007468D01*
X001372Y007353D01*
X001310Y007202D01*
X001310Y007039D01*
X001372Y006888D01*
X001488Y006773D01*
X001638Y006710D01*
X002402Y006710D01*
X002552Y006773D01*
X002668Y006888D01*
X002730Y007039D01*
X002730Y007121D02*
X014389Y007121D01*
X014279Y007220D02*
X002723Y007220D01*
X002682Y007318D02*
X014240Y007318D01*
X014240Y007417D02*
X011413Y007417D01*
X011409Y007413D02*
X011478Y007482D01*
X011515Y007572D01*
X011515Y007669D01*
X011478Y007759D01*
X011409Y007828D01*
X011319Y007865D01*
X011221Y007865D01*
X011131Y007828D01*
X011062Y007759D01*
X011025Y007669D01*
X011025Y007572D01*
X011062Y007482D01*
X011131Y007413D01*
X011221Y007375D01*
X011319Y007375D01*
X011409Y007413D01*
X011492Y007515D02*
X014277Y007515D01*
X014376Y007614D02*
X011515Y007614D01*
X011497Y007712D02*
X014282Y007712D01*
X014242Y007811D02*
X011426Y007811D01*
X011114Y007811D02*
X010176Y007811D01*
X010159Y007828D02*
X010069Y007865D01*
X009971Y007865D01*
X009881Y007828D01*
X009812Y007759D01*
X009775Y007669D01*
X009775Y007572D01*
X009812Y007482D01*
X009881Y007413D01*
X009971Y007375D01*
X010069Y007375D01*
X010159Y007413D01*
X010228Y007482D01*
X010265Y007572D01*
X010265Y007669D01*
X010228Y007759D01*
X010159Y007828D01*
X010247Y007712D02*
X011043Y007712D01*
X011025Y007614D02*
X010265Y007614D01*
X010242Y007515D02*
X011048Y007515D01*
X011127Y007417D02*
X010163Y007417D01*
X009877Y007417D02*
X009663Y007417D01*
X009659Y007413D02*
X009728Y007482D01*
X009765Y007572D01*
X009765Y007669D01*
X009728Y007759D01*
X009659Y007828D01*
X009569Y007865D01*
X009471Y007865D01*
X009381Y007828D01*
X009312Y007759D01*
X009275Y007669D01*
X009275Y007572D01*
X009312Y007482D01*
X009381Y007413D01*
X009471Y007375D01*
X009569Y007375D01*
X009659Y007413D01*
X009742Y007515D02*
X009798Y007515D01*
X009775Y007614D02*
X009765Y007614D01*
X009747Y007712D02*
X009793Y007712D01*
X009864Y007811D02*
X009676Y007811D01*
X009364Y007811D02*
X008926Y007811D01*
X008909Y007828D02*
X008819Y007865D01*
X008721Y007865D01*
X008631Y007828D01*
X008562Y007759D01*
X008525Y007669D01*
X008525Y007572D01*
X008562Y007482D01*
X008631Y007413D01*
X008721Y007375D01*
X008819Y007375D01*
X008909Y007413D01*
X008978Y007482D01*
X009015Y007572D01*
X009015Y007669D01*
X008978Y007759D01*
X008909Y007828D01*
X008997Y007712D02*
X009293Y007712D01*
X009275Y007614D02*
X009015Y007614D01*
X008992Y007515D02*
X009298Y007515D01*
X009377Y007417D02*
X008913Y007417D01*
X008627Y007417D02*
X002603Y007417D01*
X002438Y007515D02*
X008548Y007515D01*
X008525Y007614D02*
X000970Y007614D01*
X000970Y007712D02*
X001634Y007712D01*
X001638Y007710D02*
X002402Y007710D01*
X002552Y007773D01*
X002668Y007888D01*
X002730Y008039D01*
X002730Y008202D01*
X002668Y008353D01*
X002552Y008468D01*
X002402Y008530D01*
X001638Y008530D01*
X001488Y008468D01*
X001372Y008353D01*
X001310Y008202D01*
X001310Y008039D01*
X001372Y007888D01*
X001488Y007773D01*
X001638Y007710D01*
X001602Y007515D02*
X000970Y007515D01*
X000970Y007417D02*
X001437Y007417D01*
X001358Y007318D02*
X000970Y007318D01*
X000970Y007220D02*
X001317Y007220D01*
X001310Y007121D02*
X000970Y007121D01*
X000970Y007023D02*
X001317Y007023D01*
X001357Y006924D02*
X000970Y006924D01*
X000970Y006826D02*
X001435Y006826D01*
X001597Y006727D02*
X000970Y006727D01*
X000970Y006629D02*
X010025Y006629D01*
X010025Y006669D02*
X010025Y006572D01*
X010062Y006482D01*
X010131Y006413D01*
X010221Y006375D01*
X010319Y006375D01*
X010409Y006413D01*
X010478Y006482D01*
X010515Y006572D01*
X010515Y006669D01*
X010478Y006759D01*
X010409Y006828D01*
X010319Y006865D01*
X010221Y006865D01*
X010131Y006828D01*
X010062Y006759D01*
X010025Y006669D01*
X010049Y006727D02*
X002443Y006727D01*
X002605Y006826D02*
X010129Y006826D01*
X010042Y006530D02*
X007706Y006530D01*
X007728Y006509D02*
X007659Y006578D01*
X007569Y006615D01*
X007471Y006615D01*
X007381Y006578D01*
X007312Y006509D01*
X007275Y006419D01*
X007275Y006322D01*
X007312Y006232D01*
X007381Y006163D01*
X007471Y006125D01*
X007569Y006125D01*
X007659Y006163D01*
X007728Y006232D01*
X007765Y006322D01*
X007765Y006419D01*
X007728Y006509D01*
X007760Y006432D02*
X010112Y006432D01*
X010144Y006333D02*
X007765Y006333D01*
X007729Y006235D02*
X010052Y006235D01*
X010062Y006259D02*
X010025Y006169D01*
X010025Y006072D01*
X010062Y005982D01*
X010131Y005913D01*
X010221Y005875D01*
X010319Y005875D01*
X010409Y005913D01*
X010478Y005982D01*
X010515Y006072D01*
X010515Y006169D01*
X010478Y006259D01*
X010409Y006328D01*
X010319Y006365D01*
X010221Y006365D01*
X010131Y006328D01*
X010062Y006259D01*
X010025Y006136D02*
X007595Y006136D01*
X007569Y006115D02*
X007471Y006115D01*
X007381Y006078D01*
X007312Y006009D01*
X007275Y005919D01*
X007275Y005822D01*
X007312Y005732D01*
X007381Y005663D01*
X007471Y005625D01*
X007569Y005625D01*
X007659Y005663D01*
X007728Y005732D01*
X007765Y005822D01*
X007765Y005919D01*
X007728Y006009D01*
X007659Y006078D01*
X007569Y006115D01*
X007445Y006136D02*
X007095Y006136D01*
X007069Y006125D02*
X007159Y006163D01*
X007228Y006232D01*
X007265Y006322D01*
X007265Y006419D01*
X007228Y006509D01*
X007159Y006578D01*
X007069Y006615D01*
X006971Y006615D01*
X006881Y006578D01*
X006812Y006509D01*
X006775Y006419D01*
X006775Y006322D01*
X006812Y006232D01*
X006881Y006163D01*
X006971Y006125D01*
X007069Y006125D01*
X007069Y006115D02*
X006971Y006115D01*
X006881Y006078D01*
X006812Y006009D01*
X006775Y005919D01*
X006775Y005822D01*
X006812Y005732D01*
X006881Y005663D01*
X006971Y005625D01*
X007069Y005625D01*
X007159Y005663D01*
X007228Y005732D01*
X007265Y005822D01*
X007265Y005919D01*
X007228Y006009D01*
X007159Y006078D01*
X007069Y006115D01*
X006945Y006136D02*
X002730Y006136D01*
X002730Y006202D02*
X002668Y006353D01*
X002552Y006468D01*
X002402Y006530D01*
X001638Y006530D01*
X001488Y006468D01*
X001372Y006353D01*
X001310Y006202D01*
X001310Y006039D01*
X001372Y005888D01*
X001488Y005773D01*
X001638Y005710D01*
X002402Y005710D01*
X002552Y005773D01*
X002668Y005888D01*
X002730Y006039D01*
X002730Y006202D01*
X002716Y006235D02*
X006811Y006235D01*
X006775Y006333D02*
X002676Y006333D01*
X002588Y006432D02*
X006780Y006432D01*
X006834Y006530D02*
X000970Y006530D01*
X000970Y006432D02*
X001452Y006432D01*
X001364Y006333D02*
X000970Y006333D01*
X000970Y006235D02*
X001324Y006235D01*
X001310Y006136D02*
X000970Y006136D01*
X000970Y006038D02*
X001310Y006038D01*
X001351Y005939D02*
X000970Y005939D01*
X000970Y005841D02*
X001420Y005841D01*
X001561Y005742D02*
X000970Y005742D01*
X000970Y005644D02*
X006927Y005644D01*
X006808Y005742D02*
X002479Y005742D01*
X002620Y005841D02*
X006775Y005841D01*
X006783Y005939D02*
X002689Y005939D01*
X002730Y006038D02*
X006841Y006038D01*
X007199Y006038D02*
X007341Y006038D01*
X007283Y005939D02*
X007257Y005939D01*
X007265Y005841D02*
X007275Y005841D01*
X007308Y005742D02*
X007232Y005742D01*
X007113Y005644D02*
X007427Y005644D01*
X007613Y005644D02*
X011525Y005644D01*
X011525Y005669D02*
X011525Y005572D01*
X011562Y005482D01*
X011631Y005413D01*
X011721Y005375D01*
X011819Y005375D01*
X011909Y005413D01*
X011978Y005482D01*
X012015Y005572D01*
X012015Y005669D01*
X011978Y005759D01*
X011909Y005828D01*
X011819Y005865D01*
X011721Y005865D01*
X011631Y005828D01*
X011562Y005759D01*
X011525Y005669D01*
X011555Y005742D02*
X007732Y005742D01*
X007765Y005841D02*
X011662Y005841D01*
X011878Y005841D02*
X015240Y005841D01*
X015246Y005939D02*
X010435Y005939D01*
X010501Y006038D02*
X015292Y006038D01*
X015358Y006136D02*
X010515Y006136D01*
X010488Y006235D02*
X015273Y006235D01*
X015240Y006333D02*
X010396Y006333D01*
X010428Y006432D02*
X015242Y006432D01*
X015284Y006530D02*
X010498Y006530D01*
X010515Y006629D02*
X015371Y006629D01*
X015276Y006727D02*
X010491Y006727D01*
X010411Y006826D02*
X015240Y006826D01*
X015240Y006924D02*
X002683Y006924D01*
X002406Y007712D02*
X008543Y007712D01*
X008614Y007811D02*
X002590Y007811D01*
X002676Y007909D02*
X006889Y007909D01*
X006881Y007913D02*
X006971Y007875D01*
X007069Y007875D01*
X007159Y007913D01*
X007228Y007982D01*
X007265Y008072D01*
X007265Y008169D01*
X007228Y008259D01*
X007159Y008328D01*
X007069Y008365D01*
X006971Y008365D01*
X006881Y008328D01*
X006812Y008259D01*
X006775Y008169D01*
X006775Y008072D01*
X006812Y007982D01*
X006881Y007913D01*
X006801Y008008D02*
X002717Y008008D01*
X002730Y008106D02*
X006775Y008106D01*
X006790Y008205D02*
X004951Y008205D01*
X004978Y008232D02*
X004909Y008163D01*
X004819Y008125D01*
X004721Y008125D01*
X004631Y008163D01*
X004562Y008232D01*
X004525Y008322D01*
X004525Y008419D01*
X004562Y008509D01*
X004631Y008578D01*
X004721Y008615D01*
X004819Y008615D01*
X004909Y008578D01*
X004978Y008509D01*
X005015Y008419D01*
X005015Y008322D01*
X004978Y008232D01*
X005007Y008303D02*
X006857Y008303D01*
X007183Y008303D02*
X011533Y008303D01*
X011525Y008322D02*
X011562Y008232D01*
X011631Y008163D01*
X011721Y008125D01*
X011819Y008125D01*
X011909Y008163D01*
X011978Y008232D01*
X012015Y008322D01*
X012015Y008419D01*
X011978Y008509D01*
X011952Y008535D01*
X011952Y010035D01*
X012066Y010035D01*
X012130Y010100D01*
X012130Y010441D01*
X012126Y010445D01*
X012130Y010450D01*
X012130Y010791D01*
X012126Y010795D01*
X012130Y010800D01*
X012130Y011141D01*
X012066Y011205D01*
X011920Y011205D01*
X011920Y011682D01*
X010765Y012837D01*
X010765Y012919D01*
X010728Y013009D01*
X010659Y013078D01*
X010569Y013115D01*
X010471Y013115D01*
X010381Y013078D01*
X010312Y013009D01*
X010275Y012919D01*
X010275Y012822D01*
X010312Y012732D01*
X010381Y012663D01*
X010471Y012625D01*
X010553Y012625D01*
X011620Y011558D01*
X011620Y011205D01*
X011474Y011205D01*
X011410Y011141D01*
X011410Y010942D01*
X011395Y010958D01*
X011091Y010958D01*
X011034Y011016D01*
X010944Y011053D01*
X010846Y011053D01*
X010756Y011016D01*
X010687Y010947D01*
X010650Y010857D01*
X010650Y010759D01*
X010658Y010740D01*
X010596Y010740D01*
X010506Y010703D01*
X010437Y010634D01*
X010400Y010544D01*
X010400Y010447D01*
X010437Y010357D01*
X010506Y010288D01*
X010596Y010250D01*
X010694Y010250D01*
X010784Y010288D01*
X010853Y010357D01*
X010890Y010447D01*
X010890Y010544D01*
X010882Y010563D01*
X010944Y010563D01*
X011034Y010600D01*
X011091Y010658D01*
X011270Y010658D01*
X011370Y010558D01*
X011410Y010518D01*
X011410Y010450D01*
X011414Y010445D01*
X011410Y010441D01*
X011410Y010100D01*
X011474Y010035D01*
X011572Y010035D01*
X011572Y008519D01*
X011562Y008509D01*
X011525Y008419D01*
X011525Y008322D01*
X011525Y008402D02*
X007633Y008402D01*
X007659Y008413D02*
X007728Y008482D01*
X007749Y008533D01*
X009136Y008533D01*
X009194Y008475D01*
X009284Y008438D01*
X009381Y008438D01*
X009471Y008475D01*
X009540Y008544D01*
X009577Y008634D01*
X009577Y008732D01*
X009540Y008822D01*
X009471Y008891D01*
X009381Y008928D01*
X009284Y008928D01*
X009194Y008891D01*
X009136Y008833D01*
X007647Y008833D01*
X007569Y008865D01*
X007471Y008865D01*
X007381Y008828D01*
X007312Y008759D01*
X007275Y008669D01*
X007275Y008572D01*
X007312Y008482D01*
X007381Y008413D01*
X007471Y008375D01*
X007569Y008375D01*
X007659Y008413D01*
X007735Y008500D02*
X009168Y008500D01*
X009497Y008500D02*
X011559Y008500D01*
X011572Y008599D02*
X009563Y008599D01*
X009577Y008697D02*
X011572Y008697D01*
X011572Y008796D02*
X009551Y008796D01*
X009462Y008894D02*
X011572Y008894D01*
X011572Y008993D02*
X000970Y008993D01*
X000970Y009091D02*
X011572Y009091D01*
X011572Y009190D02*
X005686Y009190D01*
X005659Y009163D02*
X005728Y009232D01*
X005765Y009322D01*
X005765Y009419D01*
X005728Y009509D01*
X005659Y009578D01*
X005569Y009615D01*
X005471Y009615D01*
X005381Y009578D01*
X005312Y009509D01*
X005275Y009419D01*
X005275Y009322D01*
X005312Y009232D01*
X005381Y009163D01*
X005471Y009125D01*
X005569Y009125D01*
X005659Y009163D01*
X005751Y009288D02*
X011572Y009288D01*
X011572Y009387D02*
X005765Y009387D01*
X005738Y009485D02*
X011572Y009485D01*
X011572Y009584D02*
X005645Y009584D01*
X005395Y009584D02*
X000970Y009584D01*
X000970Y009682D02*
X011572Y009682D01*
X011572Y009781D02*
X000970Y009781D01*
X000970Y009879D02*
X004712Y009879D01*
X004721Y009875D02*
X004819Y009875D01*
X004909Y009913D01*
X004978Y009982D01*
X005015Y010072D01*
X005015Y010169D01*
X004978Y010259D01*
X004909Y010328D01*
X004819Y010365D01*
X004721Y010365D01*
X004689Y010352D01*
X004702Y010384D01*
X004702Y010482D01*
X004665Y010572D01*
X004596Y010641D01*
X004506Y010678D01*
X004410Y010678D01*
X004265Y010823D01*
X004265Y010919D01*
X004228Y011009D01*
X004159Y011078D01*
X004069Y011115D01*
X003971Y011115D01*
X003881Y011078D01*
X003812Y011009D01*
X003775Y010919D01*
X003775Y010822D01*
X003812Y010732D01*
X003881Y010663D01*
X003971Y010625D01*
X004067Y010625D01*
X004213Y010480D01*
X004213Y010384D01*
X004250Y010294D01*
X004319Y010225D01*
X004409Y010188D01*
X004506Y010188D01*
X004538Y010201D01*
X004525Y010169D01*
X004525Y010072D01*
X004562Y009982D01*
X004631Y009913D01*
X004721Y009875D01*
X004828Y009879D02*
X011572Y009879D01*
X011572Y009978D02*
X004974Y009978D01*
X005015Y010076D02*
X011433Y010076D01*
X011410Y010175D02*
X007921Y010175D01*
X007909Y010163D02*
X007978Y010232D01*
X008015Y010322D01*
X008015Y010375D01*
X008069Y010375D01*
X008159Y010413D01*
X008228Y010482D01*
X008265Y010572D01*
X008265Y010669D01*
X008228Y010759D01*
X008159Y010828D01*
X008069Y010865D01*
X007971Y010865D01*
X007881Y010828D01*
X007812Y010759D01*
X007775Y010669D01*
X007775Y010615D01*
X007721Y010615D01*
X007631Y010578D01*
X007562Y010509D01*
X007525Y010419D01*
X007525Y010322D01*
X007562Y010232D01*
X007631Y010163D01*
X007721Y010125D01*
X007819Y010125D01*
X007909Y010163D01*
X007995Y010273D02*
X010541Y010273D01*
X010431Y010372D02*
X008015Y010372D01*
X008217Y010470D02*
X010400Y010470D01*
X010410Y010569D02*
X008264Y010569D01*
X008265Y010667D02*
X010471Y010667D01*
X010650Y010766D02*
X008221Y010766D01*
X008071Y010864D02*
X010653Y010864D01*
X010704Y010963D02*
X004247Y010963D01*
X004265Y010864D02*
X005719Y010864D01*
X005721Y010865D02*
X005631Y010828D01*
X005562Y010759D01*
X005525Y010669D01*
X005525Y010615D01*
X005471Y010615D01*
X005381Y010578D01*
X005312Y010509D01*
X005275Y010419D01*
X005275Y010322D01*
X005312Y010232D01*
X005381Y010163D01*
X005471Y010125D01*
X005569Y010125D01*
X005659Y010163D01*
X005728Y010232D01*
X005765Y010322D01*
X005765Y010375D01*
X005819Y010375D01*
X005909Y010413D01*
X005978Y010482D01*
X006015Y010572D01*
X006015Y010669D01*
X005978Y010759D01*
X005909Y010828D01*
X005819Y010865D01*
X005721Y010865D01*
X005821Y010864D02*
X007969Y010864D01*
X007819Y010766D02*
X005971Y010766D01*
X006015Y010667D02*
X007775Y010667D01*
X007622Y010569D02*
X006014Y010569D01*
X005967Y010470D02*
X007546Y010470D01*
X007525Y010372D02*
X005765Y010372D01*
X005745Y010273D02*
X007545Y010273D01*
X007619Y010175D02*
X005671Y010175D01*
X005369Y010175D02*
X005013Y010175D01*
X004963Y010273D02*
X005295Y010273D01*
X005275Y010372D02*
X004697Y010372D01*
X004702Y010470D02*
X005296Y010470D01*
X005372Y010569D02*
X004666Y010569D01*
X004532Y010667D02*
X005525Y010667D01*
X005569Y010766D02*
X004322Y010766D01*
X004123Y010569D02*
X000970Y010569D01*
X000970Y010667D02*
X003876Y010667D01*
X003798Y010766D02*
X000970Y010766D01*
X000970Y010864D02*
X003775Y010864D01*
X003793Y010963D02*
X000970Y010963D01*
X000970Y011061D02*
X003865Y011061D01*
X004175Y011061D02*
X011410Y011061D01*
X011410Y010963D02*
X011086Y010963D01*
X011429Y011160D02*
X000970Y011160D01*
X000970Y011258D02*
X011620Y011258D01*
X011620Y011357D02*
X000970Y011357D01*
X000970Y011455D02*
X011620Y011455D01*
X011620Y011554D02*
X000970Y011554D01*
X000970Y011652D02*
X011526Y011652D01*
X011427Y011751D02*
X000970Y011751D01*
X000970Y011849D02*
X011329Y011849D01*
X011230Y011948D02*
X000970Y011948D01*
X000970Y012046D02*
X011132Y012046D01*
X011033Y012145D02*
X000970Y012145D01*
X000970Y012243D02*
X010935Y012243D01*
X010836Y012342D02*
X000970Y012342D01*
X000970Y012440D02*
X010738Y012440D01*
X010639Y012539D02*
X000970Y012539D01*
X000970Y012637D02*
X010442Y012637D01*
X010311Y012736D02*
X000970Y012736D01*
X000970Y012834D02*
X010275Y012834D01*
X010281Y012933D02*
X006929Y012933D01*
X006909Y012913D02*
X006978Y012982D01*
X007015Y013072D01*
X007015Y013169D01*
X006978Y013259D01*
X006909Y013328D01*
X006819Y013365D01*
X006721Y013365D01*
X006631Y013328D01*
X006562Y013259D01*
X006525Y013169D01*
X006525Y013072D01*
X006562Y012982D01*
X006631Y012913D01*
X006721Y012875D01*
X006819Y012875D01*
X006909Y012913D01*
X006998Y013031D02*
X010335Y013031D01*
X010705Y013031D02*
X020570Y013031D01*
X020570Y012933D02*
X010759Y012933D01*
X010768Y012834D02*
X018838Y012834D01*
X018861Y012858D02*
X018783Y012779D01*
X018740Y012676D01*
X018740Y012565D01*
X018744Y012556D01*
X017958Y011770D01*
X016716Y011770D01*
X016659Y011828D01*
X016569Y011865D01*
X016471Y011865D01*
X016381Y011828D01*
X016312Y011759D01*
X016275Y011669D01*
X016275Y011572D01*
X016312Y011482D01*
X016381Y011413D01*
X016471Y011375D01*
X016569Y011375D01*
X016659Y011413D01*
X016716Y011470D01*
X018082Y011470D01*
X018956Y012344D01*
X018964Y012340D01*
X019076Y012340D01*
X019179Y012383D01*
X019257Y012462D01*
X019300Y012565D01*
X019300Y012676D01*
X019257Y012779D01*
X019179Y012858D01*
X019076Y012900D01*
X018964Y012900D01*
X018861Y012858D01*
X018765Y012736D02*
X010867Y012736D01*
X010965Y012637D02*
X018740Y012637D01*
X018726Y012539D02*
X011064Y012539D01*
X011162Y012440D02*
X018628Y012440D01*
X018529Y012342D02*
X011261Y012342D01*
X011359Y012243D02*
X018431Y012243D01*
X018332Y012145D02*
X011458Y012145D01*
X011556Y012046D02*
X018234Y012046D01*
X018135Y011948D02*
X011655Y011948D01*
X011753Y011849D02*
X016433Y011849D01*
X016309Y011751D02*
X011852Y011751D01*
X011920Y011652D02*
X016275Y011652D01*
X016282Y011554D02*
X011920Y011554D01*
X011920Y011455D02*
X016338Y011455D01*
X016702Y011455D02*
X020570Y011455D01*
X020570Y011357D02*
X011920Y011357D01*
X011920Y011258D02*
X020570Y011258D01*
X020570Y011160D02*
X012111Y011160D01*
X012130Y011061D02*
X020570Y011061D01*
X020570Y010963D02*
X012130Y010963D01*
X012130Y010864D02*
X020570Y010864D01*
X020570Y010766D02*
X012130Y010766D01*
X012130Y010667D02*
X020570Y010667D01*
X020570Y010569D02*
X012130Y010569D01*
X012130Y010470D02*
X020570Y010470D01*
X020570Y010372D02*
X012130Y010372D01*
X012130Y010273D02*
X020570Y010273D01*
X020570Y010175D02*
X012130Y010175D01*
X012107Y010076D02*
X020570Y010076D01*
X020570Y009978D02*
X011952Y009978D01*
X011952Y009879D02*
X020570Y009879D01*
X020570Y009781D02*
X011952Y009781D01*
X011952Y009682D02*
X020570Y009682D01*
X020570Y009584D02*
X016082Y009584D01*
X016096Y009578D02*
X016006Y009615D01*
X015909Y009615D01*
X015819Y009578D01*
X015750Y009509D01*
X015713Y009419D01*
X015713Y009322D01*
X015750Y009232D01*
X015819Y009163D01*
X015909Y009125D01*
X016006Y009125D01*
X016087Y009159D01*
X016062Y009134D01*
X016025Y009044D01*
X016025Y008947D01*
X016062Y008857D01*
X016131Y008788D01*
X016221Y008750D01*
X016319Y008750D01*
X016409Y008788D01*
X016478Y008857D01*
X016515Y008947D01*
X016515Y009044D01*
X016478Y009134D01*
X016409Y009203D01*
X016319Y009240D01*
X016221Y009240D01*
X016141Y009207D01*
X016165Y009232D01*
X016202Y009322D01*
X016202Y009419D01*
X016165Y009509D01*
X016096Y009578D01*
X016175Y009485D02*
X020570Y009485D01*
X020570Y009387D02*
X016202Y009387D01*
X016189Y009288D02*
X020570Y009288D01*
X020570Y009190D02*
X016422Y009190D01*
X016495Y009091D02*
X020570Y009091D01*
X020570Y008993D02*
X016515Y008993D01*
X016493Y008894D02*
X020570Y008894D01*
X020570Y008796D02*
X016417Y008796D01*
X016123Y008796D02*
X011952Y008796D01*
X011952Y008894D02*
X016047Y008894D01*
X016025Y008993D02*
X011952Y008993D01*
X011952Y009091D02*
X016045Y009091D01*
X015791Y009190D02*
X011952Y009190D01*
X011952Y009288D02*
X015726Y009288D01*
X015713Y009387D02*
X011952Y009387D01*
X011952Y009485D02*
X015740Y009485D01*
X015833Y009584D02*
X011952Y009584D01*
X011410Y010273D02*
X010749Y010273D01*
X010859Y010372D02*
X011410Y010372D01*
X011410Y010470D02*
X010890Y010470D01*
X010958Y010569D02*
X011359Y010569D01*
X011952Y008697D02*
X020570Y008697D01*
X020570Y008599D02*
X011952Y008599D01*
X011981Y008500D02*
X020570Y008500D01*
X020570Y008402D02*
X012015Y008402D01*
X012007Y008303D02*
X020570Y008303D01*
X020570Y008205D02*
X011951Y008205D01*
X011589Y008205D02*
X007250Y008205D01*
X007265Y008106D02*
X014360Y008106D01*
X014274Y008008D02*
X007239Y008008D01*
X007151Y007909D02*
X014240Y007909D01*
X014680Y008106D02*
X014860Y008106D01*
X014774Y008008D02*
X014766Y008008D01*
X015180Y008106D02*
X015360Y008106D01*
X015274Y008008D02*
X015266Y008008D01*
X014779Y007220D02*
X014761Y007220D01*
X014651Y007121D02*
X014889Y007121D01*
X015270Y005742D02*
X011985Y005742D01*
X012015Y005644D02*
X014449Y005644D01*
X014591Y005644D02*
X014949Y005644D01*
X015091Y005644D02*
X015351Y005644D01*
X015299Y005545D02*
X015241Y005545D01*
X015197Y005151D02*
X015343Y005151D01*
X014843Y005151D02*
X014697Y005151D01*
X014343Y005151D02*
X007882Y005151D01*
X007909Y005163D02*
X007978Y005232D01*
X008015Y005322D01*
X008015Y005419D01*
X007978Y005509D01*
X007909Y005578D01*
X007819Y005615D01*
X007721Y005615D01*
X007631Y005578D01*
X007562Y005509D01*
X007525Y005419D01*
X007525Y005322D01*
X007562Y005232D01*
X007631Y005163D01*
X007721Y005125D01*
X007819Y005125D01*
X007909Y005163D01*
X007985Y005250D02*
X014267Y005250D01*
X014240Y005348D02*
X008015Y005348D01*
X008003Y005447D02*
X011597Y005447D01*
X011536Y005545D02*
X007941Y005545D01*
X007599Y005545D02*
X000970Y005545D01*
X000970Y005447D02*
X007537Y005447D01*
X007525Y005348D02*
X000970Y005348D01*
X000970Y005250D02*
X007555Y005250D01*
X007658Y005151D02*
X000970Y005151D01*
X000970Y007811D02*
X001450Y007811D01*
X001364Y007909D02*
X000970Y007909D01*
X000970Y008008D02*
X001323Y008008D01*
X001310Y008106D02*
X000970Y008106D01*
X000970Y008205D02*
X001311Y008205D01*
X001352Y008303D02*
X000970Y008303D01*
X000970Y008402D02*
X001422Y008402D01*
X001566Y008500D02*
X000970Y008500D01*
X000970Y008599D02*
X004681Y008599D01*
X004559Y008500D02*
X002474Y008500D01*
X002618Y008402D02*
X004525Y008402D01*
X004533Y008303D02*
X002688Y008303D01*
X002729Y008205D02*
X004589Y008205D01*
X005015Y008402D02*
X007407Y008402D01*
X007305Y008500D02*
X004981Y008500D01*
X004859Y008599D02*
X007275Y008599D01*
X007287Y008697D02*
X000970Y008697D01*
X000970Y008796D02*
X007349Y008796D01*
X009203Y008894D02*
X000970Y008894D01*
X000970Y009190D02*
X005354Y009190D01*
X005289Y009288D02*
X000970Y009288D01*
X000970Y009387D02*
X005275Y009387D01*
X005302Y009485D02*
X000970Y009485D01*
X000970Y009978D02*
X004566Y009978D01*
X004525Y010076D02*
X000970Y010076D01*
X000970Y010175D02*
X004527Y010175D01*
X004270Y010273D02*
X000970Y010273D01*
X000970Y010372D02*
X004218Y010372D01*
X004213Y010470D02*
X000970Y010470D01*
X000970Y012933D02*
X006611Y012933D01*
X006542Y013031D02*
X005644Y013031D01*
X005659Y013038D02*
X005728Y013107D01*
X005765Y013197D01*
X005765Y013294D01*
X005728Y013384D01*
X005659Y013453D01*
X005569Y013490D01*
X005471Y013490D01*
X005381Y013453D01*
X005312Y013384D01*
X005275Y013294D01*
X005275Y013197D01*
X005312Y013107D01*
X005381Y013038D01*
X005471Y013000D01*
X005569Y013000D01*
X005659Y013038D01*
X005737Y013130D02*
X006525Y013130D01*
X006550Y013228D02*
X005765Y013228D01*
X005751Y013327D02*
X006630Y013327D01*
X006910Y013327D02*
X018740Y013327D01*
X018642Y013425D02*
X005686Y013425D01*
X005354Y013425D02*
X000970Y013425D01*
X000970Y013327D02*
X005289Y013327D01*
X005275Y013228D02*
X000970Y013228D01*
X000970Y013130D02*
X005303Y013130D01*
X005396Y013031D02*
X000970Y013031D01*
X000970Y013524D02*
X018615Y013524D01*
X018615Y013452D02*
X018852Y013215D01*
X019188Y013215D01*
X019425Y013452D01*
X019425Y013788D01*
X019188Y014026D01*
X018852Y014026D01*
X018615Y013788D01*
X018615Y013452D01*
X018615Y013622D02*
X000970Y013622D01*
X000970Y013721D02*
X018615Y013721D01*
X018646Y013819D02*
X000970Y013819D01*
X000970Y013918D02*
X014126Y013918D01*
X014131Y013913D02*
X014062Y013982D01*
X014025Y014072D01*
X014025Y014169D01*
X014062Y014259D01*
X014131Y014328D01*
X014221Y014365D01*
X014319Y014365D01*
X014409Y014328D01*
X014478Y014259D01*
X014515Y014169D01*
X014515Y014072D01*
X014478Y013982D01*
X014409Y013913D01*
X014319Y013875D01*
X014221Y013875D01*
X014131Y013913D01*
X014048Y014016D02*
X000970Y014016D01*
X000970Y014115D02*
X014025Y014115D01*
X014043Y014213D02*
X000970Y014213D01*
X000970Y014312D02*
X001255Y014312D01*
X001352Y014215D02*
X001115Y014452D01*
X001115Y014788D01*
X001352Y015026D01*
X001688Y015026D01*
X001925Y014788D01*
X001925Y014452D01*
X001688Y014215D01*
X001352Y014215D01*
X001157Y014410D02*
X000970Y014410D01*
X000970Y014509D02*
X001115Y014509D01*
X001115Y014607D02*
X000970Y014607D01*
X000970Y014706D02*
X001115Y014706D01*
X001131Y014804D02*
X000970Y014804D01*
X000970Y014903D02*
X001229Y014903D01*
X001328Y015001D02*
X000970Y015001D01*
X000970Y015100D02*
X020570Y015100D01*
X020570Y015198D02*
X000970Y015198D01*
X000970Y015297D02*
X001270Y015297D01*
X001352Y015215D02*
X001115Y015452D01*
X001115Y015788D01*
X001352Y016026D01*
X001688Y016026D01*
X001925Y015788D01*
X001925Y015452D01*
X001688Y015215D01*
X001352Y015215D01*
X001172Y015395D02*
X000970Y015395D01*
X000970Y015494D02*
X001115Y015494D01*
X001115Y015592D02*
X000970Y015592D01*
X000970Y015691D02*
X001115Y015691D01*
X001116Y015789D02*
X000970Y015789D01*
X000970Y015888D02*
X001214Y015888D01*
X001313Y015986D02*
X000970Y015986D01*
X000970Y016085D02*
X016775Y016085D01*
X016775Y016072D02*
X016812Y015982D01*
X016881Y015913D01*
X016971Y015875D01*
X017069Y015875D01*
X017159Y015913D01*
X017228Y015982D01*
X017265Y016072D01*
X017265Y016169D01*
X017228Y016259D01*
X017159Y016328D01*
X017069Y016365D01*
X016971Y016365D01*
X016881Y016328D01*
X016812Y016259D01*
X016775Y016169D01*
X016775Y016072D01*
X016810Y015986D02*
X002727Y015986D01*
X002688Y016026D02*
X002352Y016026D01*
X002115Y015788D01*
X002115Y015452D01*
X002352Y015215D01*
X002688Y015215D01*
X002925Y015452D01*
X002925Y015788D01*
X002688Y016026D01*
X002688Y016215D02*
X002925Y016452D01*
X002925Y016788D01*
X002688Y017026D01*
X002352Y017026D01*
X002115Y016788D01*
X002115Y016452D01*
X002352Y016215D01*
X002688Y016215D01*
X002755Y016282D02*
X016835Y016282D01*
X016781Y016183D02*
X000970Y016183D01*
X000970Y016282D02*
X001285Y016282D01*
X001352Y016215D02*
X001115Y016452D01*
X001115Y016788D01*
X001352Y017026D01*
X001688Y017026D01*
X001925Y016788D01*
X001925Y016452D01*
X001688Y016215D01*
X001352Y016215D01*
X001187Y016380D02*
X000970Y016380D01*
X000970Y016479D02*
X001115Y016479D01*
X001115Y016577D02*
X000970Y016577D01*
X000970Y016676D02*
X001115Y016676D01*
X001115Y016774D02*
X000970Y016774D01*
X000970Y016873D02*
X001199Y016873D01*
X001298Y016971D02*
X000970Y016971D01*
X000970Y017070D02*
X020570Y017070D01*
X020570Y017168D02*
X000970Y017168D01*
X000970Y017267D02*
X001300Y017267D01*
X001352Y017215D02*
X001115Y017452D01*
X001115Y017788D01*
X001352Y018026D01*
X001688Y018026D01*
X001925Y017788D01*
X001925Y017452D01*
X001688Y017215D01*
X001352Y017215D01*
X001202Y017365D02*
X000970Y017365D01*
X000970Y017464D02*
X001115Y017464D01*
X001115Y017562D02*
X000970Y017562D01*
X000970Y017661D02*
X001115Y017661D01*
X001115Y017759D02*
X000970Y017759D01*
X000970Y017858D02*
X001184Y017858D01*
X001283Y017956D02*
X000970Y017956D01*
X000970Y018055D02*
X020570Y018055D01*
X020570Y018153D02*
X000970Y018153D01*
X000970Y018252D02*
X020570Y018252D01*
X020570Y018350D02*
X000970Y018350D01*
X000970Y018449D02*
X020570Y018449D01*
X020570Y018547D02*
X000970Y018547D01*
X000970Y018646D02*
X020570Y018646D01*
X020570Y018744D02*
X019747Y018744D01*
X019652Y018705D02*
X019897Y018807D01*
X020084Y018994D01*
X020185Y019238D01*
X020185Y019503D01*
X020084Y019747D01*
X019897Y019934D01*
X019652Y020035D01*
X019388Y020035D01*
X019143Y019934D01*
X018956Y019747D01*
X018855Y019503D01*
X018855Y019238D01*
X018956Y018994D01*
X019143Y018807D01*
X019388Y018705D01*
X019652Y018705D01*
X019293Y018744D02*
X002247Y018744D01*
X002152Y018705D02*
X002397Y018807D01*
X002584Y018994D01*
X002685Y019238D01*
X002685Y019503D01*
X002584Y019747D01*
X002397Y019934D01*
X002152Y020035D01*
X001888Y020035D01*
X001643Y019934D01*
X001456Y019747D01*
X001355Y019503D01*
X001355Y019238D01*
X001456Y018994D01*
X001643Y018807D01*
X001888Y018705D01*
X002152Y018705D01*
X001793Y018744D02*
X000970Y018744D01*
X000970Y018843D02*
X001607Y018843D01*
X001509Y018941D02*
X000970Y018941D01*
X000970Y019040D02*
X001437Y019040D01*
X001396Y019138D02*
X000970Y019138D01*
X000970Y019237D02*
X001355Y019237D01*
X001355Y019335D02*
X000970Y019335D01*
X000970Y019434D02*
X001355Y019434D01*
X001367Y019532D02*
X000970Y019532D01*
X000971Y019631D02*
X001408Y019631D01*
X001449Y019729D02*
X000979Y019729D01*
X001007Y019828D02*
X001537Y019828D01*
X001636Y019926D02*
X001039Y019926D01*
X001087Y020025D02*
X001862Y020025D01*
X002178Y020025D02*
X019362Y020025D01*
X019136Y019926D02*
X002404Y019926D01*
X002503Y019828D02*
X019037Y019828D01*
X018949Y019729D02*
X012526Y019729D01*
X012450Y019805D02*
X012090Y019805D01*
X011835Y019550D01*
X011835Y019190D01*
X012090Y018936D01*
X012450Y018936D01*
X012705Y019190D01*
X012705Y019550D01*
X012450Y019805D01*
X012624Y019631D02*
X018908Y019631D01*
X018867Y019532D02*
X012705Y019532D01*
X012705Y019434D02*
X018855Y019434D01*
X018855Y019335D02*
X012705Y019335D01*
X012705Y019237D02*
X018855Y019237D01*
X018896Y019138D02*
X012653Y019138D01*
X012554Y019040D02*
X018937Y019040D01*
X019009Y018941D02*
X012456Y018941D01*
X012084Y018941D02*
X009456Y018941D01*
X009450Y018936D02*
X009705Y019190D01*
X009705Y019550D01*
X009450Y019805D01*
X009090Y019805D01*
X008835Y019550D01*
X008835Y019190D01*
X009090Y018936D01*
X009450Y018936D01*
X009554Y019040D02*
X011986Y019040D01*
X011887Y019138D02*
X009653Y019138D01*
X009705Y019237D02*
X011835Y019237D01*
X011835Y019335D02*
X009705Y019335D01*
X009705Y019434D02*
X011835Y019434D01*
X011835Y019532D02*
X009705Y019532D01*
X009624Y019631D02*
X011916Y019631D01*
X012014Y019729D02*
X009526Y019729D01*
X009014Y019729D02*
X002591Y019729D01*
X002632Y019631D02*
X008916Y019631D01*
X008835Y019532D02*
X002673Y019532D01*
X002685Y019434D02*
X008835Y019434D01*
X008835Y019335D02*
X002685Y019335D01*
X002685Y019237D02*
X008835Y019237D01*
X008887Y019138D02*
X002644Y019138D01*
X002603Y019040D02*
X008986Y019040D01*
X009084Y018941D02*
X002531Y018941D01*
X002433Y018843D02*
X019107Y018843D01*
X019188Y018026D02*
X018852Y018026D01*
X018615Y017788D01*
X018615Y017452D01*
X018852Y017215D01*
X019188Y017215D01*
X019425Y017452D01*
X019425Y017788D01*
X019188Y018026D01*
X019257Y017956D02*
X019783Y017956D01*
X019852Y018026D02*
X019615Y017788D01*
X019615Y017452D01*
X019852Y017215D01*
X020188Y017215D01*
X020425Y017452D01*
X020425Y017788D01*
X020188Y018026D01*
X019852Y018026D01*
X019684Y017858D02*
X019356Y017858D01*
X019425Y017759D02*
X019615Y017759D01*
X019615Y017661D02*
X019425Y017661D01*
X019425Y017562D02*
X019615Y017562D01*
X019615Y017464D02*
X019425Y017464D01*
X019338Y017365D02*
X019702Y017365D01*
X019800Y017267D02*
X019240Y017267D01*
X019188Y017026D02*
X018852Y017026D01*
X018615Y016788D01*
X018615Y016452D01*
X018852Y016215D01*
X019188Y016215D01*
X019425Y016452D01*
X019425Y016788D01*
X019188Y017026D01*
X019242Y016971D02*
X019798Y016971D01*
X019852Y017026D02*
X019615Y016788D01*
X019615Y016452D01*
X019852Y016215D01*
X020188Y016215D01*
X020425Y016452D01*
X020425Y016788D01*
X020188Y017026D01*
X019852Y017026D01*
X019699Y016873D02*
X019341Y016873D01*
X019425Y016774D02*
X019615Y016774D01*
X019615Y016676D02*
X019425Y016676D01*
X019425Y016577D02*
X019615Y016577D01*
X019615Y016479D02*
X019425Y016479D01*
X019353Y016380D02*
X019687Y016380D01*
X019785Y016282D02*
X019255Y016282D01*
X018785Y016282D02*
X017205Y016282D01*
X017259Y016183D02*
X020570Y016183D01*
X020570Y016085D02*
X017265Y016085D01*
X017230Y015986D02*
X020570Y015986D01*
X020570Y015888D02*
X017099Y015888D01*
X016941Y015888D02*
X005856Y015888D01*
X005826Y015900D02*
X005929Y015858D01*
X006007Y015779D01*
X006050Y015676D01*
X006050Y015565D01*
X006007Y015462D01*
X005929Y015383D01*
X005826Y015340D01*
X005714Y015340D01*
X005611Y015383D01*
X005533Y015462D01*
X005490Y015565D01*
X005490Y015676D01*
X005533Y015779D01*
X005611Y015858D01*
X005714Y015900D01*
X005826Y015900D01*
X005684Y015888D02*
X002826Y015888D01*
X002924Y015789D02*
X005543Y015789D01*
X005496Y015691D02*
X002925Y015691D01*
X002925Y015592D02*
X005490Y015592D01*
X005519Y015494D02*
X002925Y015494D01*
X002868Y015395D02*
X005599Y015395D01*
X005941Y015395D02*
X020570Y015395D01*
X020570Y015297D02*
X002770Y015297D01*
X002688Y015026D02*
X002352Y015026D01*
X002115Y014788D01*
X002115Y014452D01*
X002352Y014215D01*
X002688Y014215D01*
X002925Y014452D01*
X002925Y014788D01*
X002688Y015026D01*
X002712Y015001D02*
X020570Y015001D01*
X020570Y014903D02*
X002811Y014903D01*
X002909Y014804D02*
X020570Y014804D01*
X020570Y014706D02*
X002925Y014706D01*
X002925Y014607D02*
X020570Y014607D01*
X020570Y014509D02*
X002925Y014509D01*
X002883Y014410D02*
X020570Y014410D01*
X020570Y014312D02*
X017175Y014312D01*
X017159Y014328D02*
X017069Y014365D01*
X016971Y014365D01*
X016881Y014328D01*
X016812Y014259D01*
X016775Y014169D01*
X016775Y014072D01*
X016812Y013982D01*
X016881Y013913D01*
X016971Y013875D01*
X017069Y013875D01*
X017159Y013913D01*
X017228Y013982D01*
X017265Y014072D01*
X017265Y014169D01*
X017228Y014259D01*
X017159Y014328D01*
X017247Y014213D02*
X020570Y014213D01*
X020570Y014115D02*
X017265Y014115D01*
X017242Y014016D02*
X018843Y014016D01*
X018744Y013918D02*
X017164Y013918D01*
X016876Y013918D02*
X014414Y013918D01*
X014492Y014016D02*
X016798Y014016D01*
X016775Y014115D02*
X014515Y014115D01*
X014497Y014213D02*
X016793Y014213D01*
X016865Y014312D02*
X014425Y014312D01*
X014115Y014312D02*
X002785Y014312D01*
X002255Y014312D02*
X001785Y014312D01*
X001883Y014410D02*
X002157Y014410D01*
X002115Y014509D02*
X001925Y014509D01*
X001925Y014607D02*
X002115Y014607D01*
X002115Y014706D02*
X001925Y014706D01*
X001909Y014804D02*
X002131Y014804D01*
X002229Y014903D02*
X001811Y014903D01*
X001712Y015001D02*
X002328Y015001D01*
X002270Y015297D02*
X001770Y015297D01*
X001868Y015395D02*
X002172Y015395D01*
X002115Y015494D02*
X001925Y015494D01*
X001925Y015592D02*
X002115Y015592D01*
X002115Y015691D02*
X001925Y015691D01*
X001924Y015789D02*
X002116Y015789D01*
X002214Y015888D02*
X001826Y015888D01*
X001727Y015986D02*
X002313Y015986D01*
X002285Y016282D02*
X001755Y016282D01*
X001853Y016380D02*
X002187Y016380D01*
X002115Y016479D02*
X001925Y016479D01*
X001925Y016577D02*
X002115Y016577D01*
X002115Y016676D02*
X001925Y016676D01*
X001925Y016774D02*
X002115Y016774D01*
X002199Y016873D02*
X001841Y016873D01*
X001742Y016971D02*
X002298Y016971D01*
X002352Y017215D02*
X002688Y017215D01*
X002925Y017452D01*
X002925Y017788D01*
X002688Y018026D01*
X002352Y018026D01*
X002115Y017788D01*
X002115Y017452D01*
X002352Y017215D01*
X002300Y017267D02*
X001740Y017267D01*
X001838Y017365D02*
X002202Y017365D01*
X002115Y017464D02*
X001925Y017464D01*
X001925Y017562D02*
X002115Y017562D01*
X002115Y017661D02*
X001925Y017661D01*
X001925Y017759D02*
X002115Y017759D01*
X002184Y017858D02*
X001856Y017858D01*
X001757Y017956D02*
X002283Y017956D01*
X002757Y017956D02*
X018783Y017956D01*
X018684Y017858D02*
X002856Y017858D01*
X002925Y017759D02*
X018615Y017759D01*
X018615Y017661D02*
X002925Y017661D01*
X002925Y017562D02*
X018615Y017562D01*
X018615Y017464D02*
X002925Y017464D01*
X002838Y017365D02*
X018702Y017365D01*
X018800Y017267D02*
X002740Y017267D01*
X002742Y016971D02*
X018798Y016971D01*
X018699Y016873D02*
X002841Y016873D01*
X002925Y016774D02*
X018615Y016774D01*
X018615Y016676D02*
X002925Y016676D01*
X002925Y016577D02*
X018615Y016577D01*
X018615Y016479D02*
X002925Y016479D01*
X002853Y016380D02*
X018687Y016380D01*
X020255Y016282D02*
X020570Y016282D01*
X020570Y016380D02*
X020353Y016380D01*
X020425Y016479D02*
X020570Y016479D01*
X020570Y016577D02*
X020425Y016577D01*
X020425Y016676D02*
X020570Y016676D01*
X020570Y016774D02*
X020425Y016774D01*
X020341Y016873D02*
X020570Y016873D01*
X020570Y016971D02*
X020242Y016971D01*
X020240Y017267D02*
X020570Y017267D01*
X020570Y017365D02*
X020338Y017365D01*
X020425Y017464D02*
X020570Y017464D01*
X020570Y017562D02*
X020425Y017562D01*
X020425Y017661D02*
X020570Y017661D01*
X020570Y017759D02*
X020425Y017759D01*
X020356Y017858D02*
X020570Y017858D01*
X020570Y017956D02*
X020257Y017956D01*
X020570Y018843D02*
X019933Y018843D01*
X020031Y018941D02*
X020570Y018941D01*
X020570Y019040D02*
X020103Y019040D01*
X020144Y019138D02*
X020570Y019138D01*
X020570Y019237D02*
X020185Y019237D01*
X020185Y019335D02*
X020570Y019335D01*
X020570Y019434D02*
X020185Y019434D01*
X020173Y019532D02*
X020570Y019532D01*
X020569Y019631D02*
X020132Y019631D01*
X020091Y019729D02*
X020561Y019729D01*
X020533Y019828D02*
X020003Y019828D01*
X019904Y019926D02*
X020501Y019926D01*
X020453Y020025D02*
X019678Y020025D01*
X019788Y020419D02*
X001752Y020419D01*
X001389Y020320D02*
X020151Y020320D01*
X020286Y020222D02*
X001254Y020222D01*
X001159Y020123D02*
X020381Y020123D01*
X020570Y015789D02*
X005997Y015789D01*
X006044Y015691D02*
X020570Y015691D01*
X020570Y015592D02*
X006050Y015592D01*
X006021Y015494D02*
X020570Y015494D01*
X020570Y014016D02*
X020197Y014016D01*
X020188Y014026D02*
X019852Y014026D01*
X019615Y013788D01*
X019615Y013452D01*
X019852Y013215D01*
X020188Y013215D01*
X020425Y013452D01*
X020425Y013788D01*
X020188Y014026D01*
X020296Y013918D02*
X020570Y013918D01*
X020570Y013819D02*
X020394Y013819D01*
X020425Y013721D02*
X020570Y013721D01*
X020570Y013622D02*
X020425Y013622D01*
X020425Y013524D02*
X020570Y013524D01*
X020570Y013425D02*
X020398Y013425D01*
X020300Y013327D02*
X020570Y013327D01*
X020570Y013228D02*
X020201Y013228D01*
X020076Y012900D02*
X019964Y012900D01*
X019861Y012858D01*
X019783Y012779D01*
X019740Y012676D01*
X019740Y012565D01*
X019783Y012462D01*
X019861Y012383D01*
X019964Y012340D01*
X020076Y012340D01*
X020179Y012383D01*
X020257Y012462D01*
X020300Y012565D01*
X020300Y012676D01*
X020257Y012779D01*
X020179Y012858D01*
X020076Y012900D01*
X020202Y012834D02*
X020570Y012834D01*
X020570Y012736D02*
X020275Y012736D01*
X020300Y012637D02*
X020570Y012637D01*
X020570Y012539D02*
X020289Y012539D01*
X020236Y012440D02*
X020570Y012440D01*
X020570Y012342D02*
X020079Y012342D01*
X019961Y012342D02*
X019079Y012342D01*
X018961Y012342D02*
X018954Y012342D01*
X018855Y012243D02*
X020570Y012243D01*
X020570Y012145D02*
X018757Y012145D01*
X018658Y012046D02*
X020570Y012046D01*
X020570Y011948D02*
X018560Y011948D01*
X018461Y011849D02*
X020570Y011849D01*
X020570Y011751D02*
X018363Y011751D01*
X018264Y011652D02*
X020570Y011652D01*
X020570Y011554D02*
X018166Y011554D01*
X018037Y011849D02*
X016607Y011849D01*
X018839Y013228D02*
X006990Y013228D01*
X007015Y013130D02*
X020570Y013130D01*
X019839Y013228D02*
X019201Y013228D01*
X019300Y013327D02*
X019740Y013327D01*
X019642Y013425D02*
X019398Y013425D01*
X019425Y013524D02*
X019615Y013524D01*
X019615Y013622D02*
X019425Y013622D01*
X019425Y013721D02*
X019615Y013721D01*
X019646Y013819D02*
X019394Y013819D01*
X019296Y013918D02*
X019744Y013918D01*
X019843Y014016D02*
X019197Y014016D01*
X019202Y012834D02*
X019838Y012834D01*
X019765Y012736D02*
X019275Y012736D01*
X019300Y012637D02*
X019740Y012637D01*
X019751Y012539D02*
X019289Y012539D01*
X019236Y012440D02*
X019804Y012440D01*
X019834Y008008D02*
X019206Y008008D01*
X019304Y007909D02*
X019736Y007909D01*
X019637Y007811D02*
X019403Y007811D01*
X019425Y007712D02*
X019615Y007712D01*
X019615Y007614D02*
X019425Y007614D01*
X019425Y007515D02*
X019615Y007515D01*
X019650Y007417D02*
X019390Y007417D01*
X019291Y007318D02*
X019749Y007318D01*
X019847Y007220D02*
X019193Y007220D01*
X019191Y007023D02*
X019849Y007023D01*
X019751Y006924D02*
X019289Y006924D01*
X019388Y006826D02*
X019652Y006826D01*
X019615Y006727D02*
X019425Y006727D01*
X019425Y006629D02*
X019615Y006629D01*
X019615Y006530D02*
X019425Y006530D01*
X019405Y006432D02*
X019635Y006432D01*
X019734Y006333D02*
X019306Y006333D01*
X019208Y006235D02*
X019832Y006235D01*
X020208Y006235D02*
X020570Y006235D01*
X020570Y006333D02*
X020306Y006333D01*
X020405Y006432D02*
X020570Y006432D01*
X020570Y006530D02*
X020425Y006530D01*
X020425Y006629D02*
X020570Y006629D01*
X020570Y006727D02*
X020425Y006727D01*
X020388Y006826D02*
X020570Y006826D01*
X020570Y006924D02*
X020289Y006924D01*
X020570Y004954D02*
X019259Y004954D01*
X019358Y004856D02*
X020570Y004856D01*
X020570Y004757D02*
X019425Y004757D01*
X019425Y004659D02*
X020570Y004659D01*
X020570Y004560D02*
X019425Y004560D01*
X019425Y004462D02*
X020570Y004462D01*
X020570Y004363D02*
X019336Y004363D01*
X019238Y004265D02*
X020570Y004265D01*
X020570Y003969D02*
X019244Y003969D01*
X019343Y003871D02*
X020570Y003871D01*
X020570Y003772D02*
X019425Y003772D01*
X019425Y003674D02*
X020570Y003674D01*
X020570Y003575D02*
X019425Y003575D01*
X019425Y003477D02*
X020570Y003477D01*
X020570Y003378D02*
X019351Y003378D01*
X019253Y003280D02*
X020570Y003280D01*
X020570Y002984D02*
X011566Y002984D01*
X011727Y002886D02*
X020570Y002886D01*
X020570Y002787D02*
X011798Y002787D01*
X011836Y002689D02*
X020570Y002689D01*
X014799Y005545D02*
X014741Y005545D01*
X014299Y005545D02*
X012004Y005545D01*
X011943Y005447D02*
X014249Y005447D01*
X011352Y002984D02*
X010188Y002984D01*
X010349Y002886D02*
X011191Y002886D01*
X011120Y002787D02*
X010420Y002787D01*
X010458Y002689D02*
X011082Y002689D01*
X011082Y002590D02*
X010458Y002590D01*
X010436Y002492D02*
X011104Y002492D01*
X011153Y002393D02*
X010387Y002393D01*
X010281Y002295D02*
X011259Y002295D01*
X010105Y005939D02*
X007757Y005939D01*
X007699Y006038D02*
X010039Y006038D01*
X007311Y006235D02*
X007229Y006235D01*
X007265Y006333D02*
X007275Y006333D01*
X007280Y006432D02*
X007260Y006432D01*
X007206Y006530D02*
X007334Y006530D01*
D17*
X007520Y008620D02*
X007583Y008683D01*
X009333Y008683D01*
X011333Y010808D02*
X011520Y010620D01*
X011770Y010620D01*
X011770Y010970D02*
X011770Y011620D01*
X010520Y012870D01*
X010895Y010808D02*
X011333Y010808D01*
X016520Y011620D02*
X018020Y011620D01*
X019020Y012620D01*
D18*
X011770Y010270D02*
X011762Y010262D01*
X011762Y008378D01*
X011770Y008370D01*
D19*
X004458Y010433D02*
X004020Y010870D01*
M02*
