G75*
G70*
%OFA0B0*%
%FSLAX24Y24*%
%IPPOS*%
%LPD*%
%AMOC8*
5,1,8,0,0,1.08239X$1,22.5*
%
%ADD10C,0.0000*%
%ADD11C,0.0080*%
%ADD12C,0.0050*%
%ADD13C,0.0040*%
%ADD14C,0.0060*%
%ADD15C,0.0160*%
%ADD16R,0.0280X0.0160*%
%ADD17R,0.0160X0.0280*%
%ADD18C,0.0100*%
%ADD19C,0.0030*%
%ADD20R,0.0118X0.0059*%
%ADD21R,0.0118X0.0118*%
%ADD22R,0.0059X0.0118*%
D10*
X000770Y001620D02*
X000770Y019620D01*
X000772Y019680D01*
X000777Y019741D01*
X000786Y019800D01*
X000799Y019859D01*
X000815Y019918D01*
X000835Y019975D01*
X000858Y020030D01*
X000885Y020085D01*
X000914Y020137D01*
X000947Y020188D01*
X000983Y020237D01*
X001021Y020283D01*
X001063Y020327D01*
X001107Y020369D01*
X001153Y020407D01*
X001202Y020443D01*
X001253Y020476D01*
X001305Y020505D01*
X001360Y020532D01*
X001415Y020555D01*
X001472Y020575D01*
X001531Y020591D01*
X001590Y020604D01*
X001649Y020613D01*
X001710Y020618D01*
X001770Y020620D01*
X019770Y020620D01*
X019830Y020618D01*
X019891Y020613D01*
X019950Y020604D01*
X020009Y020591D01*
X020068Y020575D01*
X020125Y020555D01*
X020180Y020532D01*
X020235Y020505D01*
X020287Y020476D01*
X020338Y020443D01*
X020387Y020407D01*
X020433Y020369D01*
X020477Y020327D01*
X020519Y020283D01*
X020557Y020237D01*
X020593Y020188D01*
X020626Y020137D01*
X020655Y020085D01*
X020682Y020030D01*
X020705Y019975D01*
X020725Y019918D01*
X020741Y019859D01*
X020754Y019800D01*
X020763Y019741D01*
X020768Y019680D01*
X020770Y019620D01*
X020770Y001620D01*
X020768Y001560D01*
X020763Y001499D01*
X020754Y001440D01*
X020741Y001381D01*
X020725Y001322D01*
X020705Y001265D01*
X020682Y001210D01*
X020655Y001155D01*
X020626Y001103D01*
X020593Y001052D01*
X020557Y001003D01*
X020519Y000957D01*
X020477Y000913D01*
X020433Y000871D01*
X020387Y000833D01*
X020338Y000797D01*
X020287Y000764D01*
X020235Y000735D01*
X020180Y000708D01*
X020125Y000685D01*
X020068Y000665D01*
X020009Y000649D01*
X019950Y000636D01*
X019891Y000627D01*
X019830Y000622D01*
X019770Y000620D01*
X001770Y000620D01*
X001710Y000622D01*
X001649Y000627D01*
X001590Y000636D01*
X001531Y000649D01*
X001472Y000665D01*
X001415Y000685D01*
X001360Y000708D01*
X001305Y000735D01*
X001253Y000764D01*
X001202Y000797D01*
X001153Y000833D01*
X001107Y000871D01*
X001063Y000913D01*
X001021Y000957D01*
X000983Y001003D01*
X000947Y001052D01*
X000914Y001103D01*
X000885Y001155D01*
X000858Y001210D01*
X000835Y001265D01*
X000815Y001322D01*
X000799Y001381D01*
X000786Y001440D01*
X000777Y001499D01*
X000772Y001560D01*
X000770Y001620D01*
X001555Y001870D02*
X001557Y001913D01*
X001563Y001955D01*
X001573Y001997D01*
X001586Y002038D01*
X001604Y002077D01*
X001625Y002115D01*
X001649Y002150D01*
X001676Y002183D01*
X001707Y002214D01*
X001740Y002241D01*
X001775Y002265D01*
X001813Y002286D01*
X001852Y002304D01*
X001893Y002317D01*
X001935Y002327D01*
X001977Y002333D01*
X002020Y002335D01*
X002063Y002333D01*
X002105Y002327D01*
X002147Y002317D01*
X002188Y002304D01*
X002227Y002286D01*
X002265Y002265D01*
X002300Y002241D01*
X002333Y002214D01*
X002364Y002183D01*
X002391Y002150D01*
X002415Y002115D01*
X002436Y002077D01*
X002454Y002038D01*
X002467Y001997D01*
X002477Y001955D01*
X002483Y001913D01*
X002485Y001870D01*
X002483Y001827D01*
X002477Y001785D01*
X002467Y001743D01*
X002454Y001702D01*
X002436Y001663D01*
X002415Y001625D01*
X002391Y001590D01*
X002364Y001557D01*
X002333Y001526D01*
X002300Y001499D01*
X002265Y001475D01*
X002227Y001454D01*
X002188Y001436D01*
X002147Y001423D01*
X002105Y001413D01*
X002063Y001407D01*
X002020Y001405D01*
X001977Y001407D01*
X001935Y001413D01*
X001893Y001423D01*
X001852Y001436D01*
X001813Y001454D01*
X001775Y001475D01*
X001740Y001499D01*
X001707Y001526D01*
X001676Y001557D01*
X001649Y001590D01*
X001625Y001625D01*
X001604Y001663D01*
X001586Y001702D01*
X001573Y001743D01*
X001563Y001785D01*
X001557Y001827D01*
X001555Y001870D01*
X009904Y002620D02*
X009906Y002646D01*
X009912Y002672D01*
X009922Y002697D01*
X009935Y002720D01*
X009951Y002740D01*
X009971Y002758D01*
X009993Y002773D01*
X010016Y002785D01*
X010042Y002793D01*
X010068Y002797D01*
X010094Y002797D01*
X010120Y002793D01*
X010146Y002785D01*
X010170Y002773D01*
X010191Y002758D01*
X010211Y002740D01*
X010227Y002720D01*
X010240Y002697D01*
X010250Y002672D01*
X010256Y002646D01*
X010258Y002620D01*
X010256Y002594D01*
X010250Y002568D01*
X010240Y002543D01*
X010227Y002520D01*
X010211Y002500D01*
X010191Y002482D01*
X010169Y002467D01*
X010146Y002455D01*
X010120Y002447D01*
X010094Y002443D01*
X010068Y002443D01*
X010042Y002447D01*
X010016Y002455D01*
X009992Y002467D01*
X009971Y002482D01*
X009951Y002500D01*
X009935Y002520D01*
X009922Y002543D01*
X009912Y002568D01*
X009906Y002594D01*
X009904Y002620D01*
X011282Y002620D02*
X011284Y002646D01*
X011290Y002672D01*
X011300Y002697D01*
X011313Y002720D01*
X011329Y002740D01*
X011349Y002758D01*
X011371Y002773D01*
X011394Y002785D01*
X011420Y002793D01*
X011446Y002797D01*
X011472Y002797D01*
X011498Y002793D01*
X011524Y002785D01*
X011548Y002773D01*
X011569Y002758D01*
X011589Y002740D01*
X011605Y002720D01*
X011618Y002697D01*
X011628Y002672D01*
X011634Y002646D01*
X011636Y002620D01*
X011634Y002594D01*
X011628Y002568D01*
X011618Y002543D01*
X011605Y002520D01*
X011589Y002500D01*
X011569Y002482D01*
X011547Y002467D01*
X011524Y002455D01*
X011498Y002447D01*
X011472Y002443D01*
X011446Y002443D01*
X011420Y002447D01*
X011394Y002455D01*
X011370Y002467D01*
X011349Y002482D01*
X011329Y002500D01*
X011313Y002520D01*
X011300Y002543D01*
X011290Y002568D01*
X011284Y002594D01*
X011282Y002620D01*
X019055Y001870D02*
X019057Y001913D01*
X019063Y001955D01*
X019073Y001997D01*
X019086Y002038D01*
X019104Y002077D01*
X019125Y002115D01*
X019149Y002150D01*
X019176Y002183D01*
X019207Y002214D01*
X019240Y002241D01*
X019275Y002265D01*
X019313Y002286D01*
X019352Y002304D01*
X019393Y002317D01*
X019435Y002327D01*
X019477Y002333D01*
X019520Y002335D01*
X019563Y002333D01*
X019605Y002327D01*
X019647Y002317D01*
X019688Y002304D01*
X019727Y002286D01*
X019765Y002265D01*
X019800Y002241D01*
X019833Y002214D01*
X019864Y002183D01*
X019891Y002150D01*
X019915Y002115D01*
X019936Y002077D01*
X019954Y002038D01*
X019967Y001997D01*
X019977Y001955D01*
X019983Y001913D01*
X019985Y001870D01*
X019983Y001827D01*
X019977Y001785D01*
X019967Y001743D01*
X019954Y001702D01*
X019936Y001663D01*
X019915Y001625D01*
X019891Y001590D01*
X019864Y001557D01*
X019833Y001526D01*
X019800Y001499D01*
X019765Y001475D01*
X019727Y001454D01*
X019688Y001436D01*
X019647Y001423D01*
X019605Y001413D01*
X019563Y001407D01*
X019520Y001405D01*
X019477Y001407D01*
X019435Y001413D01*
X019393Y001423D01*
X019352Y001436D01*
X019313Y001454D01*
X019275Y001475D01*
X019240Y001499D01*
X019207Y001526D01*
X019176Y001557D01*
X019149Y001590D01*
X019125Y001625D01*
X019104Y001663D01*
X019086Y001702D01*
X019073Y001743D01*
X019063Y001785D01*
X019057Y001827D01*
X019055Y001870D01*
X019055Y019370D02*
X019057Y019413D01*
X019063Y019455D01*
X019073Y019497D01*
X019086Y019538D01*
X019104Y019577D01*
X019125Y019615D01*
X019149Y019650D01*
X019176Y019683D01*
X019207Y019714D01*
X019240Y019741D01*
X019275Y019765D01*
X019313Y019786D01*
X019352Y019804D01*
X019393Y019817D01*
X019435Y019827D01*
X019477Y019833D01*
X019520Y019835D01*
X019563Y019833D01*
X019605Y019827D01*
X019647Y019817D01*
X019688Y019804D01*
X019727Y019786D01*
X019765Y019765D01*
X019800Y019741D01*
X019833Y019714D01*
X019864Y019683D01*
X019891Y019650D01*
X019915Y019615D01*
X019936Y019577D01*
X019954Y019538D01*
X019967Y019497D01*
X019977Y019455D01*
X019983Y019413D01*
X019985Y019370D01*
X019983Y019327D01*
X019977Y019285D01*
X019967Y019243D01*
X019954Y019202D01*
X019936Y019163D01*
X019915Y019125D01*
X019891Y019090D01*
X019864Y019057D01*
X019833Y019026D01*
X019800Y018999D01*
X019765Y018975D01*
X019727Y018954D01*
X019688Y018936D01*
X019647Y018923D01*
X019605Y018913D01*
X019563Y018907D01*
X019520Y018905D01*
X019477Y018907D01*
X019435Y018913D01*
X019393Y018923D01*
X019352Y018936D01*
X019313Y018954D01*
X019275Y018975D01*
X019240Y018999D01*
X019207Y019026D01*
X019176Y019057D01*
X019149Y019090D01*
X019125Y019125D01*
X019104Y019163D01*
X019086Y019202D01*
X019073Y019243D01*
X019063Y019285D01*
X019057Y019327D01*
X019055Y019370D01*
X001555Y019370D02*
X001557Y019413D01*
X001563Y019455D01*
X001573Y019497D01*
X001586Y019538D01*
X001604Y019577D01*
X001625Y019615D01*
X001649Y019650D01*
X001676Y019683D01*
X001707Y019714D01*
X001740Y019741D01*
X001775Y019765D01*
X001813Y019786D01*
X001852Y019804D01*
X001893Y019817D01*
X001935Y019827D01*
X001977Y019833D01*
X002020Y019835D01*
X002063Y019833D01*
X002105Y019827D01*
X002147Y019817D01*
X002188Y019804D01*
X002227Y019786D01*
X002265Y019765D01*
X002300Y019741D01*
X002333Y019714D01*
X002364Y019683D01*
X002391Y019650D01*
X002415Y019615D01*
X002436Y019577D01*
X002454Y019538D01*
X002467Y019497D01*
X002477Y019455D01*
X002483Y019413D01*
X002485Y019370D01*
X002483Y019327D01*
X002477Y019285D01*
X002467Y019243D01*
X002454Y019202D01*
X002436Y019163D01*
X002415Y019125D01*
X002391Y019090D01*
X002364Y019057D01*
X002333Y019026D01*
X002300Y018999D01*
X002265Y018975D01*
X002227Y018954D01*
X002188Y018936D01*
X002147Y018923D01*
X002105Y018913D01*
X002063Y018907D01*
X002020Y018905D01*
X001977Y018907D01*
X001935Y018913D01*
X001893Y018923D01*
X001852Y018936D01*
X001813Y018954D01*
X001775Y018975D01*
X001740Y018999D01*
X001707Y019026D01*
X001676Y019057D01*
X001649Y019090D01*
X001625Y019125D01*
X001604Y019163D01*
X001586Y019202D01*
X001573Y019243D01*
X001563Y019285D01*
X001557Y019327D01*
X001555Y019370D01*
D11*
X001065Y018171D02*
X002975Y018171D01*
X002975Y013070D01*
X001065Y013070D01*
X001065Y018171D01*
X006588Y019660D02*
X006588Y019940D01*
X006729Y020080D01*
X006869Y019940D01*
X006869Y019660D01*
X007049Y019730D02*
X007049Y019800D01*
X007119Y019870D01*
X007049Y019940D01*
X007049Y020010D01*
X007119Y020080D01*
X007259Y020080D01*
X007329Y020010D01*
X007489Y020010D02*
X007489Y020080D01*
X007559Y020080D01*
X007559Y020010D01*
X007489Y020010D01*
X007739Y020010D02*
X007809Y020080D01*
X007950Y020080D01*
X008020Y020010D01*
X007879Y019870D02*
X007809Y019870D01*
X007739Y019940D01*
X007739Y020010D01*
X007809Y019870D02*
X007739Y019800D01*
X007739Y019730D01*
X007809Y019660D01*
X007950Y019660D01*
X008020Y019730D01*
X008200Y019870D02*
X008480Y019870D01*
X008340Y019730D02*
X008340Y020010D01*
X007329Y019730D02*
X007259Y019660D01*
X007119Y019660D01*
X007049Y019730D01*
X007119Y019870D02*
X007189Y019870D01*
X013108Y019660D02*
X013388Y020080D01*
X013569Y020010D02*
X013569Y019660D01*
X013388Y019660D02*
X013108Y020080D01*
X013569Y020010D02*
X013639Y020080D01*
X013779Y020080D01*
X013849Y020010D01*
X013849Y019660D01*
X014029Y019800D02*
X014029Y020080D01*
X014029Y019870D02*
X014309Y019870D01*
X014309Y019800D02*
X014169Y019660D01*
X014029Y019800D01*
X014309Y019800D02*
X014309Y020080D01*
X014489Y019940D02*
X014489Y019660D01*
X014770Y019660D02*
X014770Y019940D01*
X014629Y020080D01*
X014489Y019940D01*
X014950Y019870D02*
X015230Y019870D01*
X015090Y019730D02*
X015090Y020010D01*
X018565Y018171D02*
X020475Y018171D01*
X020475Y013070D01*
X018565Y013070D01*
X018565Y018171D01*
X017833Y013760D02*
X017439Y013357D01*
X018226Y013357D01*
X017833Y013760D01*
X017740Y013611D02*
X017670Y013681D01*
X017460Y013681D01*
X017460Y013260D01*
X017670Y013260D01*
X017740Y013330D01*
X017740Y013611D01*
X017920Y013541D02*
X018061Y013681D01*
X018061Y013260D01*
X018201Y013260D02*
X017920Y013260D01*
X018565Y008171D02*
X020475Y008171D01*
X020475Y003070D01*
X018565Y003070D01*
X018565Y008171D01*
X009046Y008310D02*
X009046Y008547D01*
X008731Y008547D01*
X009046Y007680D02*
X009046Y007444D01*
X008731Y007444D01*
D12*
X008897Y006771D02*
X008855Y006729D01*
X008855Y006562D01*
X008897Y006520D01*
X008980Y006520D01*
X009022Y006562D01*
X009131Y006645D02*
X009256Y006771D01*
X009256Y006520D01*
X009298Y006645D02*
X009131Y006645D01*
X009022Y006729D02*
X008980Y006771D01*
X008897Y006771D01*
X009483Y006408D02*
X009483Y004833D01*
X011057Y004833D01*
X011057Y006408D01*
X009483Y006408D01*
X010745Y007512D02*
X010787Y007470D01*
X010870Y007470D01*
X010912Y007512D01*
X011021Y007470D02*
X011188Y007470D01*
X011105Y007470D02*
X011105Y007721D01*
X011021Y007637D01*
X010912Y007679D02*
X010870Y007721D01*
X010787Y007721D01*
X010745Y007679D01*
X010745Y007512D01*
X011307Y008083D02*
X009733Y008083D01*
X011101Y008201D02*
X011103Y008219D01*
X011109Y008237D01*
X011118Y008253D01*
X011130Y008266D01*
X011145Y008277D01*
X011162Y008285D01*
X011180Y008289D01*
X011198Y008289D01*
X011216Y008285D01*
X011233Y008277D01*
X011248Y008266D01*
X011260Y008253D01*
X011269Y008237D01*
X011275Y008219D01*
X011277Y008201D01*
X011275Y008183D01*
X011269Y008165D01*
X011260Y008149D01*
X011248Y008136D01*
X011233Y008125D01*
X011216Y008117D01*
X011198Y008113D01*
X011180Y008113D01*
X011162Y008117D01*
X011145Y008125D01*
X011130Y008136D01*
X011118Y008149D01*
X011109Y008165D01*
X011103Y008183D01*
X011101Y008201D01*
X011572Y009565D02*
X011655Y009565D01*
X011697Y009607D01*
X011697Y009815D01*
X011806Y009732D02*
X011890Y009815D01*
X011890Y009565D01*
X011973Y009565D02*
X011806Y009565D01*
X011572Y009565D02*
X011530Y009607D01*
X011530Y009815D01*
X011307Y011083D02*
X011307Y012658D01*
X009733Y012658D01*
X009733Y011083D01*
X011307Y011083D01*
X012370Y013645D02*
X012370Y013770D01*
X012411Y013812D01*
X012495Y013812D01*
X012537Y013770D01*
X012537Y013645D01*
X012620Y013645D02*
X012370Y013645D01*
X012537Y013729D02*
X012620Y013812D01*
X012620Y013922D02*
X012620Y014088D01*
X012620Y014005D02*
X012370Y014005D01*
X012453Y013922D01*
X012453Y014198D02*
X012411Y014198D01*
X012370Y014240D01*
X012370Y014323D01*
X012411Y014365D01*
X012453Y014365D01*
X012495Y014323D01*
X012495Y014240D01*
X012453Y014198D01*
X012495Y014240D02*
X012537Y014198D01*
X012578Y014198D01*
X012620Y014240D01*
X012620Y014323D01*
X012578Y014365D01*
X012537Y014365D01*
X012495Y014323D01*
X014570Y013698D02*
X014570Y013615D01*
X014611Y013573D01*
X014653Y013573D01*
X014695Y013615D01*
X014695Y013740D01*
X014778Y013740D02*
X014611Y013740D01*
X014570Y013698D01*
X014778Y013740D02*
X014820Y013698D01*
X014820Y013615D01*
X014778Y013573D01*
X014820Y013463D02*
X014820Y013297D01*
X014820Y013380D02*
X014570Y013380D01*
X014653Y013297D01*
X014611Y013187D02*
X014570Y013145D01*
X014570Y013062D01*
X014611Y013020D01*
X014778Y013020D01*
X014820Y013062D01*
X014820Y013145D01*
X014778Y013187D01*
X015566Y013487D02*
X015608Y013445D01*
X015691Y013445D01*
X015733Y013487D01*
X015843Y013445D02*
X016009Y013612D01*
X016009Y013654D01*
X015968Y013696D01*
X015884Y013696D01*
X015843Y013654D01*
X015733Y013654D02*
X015691Y013696D01*
X015608Y013696D01*
X015566Y013654D01*
X015566Y013487D01*
X015843Y013445D02*
X016009Y013445D01*
X016119Y013487D02*
X016286Y013654D01*
X016286Y013487D01*
X016244Y013445D01*
X016160Y013445D01*
X016119Y013487D01*
X016119Y013654D01*
X016160Y013696D01*
X016244Y013696D01*
X016286Y013654D01*
X016782Y015004D02*
X016782Y015129D01*
X016824Y015171D01*
X016907Y015171D01*
X016949Y015129D01*
X016949Y015004D01*
X017033Y015004D02*
X016782Y015004D01*
X016949Y015088D02*
X017033Y015171D01*
X017033Y015280D02*
X017033Y015447D01*
X017033Y015364D02*
X016782Y015364D01*
X016866Y015280D01*
X016866Y015557D02*
X016824Y015557D01*
X016782Y015598D01*
X016782Y015682D01*
X016824Y015723D01*
X016991Y015723D01*
X017033Y015682D01*
X017033Y015598D01*
X016991Y015557D01*
X016907Y015598D02*
X016866Y015557D01*
X016907Y015598D02*
X016907Y015723D01*
X017568Y015641D02*
X017568Y015475D01*
X017609Y015433D01*
X017693Y015433D01*
X017734Y015475D01*
X017734Y015641D01*
X017693Y015683D01*
X017609Y015683D01*
X017568Y015641D01*
X017651Y015516D02*
X017734Y015433D01*
X017844Y015433D02*
X018011Y015600D01*
X018011Y015641D01*
X017969Y015683D01*
X017885Y015683D01*
X017844Y015641D01*
X017844Y015433D02*
X018011Y015433D01*
X018048Y017238D02*
X017844Y017441D01*
X018455Y017441D01*
X018455Y017238D02*
X018455Y017645D01*
X020644Y017543D02*
X020644Y017339D01*
X020746Y017238D01*
X020644Y017543D02*
X020746Y017645D01*
X020848Y017645D01*
X021255Y017238D01*
X021255Y017645D01*
X018447Y020463D02*
X003093Y020463D01*
X003093Y000778D01*
X018447Y000778D01*
X018447Y020463D01*
X016202Y016446D02*
X016202Y016195D01*
X016119Y016195D02*
X016286Y016195D01*
X016119Y016362D02*
X016202Y016446D01*
X016009Y016404D02*
X015968Y016446D01*
X015884Y016446D01*
X015843Y016404D01*
X015733Y016404D02*
X015691Y016446D01*
X015608Y016446D01*
X015566Y016404D01*
X015566Y016237D01*
X015608Y016195D01*
X015691Y016195D01*
X015733Y016237D01*
X015843Y016195D02*
X016009Y016362D01*
X016009Y016404D01*
X016009Y016195D02*
X015843Y016195D01*
X012861Y018150D02*
X012861Y018370D01*
X008679Y018370D01*
X008679Y018150D01*
X012861Y018150D01*
X012861Y018370D02*
X012861Y020591D01*
X008679Y020591D01*
X008679Y018370D01*
X005791Y017104D02*
X005749Y017146D01*
X005665Y017146D01*
X005624Y017104D01*
X005514Y017104D02*
X005514Y016937D01*
X005473Y016895D01*
X005347Y016895D01*
X005347Y017146D01*
X005473Y017146D01*
X005514Y017104D01*
X005624Y016895D02*
X005791Y017062D01*
X005791Y017104D01*
X005791Y016895D02*
X005624Y016895D01*
X005238Y016895D02*
X005071Y016895D01*
X005071Y017146D01*
X005238Y017146D01*
X005155Y017020D02*
X005071Y017020D01*
X004962Y016895D02*
X004795Y016895D01*
X004795Y017146D01*
X003755Y017238D02*
X003348Y017645D01*
X003246Y017645D01*
X003144Y017543D01*
X003144Y017339D01*
X003246Y017238D01*
X003755Y017238D02*
X003755Y017645D01*
X004190Y015346D02*
X004190Y015095D01*
X004357Y015095D01*
X004466Y015095D02*
X004633Y015095D01*
X004743Y015095D02*
X004868Y015095D01*
X004909Y015137D01*
X004909Y015304D01*
X004868Y015346D01*
X004743Y015346D01*
X004743Y015095D01*
X004550Y015220D02*
X004466Y015220D01*
X004466Y015095D02*
X004466Y015346D01*
X004633Y015346D01*
X005019Y015262D02*
X005102Y015346D01*
X005102Y015095D01*
X005019Y015095D02*
X005186Y015095D01*
X005008Y012937D02*
X005008Y011303D01*
X006032Y011303D01*
X006032Y012937D01*
X005008Y012937D01*
X006094Y012868D02*
X006096Y012882D01*
X006102Y012896D01*
X006110Y012908D01*
X006122Y012916D01*
X006136Y012922D01*
X006150Y012924D01*
X006164Y012922D01*
X006178Y012916D01*
X006190Y012908D01*
X006198Y012896D01*
X006204Y012882D01*
X006206Y012868D01*
X006204Y012854D01*
X006198Y012840D01*
X006190Y012828D01*
X006178Y012820D01*
X006164Y012814D01*
X006150Y012812D01*
X006136Y012814D01*
X006122Y012820D01*
X006110Y012828D01*
X006102Y012840D01*
X006096Y012854D01*
X006094Y012868D01*
X002245Y008985D02*
X002245Y008685D01*
X002245Y008835D02*
X001795Y008835D01*
X001945Y008685D01*
X002056Y005496D02*
X002056Y005195D01*
X001906Y005045D01*
X001755Y005195D01*
X001755Y005496D01*
X001595Y005421D02*
X001520Y005496D01*
X001370Y005496D01*
X001295Y005421D01*
X001295Y005346D01*
X001370Y005271D01*
X001520Y005271D01*
X001595Y005195D01*
X001595Y005120D01*
X001520Y005045D01*
X001370Y005045D01*
X001295Y005120D01*
X002216Y005045D02*
X002516Y005045D01*
X002366Y005045D02*
X002366Y005496D01*
X002216Y005346D01*
X007795Y007925D02*
X007836Y007883D01*
X008003Y007883D01*
X008045Y007925D01*
X008045Y008008D01*
X008003Y008050D01*
X007836Y008050D01*
X007795Y008008D01*
X007795Y007925D01*
X007962Y007966D02*
X008045Y008050D01*
X008045Y008159D02*
X008045Y008326D01*
X008045Y008242D02*
X007795Y008242D01*
X007878Y008159D01*
X013795Y003244D02*
X013836Y003286D01*
X013878Y003286D01*
X013920Y003244D01*
X013962Y003286D01*
X014003Y003286D01*
X014045Y003244D01*
X014045Y003161D01*
X014003Y003119D01*
X014003Y003010D02*
X013836Y003010D01*
X013795Y002968D01*
X013795Y002843D01*
X014045Y002843D01*
X014045Y002968D01*
X014003Y003010D01*
X013836Y003119D02*
X013795Y003161D01*
X013795Y003244D01*
X013920Y003244D02*
X013920Y003203D01*
X014045Y002733D02*
X014045Y002567D01*
X013795Y002567D01*
X013795Y002733D01*
X013920Y002650D02*
X013920Y002567D01*
X014045Y002457D02*
X014045Y002290D01*
X013795Y002290D01*
X013195Y002260D02*
X013028Y002427D01*
X012986Y002427D01*
X012945Y002385D01*
X012945Y002302D01*
X012986Y002260D01*
X012986Y002151D02*
X012945Y002109D01*
X012945Y002026D01*
X012986Y001984D01*
X012986Y001875D02*
X013070Y001875D01*
X013112Y001833D01*
X013112Y001708D01*
X013195Y001708D02*
X012945Y001708D01*
X012945Y001833D01*
X012986Y001875D01*
X013112Y001791D02*
X013195Y001875D01*
X013195Y001984D02*
X013028Y002151D01*
X012986Y002151D01*
X013195Y002151D02*
X013195Y001984D01*
X013195Y002260D02*
X013195Y002427D01*
X015089Y004382D02*
X014282Y005189D01*
X014282Y008359D01*
X017451Y008359D01*
X018258Y007551D01*
X018258Y004382D01*
X015089Y004382D01*
X014282Y006370D02*
X014284Y006468D01*
X014292Y006565D01*
X014304Y006662D01*
X014320Y006758D01*
X014342Y006853D01*
X014368Y006947D01*
X014398Y007040D01*
X014433Y007131D01*
X014473Y007220D01*
X014517Y007307D01*
X014565Y007392D01*
X014617Y007474D01*
X014673Y007554D01*
X014733Y007631D01*
X014797Y007705D01*
X014864Y007776D01*
X014935Y007843D01*
X015009Y007907D01*
X015086Y007967D01*
X015166Y008023D01*
X015248Y008075D01*
X015333Y008123D01*
X015420Y008167D01*
X015509Y008207D01*
X015600Y008242D01*
X015693Y008272D01*
X015787Y008298D01*
X015882Y008320D01*
X015978Y008336D01*
X016075Y008348D01*
X016172Y008356D01*
X016270Y008358D01*
X016368Y008356D01*
X016465Y008348D01*
X016562Y008336D01*
X016658Y008320D01*
X016753Y008298D01*
X016847Y008272D01*
X016940Y008242D01*
X017031Y008207D01*
X017120Y008167D01*
X017207Y008123D01*
X017292Y008075D01*
X017374Y008023D01*
X017454Y007967D01*
X017531Y007907D01*
X017605Y007843D01*
X017676Y007776D01*
X017743Y007705D01*
X017807Y007631D01*
X017867Y007554D01*
X017923Y007474D01*
X017975Y007392D01*
X018023Y007307D01*
X018067Y007220D01*
X018107Y007131D01*
X018142Y007040D01*
X018172Y006947D01*
X018198Y006853D01*
X018220Y006758D01*
X018236Y006662D01*
X018248Y006565D01*
X018256Y006468D01*
X018258Y006370D01*
X018256Y006272D01*
X018248Y006175D01*
X018236Y006078D01*
X018220Y005982D01*
X018198Y005887D01*
X018172Y005793D01*
X018142Y005700D01*
X018107Y005609D01*
X018067Y005520D01*
X018023Y005433D01*
X017975Y005348D01*
X017923Y005266D01*
X017867Y005186D01*
X017807Y005109D01*
X017743Y005035D01*
X017676Y004964D01*
X017605Y004897D01*
X017531Y004833D01*
X017454Y004773D01*
X017374Y004717D01*
X017292Y004665D01*
X017207Y004617D01*
X017120Y004573D01*
X017031Y004533D01*
X016940Y004498D01*
X016847Y004468D01*
X016753Y004442D01*
X016658Y004420D01*
X016562Y004404D01*
X016465Y004392D01*
X016368Y004384D01*
X016270Y004382D01*
X016172Y004384D01*
X016075Y004392D01*
X015978Y004404D01*
X015882Y004420D01*
X015787Y004442D01*
X015693Y004468D01*
X015600Y004498D01*
X015509Y004533D01*
X015420Y004573D01*
X015333Y004617D01*
X015248Y004665D01*
X015166Y004717D01*
X015086Y004773D01*
X015009Y004833D01*
X014935Y004897D01*
X014864Y004964D01*
X014797Y005035D01*
X014733Y005109D01*
X014673Y005186D01*
X014617Y005266D01*
X014565Y005348D01*
X014517Y005433D01*
X014473Y005520D01*
X014433Y005609D01*
X014398Y005700D01*
X014368Y005793D01*
X014342Y005887D01*
X014320Y005982D01*
X014304Y006078D01*
X014292Y006175D01*
X014284Y006272D01*
X014282Y006370D01*
X015786Y009583D02*
X015786Y011158D01*
X017754Y011158D01*
X017754Y009583D01*
X015786Y009583D01*
X015848Y009701D02*
X015850Y009715D01*
X015856Y009729D01*
X015864Y009741D01*
X015876Y009749D01*
X015890Y009755D01*
X015904Y009757D01*
X015918Y009755D01*
X015932Y009749D01*
X015944Y009741D01*
X015952Y009729D01*
X015958Y009715D01*
X015960Y009701D01*
X015958Y009687D01*
X015952Y009673D01*
X015944Y009661D01*
X015932Y009653D01*
X015918Y009647D01*
X015904Y009645D01*
X015890Y009647D01*
X015876Y009653D01*
X015864Y009661D01*
X015856Y009673D01*
X015850Y009687D01*
X015848Y009701D01*
X017844Y007441D02*
X018455Y007441D01*
X018455Y007238D02*
X018455Y007645D01*
X018048Y007238D02*
X017844Y007441D01*
X018445Y008895D02*
X018445Y009020D01*
X018486Y009062D01*
X018570Y009062D01*
X018612Y009020D01*
X018612Y008895D01*
X018695Y008895D02*
X018445Y008895D01*
X018612Y008979D02*
X018695Y009062D01*
X018695Y009172D02*
X018528Y009338D01*
X018486Y009338D01*
X018445Y009297D01*
X018445Y009213D01*
X018486Y009172D01*
X018695Y009172D02*
X018695Y009338D01*
X018570Y009448D02*
X018570Y009615D01*
X018695Y009573D02*
X018445Y009573D01*
X018570Y009448D01*
X018612Y010208D02*
X018612Y010333D01*
X018570Y010375D01*
X018486Y010375D01*
X018445Y010333D01*
X018445Y010208D01*
X018695Y010208D01*
X018612Y010291D02*
X018695Y010375D01*
X018695Y010484D02*
X018695Y010651D01*
X018695Y010567D02*
X018445Y010567D01*
X018528Y010484D01*
X018570Y010760D02*
X018528Y010844D01*
X018528Y010885D01*
X018570Y010927D01*
X018653Y010927D01*
X018695Y010885D01*
X018695Y010802D01*
X018653Y010760D01*
X018570Y010760D02*
X018445Y010760D01*
X018445Y010927D01*
X018495Y011645D02*
X018745Y011645D01*
X018745Y011812D01*
X018745Y011922D02*
X018495Y011922D01*
X018495Y012088D01*
X018495Y012198D02*
X018495Y012323D01*
X018536Y012365D01*
X018703Y012365D01*
X018745Y012323D01*
X018745Y012198D01*
X018495Y012198D01*
X018620Y012005D02*
X018620Y011922D01*
X018745Y011922D02*
X018745Y012088D01*
X018703Y012474D02*
X018745Y012516D01*
X018745Y012599D01*
X018703Y012641D01*
X018620Y012641D01*
X018578Y012599D01*
X018578Y012557D01*
X018620Y012474D01*
X018495Y012474D01*
X018495Y012641D01*
X019495Y012641D02*
X019536Y012557D01*
X019620Y012474D01*
X019620Y012599D01*
X019662Y012641D01*
X019703Y012641D01*
X019745Y012599D01*
X019745Y012516D01*
X019703Y012474D01*
X019620Y012474D01*
X019703Y012365D02*
X019536Y012365D01*
X019495Y012323D01*
X019495Y012198D01*
X019745Y012198D01*
X019745Y012323D01*
X019703Y012365D01*
X019745Y012088D02*
X019745Y011922D01*
X019495Y011922D01*
X019495Y012088D01*
X019620Y012005D02*
X019620Y011922D01*
X019745Y011812D02*
X019745Y011645D01*
X019495Y011645D01*
X019570Y010927D02*
X019570Y010760D01*
X019445Y010885D01*
X019695Y010885D01*
X019695Y010651D02*
X019695Y010484D01*
X019695Y010567D02*
X019445Y010567D01*
X019528Y010484D01*
X019486Y010375D02*
X019570Y010375D01*
X019612Y010333D01*
X019612Y010208D01*
X019695Y010208D02*
X019445Y010208D01*
X019445Y010333D01*
X019486Y010375D01*
X019612Y010291D02*
X019695Y010375D01*
X019653Y009615D02*
X019695Y009573D01*
X019695Y009490D01*
X019653Y009448D01*
X019570Y009448D02*
X019528Y009531D01*
X019528Y009573D01*
X019570Y009615D01*
X019653Y009615D01*
X019570Y009448D02*
X019445Y009448D01*
X019445Y009615D01*
X019486Y009338D02*
X019445Y009297D01*
X019445Y009213D01*
X019486Y009172D01*
X019486Y009062D02*
X019570Y009062D01*
X019612Y009020D01*
X019612Y008895D01*
X019695Y008895D02*
X019445Y008895D01*
X019445Y009020D01*
X019486Y009062D01*
X019612Y008979D02*
X019695Y009062D01*
X019695Y009172D02*
X019528Y009338D01*
X019486Y009338D01*
X019695Y009338D02*
X019695Y009172D01*
X020746Y007645D02*
X020644Y007543D01*
X020644Y007339D01*
X020746Y007238D01*
X020746Y007645D02*
X020848Y007645D01*
X021255Y007238D01*
X021255Y007645D01*
X000955Y017238D02*
X000955Y017645D01*
X000955Y017441D02*
X000344Y017441D01*
X000548Y017238D01*
D13*
X001040Y018390D02*
X001347Y018851D01*
X001500Y018774D02*
X001577Y018851D01*
X001731Y018851D01*
X001807Y018774D01*
X001807Y018697D01*
X001500Y018390D01*
X001807Y018390D01*
X001347Y018390D02*
X001040Y018851D01*
X003540Y017141D02*
X003540Y016940D01*
X003540Y017007D02*
X003640Y017007D01*
X003673Y017040D01*
X003673Y017107D01*
X003640Y017141D01*
X003540Y017141D01*
X003607Y017007D02*
X003673Y016940D01*
X003761Y016940D02*
X003894Y017074D01*
X003894Y017107D01*
X003861Y017141D01*
X003794Y017141D01*
X003761Y017107D01*
X003761Y016940D02*
X003894Y016940D01*
X003982Y016940D02*
X004115Y016940D01*
X004049Y016940D02*
X004049Y017141D01*
X003982Y017074D01*
X004015Y016141D02*
X004082Y016141D01*
X004115Y016107D01*
X003982Y015974D01*
X004015Y015940D01*
X004082Y015940D01*
X004115Y015974D01*
X004115Y016107D01*
X004015Y016141D02*
X003982Y016107D01*
X003982Y015974D01*
X003894Y015940D02*
X003761Y015940D01*
X003894Y016074D01*
X003894Y016107D01*
X003861Y016141D01*
X003794Y016141D01*
X003761Y016107D01*
X003673Y016107D02*
X003673Y016040D01*
X003640Y016007D01*
X003540Y016007D01*
X003540Y015940D02*
X003540Y016141D01*
X003640Y016141D01*
X003673Y016107D01*
X003607Y016007D02*
X003673Y015940D01*
X005437Y014995D02*
X005437Y014928D01*
X005471Y014895D01*
X005537Y014962D02*
X005537Y014995D01*
X005571Y015028D01*
X005604Y015028D01*
X005638Y014995D01*
X005638Y014928D01*
X005604Y014895D01*
X005638Y014807D02*
X005638Y014674D01*
X005638Y014741D02*
X005437Y014741D01*
X005504Y014674D01*
X005471Y014586D02*
X005437Y014553D01*
X005437Y014486D01*
X005471Y014453D01*
X005604Y014453D01*
X005638Y014486D01*
X005638Y014553D01*
X005604Y014586D01*
X005537Y014995D02*
X005504Y015028D01*
X005471Y015028D01*
X005437Y014995D01*
X006062Y014995D02*
X006162Y014895D01*
X006162Y015028D01*
X006062Y014995D02*
X006263Y014995D01*
X006263Y014807D02*
X006263Y014674D01*
X006263Y014741D02*
X006062Y014741D01*
X006129Y014674D01*
X006096Y014586D02*
X006062Y014553D01*
X006062Y014486D01*
X006096Y014453D01*
X006229Y014453D01*
X006263Y014486D01*
X006263Y014553D01*
X006229Y014586D01*
X006197Y012722D02*
X006230Y012689D01*
X006264Y012722D01*
X006297Y012722D01*
X006331Y012689D01*
X006331Y012622D01*
X006297Y012589D01*
X006297Y012501D02*
X006130Y012501D01*
X006164Y012589D02*
X006130Y012622D01*
X006130Y012689D01*
X006164Y012722D01*
X006197Y012722D01*
X006230Y012689D02*
X006230Y012655D01*
X006297Y012501D02*
X006331Y012468D01*
X006331Y012401D01*
X006297Y012368D01*
X006130Y012368D01*
X004178Y011878D02*
X004044Y011878D01*
X004111Y011878D02*
X004111Y012078D01*
X004044Y012011D01*
X003957Y011878D02*
X003823Y011878D01*
X003890Y011878D02*
X003890Y012078D01*
X003823Y012011D01*
X003736Y012045D02*
X003703Y012078D01*
X003636Y012078D01*
X003603Y012045D01*
X003603Y011911D01*
X003636Y011878D01*
X003703Y011878D01*
X003736Y011911D01*
X003327Y012009D02*
X003327Y012142D01*
X003294Y012176D01*
X003227Y012176D01*
X003194Y012142D01*
X003194Y012109D01*
X003227Y012075D01*
X003327Y012075D01*
X003327Y012009D02*
X003294Y011975D01*
X003227Y011975D01*
X003194Y012009D01*
X003106Y011975D02*
X003040Y012042D01*
X003073Y012042D02*
X002973Y012042D01*
X002973Y011975D02*
X002973Y012176D01*
X003073Y012176D01*
X003106Y012142D01*
X003106Y012075D01*
X003073Y012042D01*
X003473Y010176D02*
X003440Y010142D01*
X003440Y010009D01*
X003473Y009975D01*
X003540Y009975D01*
X003573Y010009D01*
X003661Y009975D02*
X003794Y009975D01*
X003727Y009975D02*
X003727Y010176D01*
X003661Y010109D01*
X003573Y010142D02*
X003540Y010176D01*
X003473Y010176D01*
X003882Y010142D02*
X003915Y010176D01*
X003982Y010176D01*
X004015Y010142D01*
X004015Y010109D01*
X003882Y009975D01*
X004015Y009975D01*
X003332Y009357D02*
X003332Y009324D01*
X003299Y009290D01*
X003232Y009290D01*
X003198Y009324D01*
X003198Y009357D01*
X003232Y009391D01*
X003299Y009391D01*
X003332Y009357D01*
X003299Y009290D02*
X003332Y009257D01*
X003332Y009224D01*
X003299Y009190D01*
X003232Y009190D01*
X003198Y009224D01*
X003198Y009257D01*
X003232Y009290D01*
X003111Y009290D02*
X003078Y009257D01*
X002978Y009257D01*
X003044Y009257D02*
X003111Y009190D01*
X003111Y009290D02*
X003111Y009357D01*
X003078Y009391D01*
X002978Y009391D01*
X002978Y009190D01*
X003603Y009161D02*
X003636Y009128D01*
X003703Y009128D01*
X003736Y009161D01*
X003823Y009128D02*
X003957Y009128D01*
X003890Y009128D02*
X003890Y009328D01*
X003823Y009261D01*
X003736Y009295D02*
X003703Y009328D01*
X003636Y009328D01*
X003603Y009295D01*
X003603Y009161D01*
X004044Y009161D02*
X004078Y009128D01*
X004145Y009128D01*
X004178Y009161D01*
X004178Y009295D01*
X004044Y009161D01*
X004044Y009295D01*
X004078Y009328D01*
X004145Y009328D01*
X004178Y009295D01*
X003669Y008301D02*
X003602Y008301D01*
X003569Y008267D01*
X003669Y008301D02*
X003702Y008267D01*
X003702Y008234D01*
X003569Y008100D01*
X003702Y008100D01*
X003481Y008100D02*
X003348Y008100D01*
X003415Y008100D02*
X003415Y008301D01*
X003348Y008234D01*
X003260Y008267D02*
X003260Y008200D01*
X003227Y008167D01*
X003127Y008167D01*
X003127Y008100D02*
X003127Y008301D01*
X003227Y008301D01*
X003260Y008267D01*
X003194Y008167D02*
X003260Y008100D01*
X003290Y007578D02*
X003390Y007578D01*
X003423Y007545D01*
X003423Y007478D01*
X003390Y007445D01*
X003290Y007445D01*
X003357Y007445D02*
X003423Y007378D01*
X003511Y007378D02*
X003644Y007378D01*
X003578Y007378D02*
X003578Y007578D01*
X003511Y007511D01*
X003732Y007511D02*
X003799Y007578D01*
X003799Y007378D01*
X003865Y007378D02*
X003732Y007378D01*
X003290Y007378D02*
X003290Y007578D01*
X003328Y006828D02*
X003228Y006828D01*
X003228Y006628D01*
X003228Y006695D02*
X003328Y006695D01*
X003361Y006728D01*
X003361Y006795D01*
X003328Y006828D01*
X003294Y006695D02*
X003361Y006628D01*
X003448Y006628D02*
X003582Y006628D01*
X003515Y006628D02*
X003515Y006828D01*
X003448Y006761D01*
X003669Y006795D02*
X003703Y006828D01*
X003770Y006828D01*
X003803Y006795D01*
X003669Y006661D01*
X003703Y006628D01*
X003770Y006628D01*
X003803Y006661D01*
X003803Y006795D01*
X003669Y006795D02*
X003669Y006661D01*
X004478Y006661D02*
X004511Y006628D01*
X004578Y006628D01*
X004611Y006661D01*
X004698Y006628D02*
X004832Y006628D01*
X004765Y006628D02*
X004765Y006828D01*
X004698Y006761D01*
X004611Y006795D02*
X004578Y006828D01*
X004511Y006828D01*
X004478Y006795D01*
X004478Y006661D01*
X004919Y006661D02*
X004953Y006628D01*
X005020Y006628D01*
X005053Y006661D01*
X005053Y006695D01*
X005020Y006728D01*
X004919Y006728D01*
X004919Y006661D01*
X004919Y006728D02*
X004986Y006795D01*
X005053Y006828D01*
X005082Y007378D02*
X005015Y007378D01*
X004982Y007411D01*
X004982Y007478D02*
X005049Y007511D01*
X005082Y007511D01*
X005115Y007478D01*
X005115Y007411D01*
X005082Y007378D01*
X004982Y007478D02*
X004982Y007578D01*
X005115Y007578D01*
X004828Y007578D02*
X004828Y007378D01*
X004894Y007378D02*
X004761Y007378D01*
X004673Y007411D02*
X004640Y007378D01*
X004573Y007378D01*
X004540Y007411D01*
X004540Y007545D01*
X004573Y007578D01*
X004640Y007578D01*
X004673Y007545D01*
X004761Y007511D02*
X004828Y007578D01*
X008253Y009290D02*
X008253Y009491D01*
X008353Y009491D01*
X008386Y009457D01*
X008386Y009390D01*
X008353Y009357D01*
X008253Y009357D01*
X008319Y009357D02*
X008386Y009290D01*
X008473Y009290D02*
X008607Y009424D01*
X008607Y009457D01*
X008574Y009491D01*
X008507Y009491D01*
X008473Y009457D01*
X008473Y009290D02*
X008607Y009290D01*
X009961Y010715D02*
X009928Y010749D01*
X009928Y010882D01*
X009961Y010916D01*
X010028Y010916D01*
X010061Y010882D01*
X010148Y010882D02*
X010148Y010849D01*
X010182Y010815D01*
X010249Y010815D01*
X010282Y010782D01*
X010282Y010749D01*
X010249Y010715D01*
X010182Y010715D01*
X010148Y010749D01*
X010148Y010782D01*
X010182Y010815D01*
X010249Y010815D02*
X010282Y010849D01*
X010282Y010882D01*
X010249Y010916D01*
X010182Y010916D01*
X010148Y010882D01*
X010061Y010749D02*
X010028Y010715D01*
X009961Y010715D01*
X010885Y010784D02*
X011019Y010784D01*
X011106Y010784D02*
X011240Y010918D01*
X011240Y010951D01*
X011206Y010984D01*
X011140Y010984D01*
X011106Y010951D01*
X011106Y010784D02*
X011240Y010784D01*
X010885Y010784D02*
X010885Y010984D01*
X011411Y010366D02*
X011378Y010332D01*
X011378Y010199D01*
X011411Y010165D01*
X011478Y010165D01*
X011511Y010199D01*
X011598Y010199D02*
X011632Y010165D01*
X011699Y010165D01*
X011732Y010199D01*
X011732Y010332D01*
X011699Y010366D01*
X011632Y010366D01*
X011598Y010332D01*
X011598Y010299D01*
X011632Y010265D01*
X011732Y010265D01*
X011511Y010332D02*
X011478Y010366D01*
X011411Y010366D01*
X013128Y010145D02*
X013128Y010011D01*
X013161Y009978D01*
X013228Y009978D01*
X013261Y010011D01*
X013348Y010011D02*
X013348Y009978D01*
X013348Y010011D02*
X013482Y010145D01*
X013482Y010178D01*
X013348Y010178D01*
X013261Y010145D02*
X013228Y010178D01*
X013161Y010178D01*
X013128Y010145D01*
X013161Y009741D02*
X013128Y009707D01*
X013128Y009574D01*
X013161Y009540D01*
X013228Y009540D01*
X013261Y009574D01*
X013348Y009574D02*
X013382Y009540D01*
X013449Y009540D01*
X013482Y009574D01*
X013482Y009607D01*
X013449Y009640D01*
X013348Y009640D01*
X013348Y009574D01*
X013348Y009640D02*
X013415Y009707D01*
X013482Y009741D01*
X013261Y009707D02*
X013228Y009741D01*
X013161Y009741D01*
X013128Y009241D02*
X013228Y009241D01*
X013261Y009207D01*
X013261Y009140D01*
X013228Y009107D01*
X013128Y009107D01*
X013194Y009107D02*
X013261Y009040D01*
X013348Y009074D02*
X013382Y009040D01*
X013449Y009040D01*
X013482Y009074D01*
X013482Y009107D01*
X013449Y009140D01*
X013348Y009140D01*
X013348Y009074D01*
X013348Y009140D02*
X013415Y009207D01*
X013482Y009241D01*
X013128Y009241D02*
X013128Y009040D01*
X013173Y008701D02*
X013206Y008667D01*
X013206Y008600D01*
X013173Y008567D01*
X013073Y008567D01*
X013073Y008500D02*
X013073Y008701D01*
X013173Y008701D01*
X013294Y008701D02*
X013294Y008600D01*
X013361Y008634D01*
X013394Y008634D01*
X013427Y008600D01*
X013427Y008534D01*
X013394Y008500D01*
X013327Y008500D01*
X013294Y008534D01*
X013206Y008500D02*
X013140Y008567D01*
X013294Y008701D02*
X013427Y008701D01*
X014150Y008949D02*
X014183Y008915D01*
X014317Y008915D01*
X014350Y008949D01*
X014350Y009015D01*
X014317Y009049D01*
X014350Y009136D02*
X014217Y009270D01*
X014183Y009270D01*
X014150Y009236D01*
X014150Y009170D01*
X014183Y009136D01*
X014183Y009049D02*
X014150Y009015D01*
X014150Y008949D01*
X014350Y009136D02*
X014350Y009270D01*
X014350Y009357D02*
X014217Y009491D01*
X014183Y009491D01*
X014150Y009457D01*
X014150Y009391D01*
X014183Y009357D01*
X014350Y009357D02*
X014350Y009491D01*
X014715Y010040D02*
X014715Y010140D01*
X014748Y010173D01*
X014815Y010173D01*
X014848Y010140D01*
X014848Y010040D01*
X014848Y010107D02*
X014915Y010173D01*
X014915Y010261D02*
X014915Y010394D01*
X014915Y010328D02*
X014715Y010328D01*
X014782Y010261D01*
X014715Y010482D02*
X014715Y010615D01*
X014748Y010615D01*
X014882Y010482D01*
X014915Y010482D01*
X015215Y010698D02*
X015248Y010665D01*
X015382Y010665D01*
X015415Y010698D01*
X015415Y010765D01*
X015382Y010798D01*
X015415Y010886D02*
X015415Y011019D01*
X015415Y010953D02*
X015215Y010953D01*
X015282Y010886D01*
X015248Y010798D02*
X015215Y010765D01*
X015215Y010698D01*
X015215Y011107D02*
X015215Y011240D01*
X015248Y011240D01*
X015382Y011107D01*
X015415Y011107D01*
X014353Y011140D02*
X014319Y011107D01*
X014286Y011107D01*
X014252Y011140D01*
X014252Y011207D01*
X014286Y011240D01*
X014319Y011240D01*
X014353Y011207D01*
X014353Y011140D01*
X014252Y011140D02*
X014219Y011107D01*
X014186Y011107D01*
X014152Y011140D01*
X014152Y011207D01*
X014186Y011240D01*
X014219Y011240D01*
X014252Y011207D01*
X014353Y011019D02*
X014353Y010886D01*
X014353Y010953D02*
X014152Y010953D01*
X014219Y010886D01*
X014186Y010798D02*
X014152Y010765D01*
X014152Y010698D01*
X014186Y010665D01*
X014319Y010665D01*
X014353Y010698D01*
X014353Y010765D01*
X014319Y010798D01*
X013853Y010798D02*
X013786Y010732D01*
X013786Y010765D02*
X013786Y010665D01*
X013853Y010665D02*
X013652Y010665D01*
X013652Y010765D01*
X013686Y010798D01*
X013752Y010798D01*
X013786Y010765D01*
X013853Y010886D02*
X013853Y011019D01*
X013853Y010953D02*
X013652Y010953D01*
X013719Y010886D01*
X013686Y011107D02*
X013652Y011140D01*
X013652Y011207D01*
X013686Y011240D01*
X013719Y011240D01*
X013752Y011207D01*
X013786Y011240D01*
X013819Y011240D01*
X013853Y011207D01*
X013853Y011140D01*
X013819Y011107D01*
X013752Y011174D02*
X013752Y011207D01*
X013482Y011203D02*
X013348Y011203D01*
X013449Y011303D01*
X013449Y011103D01*
X013261Y011103D02*
X013194Y011170D01*
X013228Y011170D02*
X013128Y011170D01*
X013128Y011103D02*
X013128Y011303D01*
X013228Y011303D01*
X013261Y011270D01*
X013261Y011203D01*
X013228Y011170D01*
X013228Y010803D02*
X013161Y010803D01*
X013128Y010770D01*
X013128Y010636D01*
X013161Y010603D01*
X013228Y010603D01*
X013261Y010636D01*
X013348Y010636D02*
X013382Y010603D01*
X013449Y010603D01*
X013482Y010636D01*
X013482Y010703D01*
X013449Y010736D01*
X013415Y010736D01*
X013348Y010703D01*
X013348Y010803D01*
X013482Y010803D01*
X013261Y010770D02*
X013228Y010803D01*
X013269Y011563D02*
X013202Y011630D01*
X013236Y011630D02*
X013136Y011630D01*
X013136Y011563D02*
X013136Y011763D01*
X013236Y011763D01*
X013269Y011730D01*
X013269Y011663D01*
X013236Y011630D01*
X013357Y011596D02*
X013390Y011563D01*
X013457Y011563D01*
X013490Y011596D01*
X013490Y011630D01*
X013457Y011663D01*
X013423Y011663D01*
X013457Y011663D02*
X013490Y011696D01*
X013490Y011730D01*
X013457Y011763D01*
X013390Y011763D01*
X013357Y011730D01*
X014715Y010040D02*
X014915Y010040D01*
X015625Y012328D02*
X015625Y012428D01*
X015658Y012461D01*
X015725Y012461D01*
X015758Y012428D01*
X015758Y012328D01*
X015758Y012395D02*
X015825Y012461D01*
X015825Y012549D02*
X015825Y012682D01*
X015825Y012616D02*
X015625Y012616D01*
X015692Y012549D01*
X015725Y012770D02*
X015725Y012870D01*
X015758Y012903D01*
X015792Y012903D01*
X015825Y012870D01*
X015825Y012803D01*
X015792Y012770D01*
X015725Y012770D01*
X015658Y012837D01*
X015625Y012903D01*
X015625Y012328D02*
X015825Y012328D01*
X017083Y012543D02*
X017083Y014323D01*
X018583Y014323D02*
X018583Y012543D01*
X017851Y011417D02*
X017785Y011417D01*
X017751Y011384D01*
X017664Y011417D02*
X017664Y011250D01*
X017630Y011217D01*
X017564Y011217D01*
X017530Y011250D01*
X017530Y011417D01*
X017751Y011217D02*
X017885Y011351D01*
X017885Y011384D01*
X017851Y011417D01*
X017885Y011217D02*
X017751Y011217D01*
X018540Y008851D02*
X018847Y008390D01*
X019000Y008467D02*
X019077Y008390D01*
X019231Y008390D01*
X019307Y008467D01*
X019307Y008544D01*
X019231Y008621D01*
X019154Y008621D01*
X019231Y008621D02*
X019307Y008697D01*
X019307Y008774D01*
X019231Y008851D01*
X019077Y008851D01*
X019000Y008774D01*
X018847Y008851D02*
X018540Y008390D01*
X013078Y007153D02*
X013078Y007019D01*
X012944Y007153D01*
X012911Y007153D01*
X012877Y007119D01*
X012877Y007053D01*
X012911Y007019D01*
X012911Y006932D02*
X012877Y006898D01*
X012877Y006832D01*
X012911Y006798D01*
X013044Y006798D01*
X013078Y006832D01*
X013078Y006898D01*
X013044Y006932D01*
X012515Y006932D02*
X012448Y006865D01*
X012448Y006898D02*
X012448Y006798D01*
X012515Y006798D02*
X012315Y006798D01*
X012315Y006898D01*
X012348Y006932D01*
X012415Y006932D01*
X012448Y006898D01*
X012382Y007019D02*
X012315Y007086D01*
X012515Y007086D01*
X012515Y007019D02*
X012515Y007153D01*
X012078Y007119D02*
X012078Y007053D01*
X012044Y007019D01*
X012044Y006932D02*
X012078Y006898D01*
X012078Y006832D01*
X012044Y006798D01*
X011911Y006798D01*
X011877Y006832D01*
X011877Y006898D01*
X011911Y006932D01*
X011911Y007019D02*
X011877Y007053D01*
X011877Y007119D01*
X011911Y007153D01*
X011944Y007153D01*
X011977Y007119D01*
X012011Y007153D01*
X012044Y007153D01*
X012078Y007119D01*
X011977Y007119D02*
X011977Y007086D01*
X010923Y004734D02*
X010923Y004534D01*
X010856Y004534D02*
X010990Y004534D01*
X010856Y004668D02*
X010923Y004734D01*
X010769Y004534D02*
X010635Y004534D01*
X010635Y004734D01*
X009768Y003625D02*
X009272Y003625D01*
X009272Y000120D01*
X012269Y000120D01*
X012269Y001544D01*
X012638Y001544D01*
X012639Y001544D02*
X012652Y001543D01*
X012665Y001538D01*
X012677Y001531D01*
X012687Y001521D01*
X012694Y001509D01*
X012699Y001496D01*
X012700Y001483D01*
X012699Y001483D02*
X012699Y001483D01*
X012697Y001468D01*
X012692Y001454D01*
X012685Y001442D01*
X012674Y001431D01*
X012662Y001424D01*
X012648Y001419D01*
X012633Y001417D01*
X012572Y001417D01*
X012555Y001415D01*
X012538Y001410D01*
X012523Y001402D01*
X012510Y001391D01*
X012499Y001378D01*
X012491Y001363D01*
X012486Y001346D01*
X012484Y001329D01*
X012484Y001318D01*
X012486Y001301D01*
X012491Y001284D01*
X012499Y001269D01*
X012510Y001256D01*
X012523Y001245D01*
X012538Y001237D01*
X012555Y001232D01*
X012572Y001230D01*
X012572Y001229D02*
X012638Y001229D01*
X012638Y001230D02*
X012652Y001228D01*
X012664Y001224D01*
X012676Y001217D01*
X012686Y001207D01*
X012693Y001195D01*
X012697Y001183D01*
X012699Y001169D01*
X012697Y001154D01*
X012692Y001140D01*
X012685Y001128D01*
X012674Y001117D01*
X012662Y001110D01*
X012648Y001105D01*
X012633Y001103D01*
X012633Y001102D02*
X012291Y001102D01*
X012269Y001544D02*
X012269Y003625D01*
X012638Y003625D01*
X012639Y003625D02*
X012652Y003624D01*
X012665Y003619D01*
X012677Y003612D01*
X012687Y003602D01*
X012694Y003590D01*
X012699Y003577D01*
X012700Y003564D01*
X012699Y003564D02*
X012699Y003564D01*
X012697Y003549D01*
X012692Y003535D01*
X012685Y003523D01*
X012674Y003512D01*
X012662Y003505D01*
X012648Y003500D01*
X012633Y003498D01*
X012572Y003498D01*
X012555Y003496D01*
X012538Y003491D01*
X012523Y003483D01*
X012510Y003472D01*
X012499Y003459D01*
X012491Y003444D01*
X012486Y003427D01*
X012484Y003410D01*
X012484Y003409D02*
X012484Y003398D01*
X012486Y003381D01*
X012491Y003364D01*
X012499Y003349D01*
X012510Y003336D01*
X012523Y003325D01*
X012538Y003317D01*
X012555Y003312D01*
X012572Y003310D01*
X012638Y003310D01*
X012652Y003308D01*
X012664Y003304D01*
X012676Y003297D01*
X012686Y003287D01*
X012693Y003275D01*
X012697Y003263D01*
X012699Y003249D01*
X012697Y003234D01*
X012692Y003220D01*
X012685Y003208D01*
X012674Y003197D01*
X012662Y003190D01*
X012648Y003185D01*
X012633Y003183D01*
X012291Y003183D01*
X012269Y003625D02*
X011766Y003625D01*
X011744Y003623D01*
X011723Y003618D01*
X011703Y003610D01*
X011685Y003599D01*
X011668Y003585D01*
X011654Y003568D01*
X011643Y003550D01*
X011635Y003530D01*
X011630Y003509D01*
X011628Y003487D01*
X011628Y003255D01*
X011054Y002366D02*
X010475Y002366D01*
X010475Y002367D02*
X010454Y002365D01*
X010434Y002360D01*
X010415Y002352D01*
X010397Y002342D01*
X010381Y002328D01*
X010367Y002312D01*
X010357Y002294D01*
X010349Y002275D01*
X010344Y002255D01*
X010342Y002234D01*
X010260Y000650D01*
X010259Y000650D02*
X010260Y000636D01*
X010265Y000623D01*
X010273Y000612D01*
X010283Y000603D01*
X010296Y000597D01*
X010309Y000594D01*
X010323Y000595D01*
X010336Y000600D01*
X010347Y000608D01*
X010356Y000618D01*
X010362Y000631D01*
X010365Y000644D01*
X010364Y000644D02*
X010431Y001870D01*
X010433Y001894D01*
X010438Y001918D01*
X010446Y001941D01*
X010458Y001962D01*
X010473Y001982D01*
X010490Y001999D01*
X010510Y002014D01*
X010531Y002026D01*
X010554Y002034D01*
X010578Y002039D01*
X010602Y002041D01*
X010949Y002041D01*
X010973Y002039D01*
X010996Y002034D01*
X011018Y002026D01*
X011039Y002015D01*
X011058Y002000D01*
X011074Y001984D01*
X011089Y001965D01*
X011100Y001944D01*
X011108Y001922D01*
X011113Y001899D01*
X011115Y001875D01*
X011115Y001848D01*
X011170Y000650D01*
X011170Y000649D02*
X011172Y000636D01*
X011178Y000623D01*
X011187Y000612D01*
X011198Y000604D01*
X011211Y000599D01*
X011225Y000597D01*
X011239Y000599D01*
X011252Y000604D01*
X011263Y000612D01*
X011272Y000623D01*
X011278Y000636D01*
X011280Y000649D01*
X011281Y000650D02*
X011198Y002223D01*
X011196Y002246D01*
X011191Y002267D01*
X011182Y002288D01*
X011170Y002308D01*
X011156Y002325D01*
X011139Y002339D01*
X011119Y002351D01*
X011098Y002360D01*
X011077Y002365D01*
X011054Y002367D01*
X011435Y002190D02*
X011501Y000744D01*
X011501Y000727D01*
X011503Y000705D01*
X011508Y000684D01*
X011516Y000664D01*
X011527Y000646D01*
X011541Y000629D01*
X011558Y000615D01*
X011576Y000604D01*
X011596Y000596D01*
X011617Y000591D01*
X011639Y000589D01*
X012247Y000589D01*
X011833Y000865D02*
X011921Y002206D01*
X011923Y002218D01*
X011929Y002229D01*
X011937Y002238D01*
X011947Y002245D01*
X011958Y002249D01*
X011970Y002250D01*
X011971Y002250D02*
X012247Y002250D01*
X011551Y002195D02*
X011639Y000860D01*
X011642Y000841D01*
X011649Y000824D01*
X011658Y000808D01*
X011671Y000794D01*
X011686Y000783D01*
X011702Y000775D01*
X011720Y000770D01*
X011739Y000769D01*
X011757Y000771D01*
X011775Y000777D01*
X011791Y000786D01*
X011805Y000798D01*
X011817Y000813D01*
X011826Y000829D01*
X011831Y000847D01*
X011833Y000865D01*
X011551Y002195D02*
X011549Y002209D01*
X011543Y002221D01*
X011534Y002233D01*
X011524Y002241D01*
X011511Y002247D01*
X011497Y002250D01*
X011483Y002249D01*
X011470Y002245D01*
X011458Y002238D01*
X011448Y002228D01*
X011440Y002217D01*
X011436Y002203D01*
X011435Y002189D01*
X010105Y002190D02*
X010039Y000744D01*
X010039Y000727D01*
X010037Y000705D01*
X010032Y000684D01*
X010024Y000664D01*
X010013Y000646D01*
X009999Y000629D01*
X009982Y000615D01*
X009964Y000604D01*
X009944Y000596D01*
X009923Y000591D01*
X009901Y000589D01*
X009294Y000589D01*
X009708Y000865D02*
X009619Y002206D01*
X009617Y002218D01*
X009611Y002229D01*
X009603Y002238D01*
X009593Y002245D01*
X009582Y002249D01*
X009570Y002250D01*
X009294Y002250D01*
X009989Y002195D02*
X009901Y000860D01*
X009898Y000841D01*
X009891Y000824D01*
X009882Y000808D01*
X009869Y000794D01*
X009854Y000783D01*
X009838Y000775D01*
X009820Y000770D01*
X009801Y000769D01*
X009783Y000771D01*
X009765Y000777D01*
X009749Y000786D01*
X009735Y000798D01*
X009723Y000813D01*
X009714Y000829D01*
X009709Y000847D01*
X009707Y000865D01*
X009272Y001102D02*
X008902Y001102D01*
X008889Y001103D01*
X008876Y001108D01*
X008864Y001115D01*
X008854Y001125D01*
X008847Y001137D01*
X008842Y001150D01*
X008841Y001163D01*
X008841Y001163D01*
X008843Y001178D01*
X008848Y001192D01*
X008855Y001204D01*
X008866Y001215D01*
X008878Y001222D01*
X008892Y001227D01*
X008907Y001229D01*
X008968Y001229D01*
X008968Y001230D02*
X008985Y001232D01*
X009002Y001237D01*
X009017Y001245D01*
X009030Y001256D01*
X009041Y001269D01*
X009049Y001284D01*
X009054Y001301D01*
X009056Y001318D01*
X009056Y001329D01*
X009054Y001346D01*
X009049Y001363D01*
X009041Y001378D01*
X009030Y001391D01*
X009017Y001402D01*
X009002Y001410D01*
X008985Y001415D01*
X008968Y001417D01*
X008902Y001417D01*
X008888Y001419D01*
X008876Y001423D01*
X008864Y001430D01*
X008854Y001440D01*
X008847Y001452D01*
X008843Y001464D01*
X008841Y001478D01*
X008843Y001493D01*
X008848Y001507D01*
X008855Y001519D01*
X008866Y001530D01*
X008878Y001537D01*
X008892Y001542D01*
X008907Y001544D01*
X009250Y001544D01*
X009989Y002195D02*
X009991Y002209D01*
X009997Y002221D01*
X010006Y002233D01*
X010016Y002241D01*
X010029Y002247D01*
X010043Y002250D01*
X010057Y002249D01*
X010070Y002245D01*
X010082Y002238D01*
X010092Y002228D01*
X010100Y002217D01*
X010104Y002203D01*
X010105Y002189D01*
X009912Y003271D02*
X009912Y003481D01*
X009911Y003481D02*
X009909Y003503D01*
X009904Y003525D01*
X009895Y003546D01*
X009884Y003565D01*
X009869Y003582D01*
X009852Y003597D01*
X009833Y003608D01*
X009812Y003617D01*
X009790Y003622D01*
X009768Y003624D01*
X009277Y003625D02*
X008907Y003625D01*
X008892Y003623D01*
X008878Y003618D01*
X008866Y003611D01*
X008855Y003600D01*
X008848Y003588D01*
X008843Y003574D01*
X008841Y003559D01*
X008843Y003545D01*
X008847Y003533D01*
X008854Y003521D01*
X008864Y003511D01*
X008876Y003504D01*
X008888Y003500D01*
X008902Y003498D01*
X008968Y003498D01*
X008985Y003496D01*
X009002Y003491D01*
X009017Y003483D01*
X009030Y003472D01*
X009041Y003459D01*
X009049Y003444D01*
X009054Y003427D01*
X009056Y003410D01*
X009056Y003398D01*
X009054Y003381D01*
X009049Y003364D01*
X009041Y003349D01*
X009030Y003336D01*
X009017Y003325D01*
X009002Y003317D01*
X008985Y003312D01*
X008968Y003310D01*
X008907Y003310D01*
X008892Y003308D01*
X008878Y003303D01*
X008866Y003296D01*
X008855Y003285D01*
X008848Y003273D01*
X008843Y003259D01*
X008841Y003244D01*
X008841Y003244D01*
X008842Y003231D01*
X008847Y003218D01*
X008854Y003206D01*
X008864Y003196D01*
X008876Y003189D01*
X008889Y003185D01*
X008902Y003183D01*
X009272Y003183D01*
X008137Y003140D02*
X007830Y003140D01*
X007983Y003140D02*
X007983Y003601D01*
X007830Y003447D01*
X007676Y003601D02*
X007369Y003140D01*
X007676Y003140D02*
X007369Y003601D01*
X001250Y009590D02*
X001050Y009590D01*
X001050Y009690D01*
X001083Y009724D01*
X001150Y009724D01*
X001183Y009690D01*
X001183Y009590D01*
X001183Y009657D02*
X001250Y009724D01*
X001250Y009811D02*
X001217Y009811D01*
X001083Y009945D01*
X001050Y009945D01*
X001050Y009811D01*
X009540Y017390D02*
X009673Y017390D01*
X009761Y017390D02*
X009761Y017591D01*
X009894Y017591D01*
X009982Y017591D02*
X009982Y017390D01*
X010082Y017390D01*
X010115Y017424D01*
X010115Y017557D01*
X010082Y017591D01*
X009982Y017591D01*
X009828Y017490D02*
X009761Y017490D01*
X009761Y017390D02*
X009894Y017390D01*
X009540Y017390D02*
X009540Y017591D01*
X010203Y017591D02*
X010336Y017591D01*
X010336Y017557D01*
X010203Y017424D01*
X010203Y017390D01*
X011156Y017400D02*
X011289Y017400D01*
X011377Y017400D02*
X011510Y017400D01*
X011598Y017400D02*
X011698Y017400D01*
X011731Y017434D01*
X011731Y017567D01*
X011698Y017601D01*
X011598Y017601D01*
X011598Y017400D01*
X011444Y017500D02*
X011377Y017500D01*
X011377Y017400D02*
X011377Y017601D01*
X011510Y017601D01*
X011819Y017500D02*
X011952Y017500D01*
X011919Y017400D02*
X011919Y017601D01*
X011819Y017500D01*
X011156Y017601D02*
X011156Y017400D01*
X011102Y016301D02*
X011002Y016301D01*
X011002Y016100D01*
X011002Y016167D02*
X011102Y016167D01*
X011135Y016200D01*
X011135Y016267D01*
X011102Y016301D01*
X011223Y016267D02*
X011256Y016301D01*
X011323Y016301D01*
X011356Y016267D01*
X011356Y016234D01*
X011223Y016100D01*
X011356Y016100D01*
X011444Y016134D02*
X011477Y016100D01*
X011544Y016100D01*
X011577Y016134D01*
X011577Y016167D01*
X011544Y016200D01*
X011511Y016200D01*
X011544Y016200D02*
X011577Y016234D01*
X011577Y016267D01*
X011544Y016301D01*
X011477Y016301D01*
X011444Y016267D01*
X011135Y016100D02*
X011069Y016167D01*
X010327Y016167D02*
X010294Y016200D01*
X010194Y016200D01*
X010194Y016134D01*
X010227Y016100D01*
X010294Y016100D01*
X010327Y016134D01*
X010327Y016167D01*
X010261Y016267D02*
X010194Y016200D01*
X010106Y016234D02*
X010106Y016267D01*
X010073Y016301D01*
X010006Y016301D01*
X009973Y016267D01*
X009885Y016267D02*
X009885Y016200D01*
X009852Y016167D01*
X009752Y016167D01*
X009752Y016100D02*
X009752Y016301D01*
X009852Y016301D01*
X009885Y016267D01*
X009819Y016167D02*
X009885Y016100D01*
X009973Y016100D02*
X010106Y016234D01*
X010106Y016100D02*
X009973Y016100D01*
X010261Y016267D02*
X010327Y016301D01*
X018540Y018390D02*
X018847Y018851D01*
X019000Y018621D02*
X019307Y018621D01*
X019231Y018851D02*
X019231Y018390D01*
X019000Y018621D02*
X019231Y018851D01*
X018847Y018390D02*
X018540Y018851D01*
D14*
X009888Y010607D02*
X009652Y010607D01*
X009652Y010134D02*
X009888Y010134D01*
X009638Y007357D02*
X009402Y007357D01*
X009402Y006884D02*
X009638Y006884D01*
X010652Y006884D02*
X010888Y006884D01*
X010888Y007357D02*
X010652Y007357D01*
X002600Y010040D02*
X002600Y011210D01*
X001440Y011210D02*
X001440Y010040D01*
X001770Y008620D02*
X001520Y008370D01*
X001520Y007870D01*
X001770Y007620D01*
X001520Y007370D01*
X001520Y006870D01*
X001770Y006620D01*
X001520Y006370D01*
X001520Y005870D01*
X001770Y005620D01*
X002270Y005620D01*
X002520Y005870D01*
X002520Y006370D01*
X002270Y006620D01*
X002520Y006870D01*
X002520Y007370D01*
X002270Y007620D01*
X002520Y007870D01*
X002520Y008370D01*
X002270Y008620D01*
X001770Y008620D01*
D15*
X010895Y010233D02*
X010895Y010257D01*
X012645Y010257D02*
X012645Y010233D01*
X012645Y010733D02*
X012645Y010757D01*
X012645Y009757D02*
X012645Y009733D01*
X012883Y007745D02*
X012907Y007745D01*
X011907Y007745D02*
X011883Y007745D01*
D16*
X012395Y007745D03*
D17*
X012645Y008745D03*
X012645Y009245D03*
X012645Y011245D03*
X012645Y011745D03*
X008645Y008995D03*
D18*
X012239Y013017D02*
X012239Y014474D01*
X012633Y014474D01*
X013657Y014474D02*
X014051Y014474D01*
X014051Y013017D01*
X013302Y013017D02*
X012988Y013017D01*
X017232Y015233D02*
X018433Y015233D01*
X018433Y015883D01*
X017232Y015883D01*
X017232Y015233D01*
D19*
X013023Y017135D02*
X012830Y017135D01*
X012926Y017135D02*
X012926Y017426D01*
X012830Y017329D01*
X012728Y017426D02*
X012632Y017426D01*
X012680Y017426D02*
X012680Y017184D01*
X012632Y017135D01*
X012583Y017135D01*
X012535Y017184D01*
D20*
X011461Y017268D03*
X011461Y016973D03*
X010079Y016973D03*
X010079Y017268D03*
X005079Y016768D03*
X005079Y016473D03*
X004961Y015768D03*
X004961Y015473D03*
D21*
X004961Y015620D03*
X005079Y016620D03*
X010079Y017120D03*
X011461Y017120D03*
X019020Y011929D03*
X020020Y011929D03*
X013520Y003061D03*
D22*
X013372Y003061D03*
X013668Y003061D03*
X018872Y011929D03*
X019168Y011929D03*
X019872Y011929D03*
X020168Y011929D03*
M02*
