G75*
G70*
%OFA0B0*%
%FSLAX24Y24*%
%IPPOS*%
%LPD*%
%AMOC8*
5,1,8,0,0,1.08239X$1,22.5*
%
%ADD10C,0.0600*%
%ADD11C,0.0650*%
%ADD12C,0.0591*%
%ADD13C,0.0100*%
%ADD14C,0.0270*%
%ADD15C,0.0340*%
D10*
X002020Y006120D03*
X002020Y007120D03*
X002020Y008120D03*
D11*
X009270Y019370D03*
X010270Y019370D03*
X011270Y019370D03*
X012270Y019370D03*
D12*
X019020Y017620D03*
X019020Y016620D03*
X020020Y016620D03*
X020020Y017620D03*
X020020Y015620D03*
X019020Y015620D03*
X019020Y014620D03*
X020020Y014620D03*
X020020Y013620D03*
X019020Y013620D03*
X019020Y007620D03*
X020020Y007620D03*
X020020Y006620D03*
X020020Y005620D03*
X019020Y005620D03*
X019020Y006620D03*
X019020Y004620D03*
X020020Y004620D03*
X020020Y003620D03*
X019020Y003620D03*
X002520Y013620D03*
X001520Y013620D03*
X001520Y014620D03*
X002520Y014620D03*
X002520Y015620D03*
X001520Y015620D03*
X001520Y016620D03*
X002520Y016620D03*
X002520Y017620D03*
X001520Y017620D03*
D13*
X001057Y001257D02*
X001204Y001055D01*
X001407Y000908D01*
X001645Y000830D01*
X001770Y000820D01*
X019770Y000820D01*
X019895Y000830D01*
X020133Y000908D01*
X020336Y001055D01*
X020483Y001257D01*
X020483Y001257D01*
X020560Y001495D01*
X020570Y001620D01*
X020570Y019620D01*
X020560Y019746D01*
X020483Y019984D01*
X020336Y020186D01*
X020133Y020333D01*
X019895Y020411D01*
X019770Y020420D01*
X001770Y020420D01*
X001645Y020411D01*
X001407Y020333D01*
X001204Y020186D01*
X001057Y019984D01*
X000980Y019746D01*
X000970Y019620D01*
X000970Y001620D01*
X000980Y001495D01*
X001057Y001257D01*
X001040Y001310D02*
X001640Y001310D01*
X001643Y001307D02*
X001888Y001205D01*
X002152Y001205D01*
X002397Y001307D01*
X002584Y001494D01*
X002685Y001738D01*
X002685Y002003D01*
X002584Y002247D01*
X002397Y002434D01*
X002152Y002535D01*
X001888Y002535D01*
X001643Y002434D01*
X001456Y002247D01*
X001355Y002003D01*
X001355Y001738D01*
X001456Y001494D01*
X001643Y001307D01*
X001542Y001408D02*
X001008Y001408D01*
X000979Y001507D02*
X001451Y001507D01*
X001410Y001605D02*
X000971Y001605D01*
X000970Y001704D02*
X001369Y001704D01*
X001355Y001802D02*
X000970Y001802D01*
X000970Y001901D02*
X001355Y001901D01*
X001355Y001999D02*
X000970Y001999D01*
X000970Y002098D02*
X001394Y002098D01*
X001435Y002196D02*
X000970Y002196D01*
X000970Y002295D02*
X001504Y002295D01*
X001603Y002393D02*
X000970Y002393D01*
X000970Y002492D02*
X001783Y002492D01*
X002257Y002492D02*
X009726Y002492D01*
X009704Y002545D02*
X009761Y002407D01*
X009867Y002301D01*
X010006Y002243D01*
X010156Y002243D01*
X010295Y002301D01*
X010401Y002407D01*
X010458Y002545D01*
X010458Y002695D01*
X010401Y002834D01*
X010295Y002940D01*
X010156Y002998D01*
X010006Y002998D01*
X009867Y002940D01*
X009761Y002834D01*
X009704Y002695D01*
X009704Y002545D01*
X009704Y002590D02*
X000970Y002590D01*
X000970Y002689D02*
X009704Y002689D01*
X009742Y002787D02*
X000970Y002787D01*
X000970Y002886D02*
X009813Y002886D01*
X009974Y002984D02*
X000970Y002984D01*
X000970Y003083D02*
X020570Y003083D01*
X020570Y003181D02*
X020095Y003181D01*
X020068Y003181D02*
X019972Y003181D01*
X019972Y003177D02*
X019972Y003572D01*
X020068Y003572D01*
X020068Y003177D01*
X020124Y003186D01*
X020191Y003208D01*
X020253Y003240D01*
X020310Y003281D01*
X020360Y003330D01*
X020401Y003387D01*
X020433Y003449D01*
X020454Y003516D01*
X020463Y003572D01*
X020068Y003572D01*
X020068Y003669D01*
X019972Y003669D01*
X019972Y004064D01*
X019916Y004055D01*
X019849Y004033D01*
X019787Y004001D01*
X019730Y003960D01*
X019680Y003910D01*
X019639Y003854D01*
X019607Y003791D01*
X019586Y003725D01*
X019577Y003669D01*
X019972Y003669D01*
X019972Y003572D01*
X019577Y003572D01*
X019586Y003516D01*
X019607Y003449D01*
X019639Y003387D01*
X019680Y003330D01*
X019730Y003281D01*
X019787Y003240D01*
X019849Y003208D01*
X019916Y003186D01*
X019972Y003177D01*
X019945Y003181D02*
X000970Y003181D01*
X000970Y003280D02*
X018787Y003280D01*
X018790Y003277D02*
X018939Y003215D01*
X019101Y003215D01*
X019250Y003277D01*
X019364Y003391D01*
X019425Y003540D01*
X019425Y003701D01*
X019364Y003850D01*
X019250Y003964D01*
X019101Y004026D01*
X018939Y004026D01*
X018790Y003964D01*
X018676Y003850D01*
X018615Y003701D01*
X018615Y003540D01*
X018676Y003391D01*
X018790Y003277D01*
X018689Y003378D02*
X000970Y003378D01*
X000970Y003477D02*
X018641Y003477D01*
X018615Y003575D02*
X000970Y003575D01*
X000970Y003674D02*
X018615Y003674D01*
X018644Y003772D02*
X000970Y003772D01*
X000970Y003871D02*
X018697Y003871D01*
X018804Y003969D02*
X000970Y003969D01*
X000970Y004068D02*
X020570Y004068D01*
X020570Y004166D02*
X000970Y004166D01*
X000970Y004265D02*
X018819Y004265D01*
X018790Y004277D02*
X018939Y004215D01*
X019101Y004215D01*
X019250Y004277D01*
X019364Y004391D01*
X019425Y004540D01*
X019425Y004701D01*
X019364Y004850D01*
X019250Y004964D01*
X019101Y005026D01*
X018939Y005026D01*
X018790Y004964D01*
X018676Y004850D01*
X018615Y004701D01*
X018615Y004540D01*
X018676Y004391D01*
X018790Y004277D01*
X018704Y004363D02*
X000970Y004363D01*
X000970Y004462D02*
X018647Y004462D01*
X018615Y004560D02*
X000970Y004560D01*
X000970Y004659D02*
X018615Y004659D01*
X018638Y004757D02*
X000970Y004757D01*
X000970Y004856D02*
X018682Y004856D01*
X018781Y004954D02*
X000970Y004954D01*
X000970Y005053D02*
X019910Y005053D01*
X019916Y005055D02*
X019849Y005033D01*
X019787Y005001D01*
X019730Y004960D01*
X019680Y004910D01*
X019639Y004854D01*
X019607Y004791D01*
X019586Y004725D01*
X019577Y004669D01*
X019972Y004669D01*
X019972Y005064D01*
X019916Y005055D01*
X019972Y005053D02*
X020068Y005053D01*
X020068Y005064D02*
X020068Y004669D01*
X019972Y004669D01*
X019972Y004572D01*
X020068Y004572D01*
X020068Y004177D01*
X020124Y004186D01*
X020191Y004208D01*
X020253Y004240D01*
X020310Y004281D01*
X020360Y004330D01*
X020401Y004387D01*
X020433Y004449D01*
X020454Y004516D01*
X020463Y004572D01*
X020068Y004572D01*
X020068Y004669D01*
X020463Y004669D01*
X020454Y004725D01*
X020433Y004791D01*
X020401Y004854D01*
X020360Y004910D01*
X020310Y004960D01*
X020253Y005001D01*
X020191Y005033D01*
X020124Y005055D01*
X020068Y005064D01*
X020130Y005053D02*
X020570Y005053D01*
X020570Y005151D02*
X015697Y005151D01*
X015679Y005133D02*
X015757Y005212D01*
X015800Y005315D01*
X015800Y005426D01*
X015757Y005529D01*
X015679Y005608D01*
X015648Y005620D01*
X015679Y005633D01*
X015757Y005712D01*
X015800Y005815D01*
X015800Y005926D01*
X015757Y006029D01*
X015679Y006108D01*
X015648Y006120D01*
X015679Y006133D01*
X015757Y006212D01*
X015800Y006315D01*
X015800Y006426D01*
X015757Y006529D01*
X015679Y006608D01*
X015648Y006620D01*
X015679Y006633D01*
X015757Y006712D01*
X015800Y006815D01*
X015800Y006926D01*
X015757Y007029D01*
X015679Y007108D01*
X015648Y007120D01*
X015679Y007133D01*
X015757Y007212D01*
X015800Y007315D01*
X015800Y007426D01*
X015757Y007529D01*
X015679Y007608D01*
X015648Y007620D01*
X015679Y007633D01*
X015757Y007712D01*
X015800Y007815D01*
X015800Y007926D01*
X015757Y008029D01*
X015679Y008108D01*
X015576Y008150D01*
X015464Y008150D01*
X015361Y008108D01*
X015283Y008029D01*
X015270Y007998D01*
X015257Y008029D01*
X015179Y008108D01*
X015076Y008150D01*
X014964Y008150D01*
X014861Y008108D01*
X014783Y008029D01*
X014770Y007998D01*
X014757Y008029D01*
X014679Y008108D01*
X014576Y008150D01*
X014464Y008150D01*
X014361Y008108D01*
X014283Y008029D01*
X014240Y007926D01*
X014240Y007815D01*
X014283Y007712D01*
X014361Y007633D01*
X014392Y007620D01*
X014361Y007608D01*
X014283Y007529D01*
X014240Y007426D01*
X014240Y007315D01*
X014283Y007212D01*
X014361Y007133D01*
X014464Y007090D01*
X014576Y007090D01*
X014679Y007133D01*
X014757Y007212D01*
X014770Y007242D01*
X014783Y007212D01*
X014861Y007133D01*
X014964Y007090D01*
X015076Y007090D01*
X015179Y007133D01*
X015257Y007212D01*
X015270Y007242D01*
X015283Y007212D01*
X015361Y007133D01*
X015392Y007120D01*
X015361Y007108D01*
X015283Y007029D01*
X015240Y006926D01*
X015240Y006815D01*
X015283Y006712D01*
X015361Y006633D01*
X015392Y006620D01*
X015361Y006608D01*
X015283Y006529D01*
X015240Y006426D01*
X015240Y006315D01*
X015283Y006212D01*
X015361Y006133D01*
X015392Y006120D01*
X015361Y006108D01*
X015283Y006029D01*
X015240Y005926D01*
X015240Y005815D01*
X015283Y005712D01*
X015361Y005633D01*
X015392Y005620D01*
X015361Y005608D01*
X015283Y005529D01*
X015270Y005498D01*
X015257Y005529D01*
X015179Y005608D01*
X015076Y005650D01*
X014964Y005650D01*
X014861Y005608D01*
X014783Y005529D01*
X014770Y005498D01*
X014757Y005529D01*
X014679Y005608D01*
X014576Y005650D01*
X014464Y005650D01*
X014361Y005608D01*
X014283Y005529D01*
X014240Y005426D01*
X014240Y005315D01*
X014283Y005212D01*
X014361Y005133D01*
X014464Y005090D01*
X014576Y005090D01*
X014679Y005133D01*
X014757Y005212D01*
X014770Y005242D01*
X014783Y005212D01*
X014861Y005133D01*
X014964Y005090D01*
X015076Y005090D01*
X015179Y005133D01*
X015257Y005212D01*
X015270Y005242D01*
X015283Y005212D01*
X015361Y005133D01*
X015464Y005090D01*
X015576Y005090D01*
X015679Y005133D01*
X015773Y005250D02*
X018772Y005250D01*
X018787Y005240D02*
X018849Y005208D01*
X018916Y005186D01*
X018972Y005177D01*
X018972Y005572D01*
X019068Y005572D01*
X019068Y005177D01*
X019124Y005186D01*
X019191Y005208D01*
X019253Y005240D01*
X019310Y005281D01*
X019360Y005330D01*
X019401Y005387D01*
X019433Y005449D01*
X019454Y005516D01*
X019463Y005572D01*
X019068Y005572D01*
X019068Y005669D01*
X018972Y005669D01*
X018972Y006064D01*
X018916Y006055D01*
X018849Y006033D01*
X018787Y006001D01*
X018730Y005960D01*
X018680Y005910D01*
X018639Y005854D01*
X018607Y005791D01*
X018586Y005725D01*
X018577Y005669D01*
X018972Y005669D01*
X018972Y005572D01*
X018577Y005572D01*
X018586Y005516D01*
X018607Y005449D01*
X018639Y005387D01*
X018680Y005330D01*
X018730Y005281D01*
X018787Y005240D01*
X018667Y005348D02*
X015800Y005348D01*
X015791Y005447D02*
X018609Y005447D01*
X018581Y005545D02*
X015741Y005545D01*
X015689Y005644D02*
X018972Y005644D01*
X019068Y005644D02*
X019972Y005644D01*
X019972Y005669D02*
X019972Y005572D01*
X020068Y005572D01*
X020068Y005177D01*
X020124Y005186D01*
X020191Y005208D01*
X020253Y005240D01*
X020310Y005281D01*
X020360Y005330D01*
X020401Y005387D01*
X020433Y005449D01*
X020454Y005516D01*
X020463Y005572D01*
X020068Y005572D01*
X020068Y005669D01*
X019972Y005669D01*
X019972Y006064D01*
X019916Y006055D01*
X019849Y006033D01*
X019787Y006001D01*
X019730Y005960D01*
X019680Y005910D01*
X019639Y005854D01*
X019607Y005791D01*
X019586Y005725D01*
X019577Y005669D01*
X019972Y005669D01*
X019972Y005742D02*
X020068Y005742D01*
X020068Y005669D02*
X020068Y006064D01*
X020124Y006055D01*
X020191Y006033D01*
X020253Y006001D01*
X020310Y005960D01*
X020360Y005910D01*
X020401Y005854D01*
X020433Y005791D01*
X020454Y005725D01*
X020463Y005669D01*
X020068Y005669D01*
X020068Y005644D02*
X020570Y005644D01*
X020570Y005742D02*
X020449Y005742D01*
X020407Y005841D02*
X020570Y005841D01*
X020570Y005939D02*
X020331Y005939D01*
X020176Y006038D02*
X020570Y006038D01*
X020570Y006136D02*
X015682Y006136D01*
X015748Y006038D02*
X018864Y006038D01*
X018972Y006038D02*
X019068Y006038D01*
X019068Y006064D02*
X019068Y005669D01*
X019463Y005669D01*
X019454Y005725D01*
X019433Y005791D01*
X019401Y005854D01*
X019360Y005910D01*
X019310Y005960D01*
X019253Y006001D01*
X019191Y006033D01*
X019124Y006055D01*
X019068Y006064D01*
X019176Y006038D02*
X019864Y006038D01*
X019972Y006038D02*
X020068Y006038D01*
X020068Y005939D02*
X019972Y005939D01*
X019972Y005841D02*
X020068Y005841D01*
X019709Y005939D02*
X019331Y005939D01*
X019407Y005841D02*
X019633Y005841D01*
X019591Y005742D02*
X019449Y005742D01*
X019459Y005545D02*
X019581Y005545D01*
X019577Y005572D02*
X019586Y005516D01*
X019607Y005449D01*
X019639Y005387D01*
X019680Y005330D01*
X019730Y005281D01*
X019787Y005240D01*
X019849Y005208D01*
X019916Y005186D01*
X019972Y005177D01*
X019972Y005572D01*
X019577Y005572D01*
X019609Y005447D02*
X019431Y005447D01*
X019373Y005348D02*
X019667Y005348D01*
X019772Y005250D02*
X019268Y005250D01*
X019068Y005250D02*
X018972Y005250D01*
X018972Y005348D02*
X019068Y005348D01*
X019068Y005447D02*
X018972Y005447D01*
X018972Y005545D02*
X019068Y005545D01*
X019068Y005742D02*
X018972Y005742D01*
X018972Y005841D02*
X019068Y005841D01*
X019068Y005939D02*
X018972Y005939D01*
X018709Y005939D02*
X015794Y005939D01*
X015800Y005841D02*
X018633Y005841D01*
X018591Y005742D02*
X015770Y005742D01*
X015351Y005644D02*
X015091Y005644D01*
X014949Y005644D02*
X014591Y005644D01*
X014449Y005644D02*
X012015Y005644D01*
X012015Y005669D02*
X011978Y005759D01*
X011909Y005828D01*
X011819Y005865D01*
X011721Y005865D01*
X011631Y005828D01*
X011562Y005759D01*
X011525Y005669D01*
X011525Y005572D01*
X011562Y005482D01*
X011631Y005413D01*
X011721Y005375D01*
X011819Y005375D01*
X011909Y005413D01*
X011978Y005482D01*
X012015Y005572D01*
X012015Y005669D01*
X011985Y005742D02*
X015270Y005742D01*
X015240Y005841D02*
X011878Y005841D01*
X011662Y005841D02*
X007765Y005841D01*
X007765Y005822D02*
X007728Y005732D01*
X007659Y005663D01*
X007569Y005625D01*
X007471Y005625D01*
X007381Y005663D01*
X007312Y005732D01*
X007275Y005822D01*
X007275Y005919D01*
X007312Y006009D01*
X007381Y006078D01*
X007471Y006115D01*
X007569Y006115D01*
X007659Y006078D01*
X007728Y006009D01*
X007765Y005919D01*
X007765Y005822D01*
X007732Y005742D02*
X011555Y005742D01*
X011525Y005644D02*
X007613Y005644D01*
X007631Y005578D02*
X007721Y005615D01*
X007819Y005615D01*
X007909Y005578D01*
X007978Y005509D01*
X008015Y005419D01*
X008015Y005322D01*
X007978Y005232D01*
X007909Y005163D01*
X007819Y005125D01*
X007721Y005125D01*
X007631Y005163D01*
X007562Y005232D01*
X007525Y005322D01*
X007525Y005419D01*
X007562Y005509D01*
X007631Y005578D01*
X007599Y005545D02*
X000970Y005545D01*
X000970Y005447D02*
X007537Y005447D01*
X007525Y005348D02*
X000970Y005348D01*
X000970Y005250D02*
X007555Y005250D01*
X007658Y005151D02*
X000970Y005151D01*
X000970Y005644D02*
X006927Y005644D01*
X006971Y005625D02*
X007069Y005625D01*
X007159Y005663D01*
X007228Y005732D01*
X007265Y005822D01*
X007265Y005919D01*
X007228Y006009D01*
X007159Y006078D01*
X007069Y006115D01*
X006971Y006115D01*
X006881Y006078D01*
X006812Y006009D01*
X006775Y005919D01*
X006775Y005822D01*
X006812Y005732D01*
X006881Y005663D01*
X006971Y005625D01*
X007113Y005644D02*
X007427Y005644D01*
X007308Y005742D02*
X007232Y005742D01*
X007265Y005841D02*
X007275Y005841D01*
X007283Y005939D02*
X007257Y005939D01*
X007199Y006038D02*
X007341Y006038D01*
X007381Y006163D02*
X007312Y006232D01*
X007275Y006322D01*
X007275Y006419D01*
X007312Y006509D01*
X007381Y006578D01*
X007471Y006615D01*
X007569Y006615D01*
X007659Y006578D01*
X007728Y006509D01*
X007765Y006419D01*
X007765Y006322D01*
X007728Y006232D01*
X007659Y006163D01*
X007569Y006125D01*
X007471Y006125D01*
X007381Y006163D01*
X007445Y006136D02*
X007095Y006136D01*
X007069Y006125D02*
X007159Y006163D01*
X007228Y006232D01*
X007265Y006322D01*
X007265Y006419D01*
X007228Y006509D01*
X007159Y006578D01*
X007069Y006615D01*
X006971Y006615D01*
X006881Y006578D01*
X006812Y006509D01*
X006775Y006419D01*
X006775Y006322D01*
X006812Y006232D01*
X006881Y006163D01*
X006971Y006125D01*
X007069Y006125D01*
X006945Y006136D02*
X002430Y006136D01*
X002430Y006202D02*
X002368Y006353D01*
X002252Y006468D01*
X002102Y006530D01*
X001938Y006530D01*
X001788Y006468D01*
X001672Y006353D01*
X001610Y006202D01*
X001610Y006039D01*
X001672Y005888D01*
X001788Y005773D01*
X001938Y005710D01*
X002102Y005710D01*
X002252Y005773D01*
X002368Y005888D01*
X002430Y006039D01*
X002430Y006202D01*
X002416Y006235D02*
X006811Y006235D01*
X006775Y006333D02*
X002376Y006333D01*
X002288Y006432D02*
X006780Y006432D01*
X006834Y006530D02*
X000970Y006530D01*
X000970Y006432D02*
X001752Y006432D01*
X001664Y006333D02*
X000970Y006333D01*
X000970Y006235D02*
X001624Y006235D01*
X001610Y006136D02*
X000970Y006136D01*
X000970Y006038D02*
X001610Y006038D01*
X001651Y005939D02*
X000970Y005939D01*
X000970Y005841D02*
X001720Y005841D01*
X001861Y005742D02*
X000970Y005742D01*
X000970Y006629D02*
X010025Y006629D01*
X010025Y006669D02*
X010025Y006572D01*
X010062Y006482D01*
X010131Y006413D01*
X010221Y006375D01*
X010319Y006375D01*
X010409Y006413D01*
X010478Y006482D01*
X010515Y006572D01*
X010515Y006669D01*
X010478Y006759D01*
X010409Y006828D01*
X010319Y006865D01*
X010221Y006865D01*
X010131Y006828D01*
X010062Y006759D01*
X010025Y006669D01*
X010049Y006727D02*
X002143Y006727D01*
X002102Y006710D02*
X002252Y006773D01*
X002368Y006888D01*
X002430Y007039D01*
X002430Y007202D01*
X002368Y007353D01*
X002252Y007468D01*
X002102Y007530D01*
X001938Y007530D01*
X001788Y007468D01*
X001672Y007353D01*
X001610Y007202D01*
X001610Y007039D01*
X001672Y006888D01*
X001788Y006773D01*
X001938Y006710D01*
X002102Y006710D01*
X001897Y006727D02*
X000970Y006727D01*
X000970Y006826D02*
X001735Y006826D01*
X001657Y006924D02*
X000970Y006924D01*
X000970Y007023D02*
X001617Y007023D01*
X001610Y007121D02*
X000970Y007121D01*
X000970Y007220D02*
X001617Y007220D01*
X001658Y007318D02*
X000970Y007318D01*
X000970Y007417D02*
X001737Y007417D01*
X001902Y007515D02*
X000970Y007515D01*
X000970Y007614D02*
X008525Y007614D01*
X008525Y007572D02*
X008562Y007482D01*
X008631Y007413D01*
X008721Y007375D01*
X008819Y007375D01*
X008909Y007413D01*
X008978Y007482D01*
X009015Y007572D01*
X009015Y007669D01*
X008978Y007759D01*
X008909Y007828D01*
X008819Y007865D01*
X008721Y007865D01*
X008631Y007828D01*
X008562Y007759D01*
X008525Y007669D01*
X008525Y007572D01*
X008548Y007515D02*
X002138Y007515D01*
X002303Y007417D02*
X008627Y007417D01*
X008913Y007417D02*
X009377Y007417D01*
X009381Y007413D02*
X009471Y007375D01*
X009569Y007375D01*
X009659Y007413D01*
X009728Y007482D01*
X009765Y007572D01*
X009765Y007669D01*
X009728Y007759D01*
X009659Y007828D01*
X009569Y007865D01*
X009471Y007865D01*
X009381Y007828D01*
X009312Y007759D01*
X009275Y007669D01*
X009275Y007572D01*
X009312Y007482D01*
X009381Y007413D01*
X009298Y007515D02*
X008992Y007515D01*
X009015Y007614D02*
X009275Y007614D01*
X009293Y007712D02*
X008997Y007712D01*
X008926Y007811D02*
X009364Y007811D01*
X009676Y007811D02*
X009864Y007811D01*
X009881Y007828D02*
X009812Y007759D01*
X009775Y007669D01*
X009775Y007572D01*
X009812Y007482D01*
X009881Y007413D01*
X009971Y007375D01*
X010069Y007375D01*
X010159Y007413D01*
X010228Y007482D01*
X010265Y007572D01*
X010265Y007669D01*
X010228Y007759D01*
X010159Y007828D01*
X010069Y007865D01*
X009971Y007865D01*
X009881Y007828D01*
X009793Y007712D02*
X009747Y007712D01*
X009765Y007614D02*
X009775Y007614D01*
X009798Y007515D02*
X009742Y007515D01*
X009663Y007417D02*
X009877Y007417D01*
X010163Y007417D02*
X011127Y007417D01*
X011131Y007413D02*
X011221Y007375D01*
X011319Y007375D01*
X011409Y007413D01*
X011478Y007482D01*
X011515Y007572D01*
X011515Y007669D01*
X011478Y007759D01*
X011409Y007828D01*
X011319Y007865D01*
X011221Y007865D01*
X011131Y007828D01*
X011062Y007759D01*
X011025Y007669D01*
X011025Y007572D01*
X011062Y007482D01*
X011131Y007413D01*
X011048Y007515D02*
X010242Y007515D01*
X010265Y007614D02*
X011025Y007614D01*
X011043Y007712D02*
X010247Y007712D01*
X010176Y007811D02*
X011114Y007811D01*
X011426Y007811D02*
X014242Y007811D01*
X014240Y007909D02*
X007151Y007909D01*
X007159Y007913D02*
X007228Y007982D01*
X007265Y008072D01*
X007265Y008169D01*
X007228Y008259D01*
X007159Y008328D01*
X007069Y008365D01*
X006971Y008365D01*
X006881Y008328D01*
X006812Y008259D01*
X006775Y008169D01*
X006775Y008072D01*
X006812Y007982D01*
X006881Y007913D01*
X006971Y007875D01*
X007069Y007875D01*
X007159Y007913D01*
X007239Y008008D02*
X014274Y008008D01*
X014360Y008106D02*
X007265Y008106D01*
X007250Y008205D02*
X011589Y008205D01*
X011562Y008232D02*
X011631Y008163D01*
X011721Y008125D01*
X011819Y008125D01*
X011909Y008163D01*
X011978Y008232D01*
X012015Y008322D01*
X012015Y008419D01*
X011978Y008509D01*
X011909Y008578D01*
X011819Y008615D01*
X011721Y008615D01*
X011631Y008578D01*
X011562Y008509D01*
X011525Y008419D01*
X011525Y008322D01*
X011562Y008232D01*
X011533Y008303D02*
X007183Y008303D01*
X007312Y008482D02*
X007381Y008413D01*
X007471Y008375D01*
X007569Y008375D01*
X007659Y008413D01*
X007728Y008482D01*
X007765Y008572D01*
X007765Y008669D01*
X007728Y008759D01*
X007659Y008828D01*
X007569Y008865D01*
X007471Y008865D01*
X007381Y008828D01*
X007312Y008759D01*
X007275Y008669D01*
X007275Y008572D01*
X007312Y008482D01*
X007305Y008500D02*
X004981Y008500D01*
X004978Y008509D02*
X004909Y008578D01*
X004819Y008615D01*
X004721Y008615D01*
X004631Y008578D01*
X004562Y008509D01*
X004525Y008419D01*
X004525Y008322D01*
X004562Y008232D01*
X004631Y008163D01*
X004721Y008125D01*
X004819Y008125D01*
X004909Y008163D01*
X004978Y008232D01*
X005015Y008322D01*
X005015Y008419D01*
X004978Y008509D01*
X005015Y008402D02*
X007407Y008402D01*
X007633Y008402D02*
X011525Y008402D01*
X011559Y008500D02*
X009497Y008500D01*
X009471Y008475D02*
X009540Y008544D01*
X009577Y008634D01*
X009577Y008732D01*
X009540Y008822D01*
X009471Y008891D01*
X009381Y008928D01*
X009284Y008928D01*
X009194Y008891D01*
X009125Y008822D01*
X009088Y008732D01*
X009088Y008634D01*
X009125Y008544D01*
X009194Y008475D01*
X009284Y008438D01*
X009381Y008438D01*
X009471Y008475D01*
X009563Y008599D02*
X011681Y008599D01*
X011859Y008599D02*
X020570Y008599D01*
X020570Y008697D02*
X009577Y008697D01*
X009551Y008796D02*
X016123Y008796D01*
X016131Y008788D02*
X016221Y008750D01*
X016319Y008750D01*
X016409Y008788D01*
X016478Y008857D01*
X016515Y008947D01*
X016515Y009044D01*
X016478Y009134D01*
X016409Y009203D01*
X016319Y009240D01*
X016221Y009240D01*
X016141Y009207D01*
X016165Y009232D01*
X016202Y009322D01*
X016202Y009419D01*
X016165Y009509D01*
X016096Y009578D01*
X016006Y009615D01*
X015909Y009615D01*
X015819Y009578D01*
X015750Y009509D01*
X015713Y009419D01*
X015713Y009322D01*
X015750Y009232D01*
X015819Y009163D01*
X015909Y009125D01*
X016006Y009125D01*
X016087Y009159D01*
X016062Y009134D01*
X016025Y009044D01*
X016025Y008947D01*
X016062Y008857D01*
X016131Y008788D01*
X016047Y008894D02*
X009462Y008894D01*
X009203Y008894D02*
X000970Y008894D01*
X000970Y008796D02*
X007349Y008796D01*
X007287Y008697D02*
X000970Y008697D01*
X000970Y008599D02*
X004681Y008599D01*
X004559Y008500D02*
X002174Y008500D01*
X002102Y008530D02*
X002252Y008468D01*
X002368Y008353D01*
X002430Y008202D01*
X002430Y008039D01*
X002368Y007888D01*
X002252Y007773D01*
X002102Y007710D01*
X001938Y007710D01*
X001788Y007773D01*
X001672Y007888D01*
X001610Y008039D01*
X001610Y008202D01*
X001672Y008353D01*
X001788Y008468D01*
X001938Y008530D01*
X002102Y008530D01*
X001866Y008500D02*
X000970Y008500D01*
X000970Y008402D02*
X001722Y008402D01*
X001652Y008303D02*
X000970Y008303D01*
X000970Y008205D02*
X001611Y008205D01*
X001610Y008106D02*
X000970Y008106D01*
X000970Y008008D02*
X001623Y008008D01*
X001664Y007909D02*
X000970Y007909D01*
X000970Y007811D02*
X001750Y007811D01*
X001934Y007712D02*
X000970Y007712D01*
X002106Y007712D02*
X008543Y007712D01*
X008614Y007811D02*
X002290Y007811D01*
X002376Y007909D02*
X006889Y007909D01*
X006801Y008008D02*
X002417Y008008D01*
X002430Y008106D02*
X006775Y008106D01*
X006790Y008205D02*
X004951Y008205D01*
X005007Y008303D02*
X006857Y008303D01*
X007275Y008599D02*
X004859Y008599D01*
X004525Y008402D02*
X002318Y008402D01*
X002388Y008303D02*
X004533Y008303D01*
X004589Y008205D02*
X002429Y008205D01*
X002382Y007318D02*
X014240Y007318D01*
X014240Y007417D02*
X011413Y007417D01*
X011492Y007515D02*
X014277Y007515D01*
X014376Y007614D02*
X011515Y007614D01*
X011497Y007712D02*
X014282Y007712D01*
X014680Y008106D02*
X014860Y008106D01*
X014774Y008008D02*
X014766Y008008D01*
X015180Y008106D02*
X015360Y008106D01*
X015274Y008008D02*
X015266Y008008D01*
X015680Y008106D02*
X020570Y008106D01*
X020570Y008008D02*
X020143Y008008D01*
X020101Y008026D02*
X019939Y008026D01*
X019790Y007964D01*
X019676Y007850D01*
X019615Y007701D01*
X019615Y007540D01*
X019676Y007391D01*
X019790Y007277D01*
X019939Y007215D01*
X020101Y007215D01*
X020250Y007277D01*
X020364Y007391D01*
X020425Y007540D01*
X020425Y007701D01*
X020364Y007850D01*
X020250Y007964D01*
X020101Y008026D01*
X019897Y008008D02*
X019143Y008008D01*
X019101Y008026D02*
X018939Y008026D01*
X018790Y007964D01*
X018676Y007850D01*
X018615Y007701D01*
X018615Y007540D01*
X018676Y007391D01*
X018790Y007277D01*
X018939Y007215D01*
X019101Y007215D01*
X019250Y007277D01*
X019364Y007391D01*
X019425Y007540D01*
X019425Y007701D01*
X019364Y007850D01*
X019250Y007964D01*
X019101Y008026D01*
X018897Y008008D02*
X015766Y008008D01*
X015800Y007909D02*
X018736Y007909D01*
X018660Y007811D02*
X015798Y007811D01*
X015758Y007712D02*
X018619Y007712D01*
X018615Y007614D02*
X015664Y007614D01*
X015763Y007515D02*
X018625Y007515D01*
X018666Y007417D02*
X015800Y007417D01*
X015800Y007318D02*
X018749Y007318D01*
X018928Y007220D02*
X015761Y007220D01*
X015651Y007121D02*
X020570Y007121D01*
X020570Y007023D02*
X020107Y007023D01*
X020101Y007026D02*
X019939Y007026D01*
X019790Y006964D01*
X019676Y006850D01*
X019615Y006701D01*
X019615Y006540D01*
X019676Y006391D01*
X019790Y006277D01*
X019939Y006215D01*
X020101Y006215D01*
X020250Y006277D01*
X020364Y006391D01*
X020425Y006540D01*
X020425Y006701D01*
X020364Y006850D01*
X020250Y006964D01*
X020101Y007026D01*
X019933Y007023D02*
X019107Y007023D01*
X019101Y007026D02*
X018939Y007026D01*
X018790Y006964D01*
X018676Y006850D01*
X018615Y006701D01*
X018615Y006540D01*
X018676Y006391D01*
X018790Y006277D01*
X018939Y006215D01*
X019101Y006215D01*
X019250Y006277D01*
X019364Y006391D01*
X019425Y006540D01*
X019425Y006701D01*
X019364Y006850D01*
X019250Y006964D01*
X019101Y007026D01*
X018933Y007023D02*
X015760Y007023D01*
X015800Y006924D02*
X018751Y006924D01*
X018666Y006826D02*
X015800Y006826D01*
X015764Y006727D02*
X018626Y006727D01*
X018615Y006629D02*
X015669Y006629D01*
X015756Y006530D02*
X018619Y006530D01*
X018659Y006432D02*
X015798Y006432D01*
X015800Y006333D02*
X018734Y006333D01*
X018892Y006235D02*
X015767Y006235D01*
X015358Y006136D02*
X010515Y006136D01*
X010515Y006169D02*
X010478Y006259D01*
X010409Y006328D01*
X010319Y006365D01*
X010221Y006365D01*
X010131Y006328D01*
X010062Y006259D01*
X010025Y006169D01*
X010025Y006072D01*
X010062Y005982D01*
X010131Y005913D01*
X010221Y005875D01*
X010319Y005875D01*
X010409Y005913D01*
X010478Y005982D01*
X010515Y006072D01*
X010515Y006169D01*
X010488Y006235D02*
X015273Y006235D01*
X015240Y006333D02*
X010396Y006333D01*
X010428Y006432D02*
X015242Y006432D01*
X015284Y006530D02*
X010498Y006530D01*
X010515Y006629D02*
X015371Y006629D01*
X015276Y006727D02*
X010491Y006727D01*
X010411Y006826D02*
X015240Y006826D01*
X015240Y006924D02*
X002383Y006924D01*
X002423Y007023D02*
X015280Y007023D01*
X015389Y007121D02*
X015151Y007121D01*
X015261Y007220D02*
X015279Y007220D01*
X014889Y007121D02*
X014651Y007121D01*
X014761Y007220D02*
X014779Y007220D01*
X014389Y007121D02*
X002430Y007121D01*
X002423Y007220D02*
X014279Y007220D01*
X015292Y006038D02*
X010501Y006038D01*
X010435Y005939D02*
X015246Y005939D01*
X015241Y005545D02*
X015299Y005545D01*
X015343Y005151D02*
X015197Y005151D01*
X014843Y005151D02*
X014697Y005151D01*
X014343Y005151D02*
X007882Y005151D01*
X007985Y005250D02*
X014267Y005250D01*
X014240Y005348D02*
X008015Y005348D01*
X008003Y005447D02*
X011597Y005447D01*
X011536Y005545D02*
X007941Y005545D01*
X007757Y005939D02*
X010105Y005939D01*
X010039Y006038D02*
X007699Y006038D01*
X007595Y006136D02*
X010025Y006136D01*
X010052Y006235D02*
X007729Y006235D01*
X007765Y006333D02*
X010144Y006333D01*
X010112Y006432D02*
X007760Y006432D01*
X007706Y006530D02*
X010042Y006530D01*
X010129Y006826D02*
X002305Y006826D01*
X002430Y006038D02*
X006841Y006038D01*
X006783Y005939D02*
X002389Y005939D01*
X002320Y005841D02*
X006775Y005841D01*
X006808Y005742D02*
X002179Y005742D01*
X002437Y002393D02*
X009775Y002393D01*
X009881Y002295D02*
X002536Y002295D01*
X002605Y002196D02*
X018935Y002196D01*
X018956Y002247D02*
X018855Y002003D01*
X018855Y001738D01*
X018956Y001494D01*
X019143Y001307D01*
X019388Y001205D01*
X019652Y001205D01*
X019897Y001307D01*
X020084Y001494D01*
X020185Y001738D01*
X020185Y002003D01*
X020084Y002247D01*
X019897Y002434D01*
X019652Y002535D01*
X019388Y002535D01*
X019143Y002434D01*
X018956Y002247D01*
X019004Y002295D02*
X011659Y002295D01*
X011673Y002301D02*
X011534Y002243D01*
X011384Y002243D01*
X011245Y002301D01*
X011139Y002407D01*
X011082Y002545D01*
X011082Y002695D01*
X011139Y002834D01*
X011245Y002940D01*
X011384Y002998D01*
X011534Y002998D01*
X011673Y002940D01*
X011779Y002834D01*
X011836Y002695D01*
X011836Y002545D01*
X011779Y002407D01*
X011673Y002301D01*
X011765Y002393D02*
X019103Y002393D01*
X019283Y002492D02*
X011814Y002492D01*
X011836Y002590D02*
X020570Y002590D01*
X020570Y002492D02*
X019757Y002492D01*
X019937Y002393D02*
X020570Y002393D01*
X020570Y002295D02*
X020036Y002295D01*
X020105Y002196D02*
X020570Y002196D01*
X020570Y002098D02*
X020146Y002098D01*
X020185Y001999D02*
X020570Y001999D01*
X020570Y001901D02*
X020185Y001901D01*
X020185Y001802D02*
X020570Y001802D01*
X020570Y001704D02*
X020171Y001704D01*
X020130Y001605D02*
X020569Y001605D01*
X020561Y001507D02*
X020089Y001507D01*
X019998Y001408D02*
X020532Y001408D01*
X020500Y001310D02*
X019900Y001310D01*
X019667Y001211D02*
X020450Y001211D01*
X020378Y001113D02*
X001162Y001113D01*
X001090Y001211D02*
X001873Y001211D01*
X002167Y001211D02*
X019373Y001211D01*
X019140Y001310D02*
X002400Y001310D01*
X002498Y001408D02*
X019042Y001408D01*
X018951Y001507D02*
X002589Y001507D01*
X002630Y001605D02*
X018910Y001605D01*
X018869Y001704D02*
X002671Y001704D01*
X002685Y001802D02*
X018855Y001802D01*
X018855Y001901D02*
X002685Y001901D01*
X002685Y001999D02*
X018855Y001999D01*
X018894Y002098D02*
X002646Y002098D01*
X001395Y000916D02*
X020145Y000916D01*
X020280Y001014D02*
X001260Y001014D01*
X007229Y006235D02*
X007311Y006235D01*
X007275Y006333D02*
X007265Y006333D01*
X007260Y006432D02*
X007280Y006432D01*
X007334Y006530D02*
X007206Y006530D01*
X007735Y008500D02*
X009168Y008500D01*
X009102Y008599D02*
X007765Y008599D01*
X007753Y008697D02*
X009088Y008697D01*
X009114Y008796D02*
X007691Y008796D01*
X007721Y010125D02*
X007819Y010125D01*
X007909Y010163D01*
X007978Y010232D01*
X008015Y010322D01*
X008015Y010375D01*
X008069Y010375D01*
X008159Y010413D01*
X008228Y010482D01*
X008265Y010572D01*
X008265Y010669D01*
X008228Y010759D01*
X008159Y010828D01*
X008069Y010865D01*
X007971Y010865D01*
X007881Y010828D01*
X007812Y010759D01*
X007775Y010669D01*
X007775Y010615D01*
X007721Y010615D01*
X007631Y010578D01*
X007562Y010509D01*
X007525Y010419D01*
X007525Y010322D01*
X007562Y010232D01*
X007631Y010163D01*
X007721Y010125D01*
X007619Y010175D02*
X005671Y010175D01*
X005659Y010163D02*
X005728Y010232D01*
X005765Y010322D01*
X005765Y010375D01*
X005819Y010375D01*
X005909Y010413D01*
X005978Y010482D01*
X006015Y010572D01*
X006015Y010669D01*
X005978Y010759D01*
X005909Y010828D01*
X005819Y010865D01*
X005721Y010865D01*
X005631Y010828D01*
X005562Y010759D01*
X005525Y010669D01*
X005525Y010615D01*
X005471Y010615D01*
X005381Y010578D01*
X005312Y010509D01*
X005275Y010419D01*
X005275Y010322D01*
X005312Y010232D01*
X005381Y010163D01*
X005471Y010125D01*
X005569Y010125D01*
X005659Y010163D01*
X005745Y010273D02*
X007545Y010273D01*
X007525Y010372D02*
X005765Y010372D01*
X005967Y010470D02*
X007546Y010470D01*
X007622Y010569D02*
X006014Y010569D01*
X006015Y010667D02*
X007775Y010667D01*
X007819Y010766D02*
X005971Y010766D01*
X005821Y010864D02*
X007969Y010864D01*
X008071Y010864D02*
X010653Y010864D01*
X010650Y010857D02*
X010650Y010759D01*
X010658Y010740D01*
X010596Y010740D01*
X010506Y010703D01*
X010437Y010634D01*
X010400Y010544D01*
X010400Y010447D01*
X010437Y010357D01*
X010506Y010288D01*
X010596Y010250D01*
X010694Y010250D01*
X010784Y010288D01*
X010853Y010357D01*
X010890Y010447D01*
X010890Y010544D01*
X010882Y010563D01*
X010944Y010563D01*
X011034Y010600D01*
X011103Y010669D01*
X011140Y010759D01*
X011140Y010857D01*
X011103Y010947D01*
X011034Y011016D01*
X010944Y011053D01*
X010846Y011053D01*
X010756Y011016D01*
X010687Y010947D01*
X010650Y010857D01*
X010650Y010766D02*
X008221Y010766D01*
X008265Y010667D02*
X010471Y010667D01*
X010410Y010569D02*
X008264Y010569D01*
X008217Y010470D02*
X010400Y010470D01*
X010431Y010372D02*
X008015Y010372D01*
X007995Y010273D02*
X010541Y010273D01*
X010749Y010273D02*
X020570Y010273D01*
X020570Y010175D02*
X007921Y010175D01*
X005765Y009419D02*
X005765Y009322D01*
X005728Y009232D01*
X005659Y009163D01*
X005569Y009125D01*
X005471Y009125D01*
X005381Y009163D01*
X005312Y009232D01*
X005275Y009322D01*
X005275Y009419D01*
X005312Y009509D01*
X005381Y009578D01*
X005471Y009615D01*
X005569Y009615D01*
X005659Y009578D01*
X005728Y009509D01*
X005765Y009419D01*
X005765Y009387D02*
X015713Y009387D01*
X015726Y009288D02*
X005751Y009288D01*
X005686Y009190D02*
X015791Y009190D01*
X016045Y009091D02*
X000970Y009091D01*
X000970Y008993D02*
X016025Y008993D01*
X016189Y009288D02*
X020570Y009288D01*
X020570Y009190D02*
X016422Y009190D01*
X016495Y009091D02*
X020570Y009091D01*
X020570Y008993D02*
X016515Y008993D01*
X016493Y008894D02*
X020570Y008894D01*
X020570Y008796D02*
X016417Y008796D01*
X016202Y009387D02*
X020570Y009387D01*
X020570Y009485D02*
X016175Y009485D01*
X016082Y009584D02*
X020570Y009584D01*
X020570Y009682D02*
X000970Y009682D01*
X000970Y009584D02*
X005395Y009584D01*
X005302Y009485D02*
X000970Y009485D01*
X000970Y009387D02*
X005275Y009387D01*
X005289Y009288D02*
X000970Y009288D01*
X000970Y009190D02*
X005354Y009190D01*
X005738Y009485D02*
X015740Y009485D01*
X015833Y009584D02*
X005645Y009584D01*
X005369Y010175D02*
X005013Y010175D01*
X005015Y010169D02*
X004978Y010259D01*
X004909Y010328D01*
X004819Y010365D01*
X004721Y010365D01*
X004689Y010352D01*
X004702Y010384D01*
X004702Y010482D01*
X004665Y010572D01*
X004596Y010641D01*
X004506Y010678D01*
X004409Y010678D01*
X004319Y010641D01*
X004250Y010572D01*
X004213Y010482D01*
X004213Y010384D01*
X004250Y010294D01*
X004319Y010225D01*
X004409Y010188D01*
X004506Y010188D01*
X004538Y010201D01*
X004525Y010169D01*
X004525Y010072D01*
X004562Y009982D01*
X004631Y009913D01*
X004721Y009875D01*
X004819Y009875D01*
X004909Y009913D01*
X004978Y009982D01*
X005015Y010072D01*
X005015Y010169D01*
X005015Y010076D02*
X020570Y010076D01*
X020570Y009978D02*
X004974Y009978D01*
X004828Y009879D02*
X020570Y009879D01*
X020570Y009781D02*
X000970Y009781D01*
X000970Y009879D02*
X004712Y009879D01*
X004566Y009978D02*
X000970Y009978D01*
X000970Y010076D02*
X004525Y010076D01*
X004527Y010175D02*
X000970Y010175D01*
X000970Y010273D02*
X004270Y010273D01*
X004218Y010372D02*
X000970Y010372D01*
X000970Y010470D02*
X004213Y010470D01*
X004249Y010569D02*
X000970Y010569D01*
X000970Y010667D02*
X003876Y010667D01*
X003881Y010663D02*
X003971Y010625D01*
X004069Y010625D01*
X004159Y010663D01*
X004228Y010732D01*
X004265Y010822D01*
X004265Y010919D01*
X004228Y011009D01*
X004159Y011078D01*
X004069Y011115D01*
X003971Y011115D01*
X003881Y011078D01*
X003812Y011009D01*
X003775Y010919D01*
X003775Y010822D01*
X003812Y010732D01*
X003881Y010663D01*
X003798Y010766D02*
X000970Y010766D01*
X000970Y010864D02*
X003775Y010864D01*
X003793Y010963D02*
X000970Y010963D01*
X000970Y011061D02*
X003865Y011061D01*
X004175Y011061D02*
X020570Y011061D01*
X020570Y010963D02*
X011086Y010963D01*
X011137Y010864D02*
X020570Y010864D01*
X020570Y010766D02*
X011140Y010766D01*
X011101Y010667D02*
X020570Y010667D01*
X020570Y010569D02*
X010958Y010569D01*
X010890Y010470D02*
X020570Y010470D01*
X020570Y010372D02*
X010859Y010372D01*
X010704Y010963D02*
X004247Y010963D01*
X004265Y010864D02*
X005719Y010864D01*
X005569Y010766D02*
X004242Y010766D01*
X004164Y010667D02*
X004383Y010667D01*
X004532Y010667D02*
X005525Y010667D01*
X005372Y010569D02*
X004666Y010569D01*
X004702Y010470D02*
X005296Y010470D01*
X005275Y010372D02*
X004697Y010372D01*
X004963Y010273D02*
X005295Y010273D01*
X006631Y012913D02*
X006721Y012875D01*
X006819Y012875D01*
X006909Y012913D01*
X006978Y012982D01*
X007015Y013072D01*
X007015Y013169D01*
X006978Y013259D01*
X006909Y013328D01*
X006819Y013365D01*
X006721Y013365D01*
X006631Y013328D01*
X006562Y013259D01*
X006525Y013169D01*
X006525Y013072D01*
X006562Y012982D01*
X006631Y012913D01*
X006611Y012933D02*
X000970Y012933D01*
X000970Y013031D02*
X005396Y013031D01*
X005381Y013038D02*
X005471Y013000D01*
X005569Y013000D01*
X005659Y013038D01*
X005728Y013107D01*
X005765Y013197D01*
X005765Y013294D01*
X005728Y013384D01*
X005659Y013453D01*
X005569Y013490D01*
X005471Y013490D01*
X005381Y013453D01*
X005312Y013384D01*
X005275Y013294D01*
X005275Y013197D01*
X005312Y013107D01*
X005381Y013038D01*
X005303Y013130D02*
X000970Y013130D01*
X000970Y013228D02*
X001308Y013228D01*
X001287Y013240D02*
X001349Y013208D01*
X001416Y013186D01*
X001472Y013177D01*
X001472Y013572D01*
X001568Y013572D01*
X001568Y013177D01*
X001624Y013186D01*
X001691Y013208D01*
X001753Y013240D01*
X001810Y013281D01*
X001860Y013330D01*
X001901Y013387D01*
X001933Y013449D01*
X001954Y013516D01*
X001963Y013572D01*
X001568Y013572D01*
X001568Y013669D01*
X001472Y013669D01*
X001472Y014064D01*
X001416Y014055D01*
X001349Y014033D01*
X001287Y014001D01*
X001230Y013960D01*
X001180Y013910D01*
X001139Y013854D01*
X001107Y013791D01*
X001086Y013725D01*
X001077Y013669D01*
X001472Y013669D01*
X001472Y013572D01*
X001077Y013572D01*
X001086Y013516D01*
X001107Y013449D01*
X001139Y013387D01*
X001180Y013330D01*
X001230Y013281D01*
X001287Y013240D01*
X001184Y013327D02*
X000970Y013327D01*
X000970Y013425D02*
X001120Y013425D01*
X001084Y013524D02*
X000970Y013524D01*
X000970Y013622D02*
X001472Y013622D01*
X001568Y013622D02*
X002472Y013622D01*
X002472Y013669D02*
X002472Y013572D01*
X002568Y013572D01*
X002568Y013177D01*
X002624Y013186D01*
X002691Y013208D01*
X002753Y013240D01*
X002810Y013281D01*
X002860Y013330D01*
X002901Y013387D01*
X002933Y013449D01*
X002954Y013516D01*
X002963Y013572D01*
X002568Y013572D01*
X002568Y013669D01*
X002472Y013669D01*
X002472Y014064D01*
X002416Y014055D01*
X002349Y014033D01*
X002287Y014001D01*
X002230Y013960D01*
X002180Y013910D01*
X002139Y013854D01*
X002107Y013791D01*
X002086Y013725D01*
X002077Y013669D01*
X002472Y013669D01*
X002472Y013721D02*
X002568Y013721D01*
X002568Y013669D02*
X002568Y014064D01*
X002624Y014055D01*
X002691Y014033D01*
X002753Y014001D01*
X002810Y013960D01*
X002860Y013910D01*
X002901Y013854D01*
X002933Y013791D01*
X002954Y013725D01*
X002963Y013669D01*
X002568Y013669D01*
X002568Y013622D02*
X018615Y013622D01*
X018615Y013701D02*
X018615Y013540D01*
X018676Y013391D01*
X018790Y013277D01*
X018939Y013215D01*
X019101Y013215D01*
X019250Y013277D01*
X019364Y013391D01*
X019425Y013540D01*
X019425Y013701D01*
X019364Y013850D01*
X019250Y013964D01*
X019101Y014026D01*
X018939Y014026D01*
X018790Y013964D01*
X018676Y013850D01*
X018615Y013701D01*
X018623Y013721D02*
X002955Y013721D01*
X002918Y013819D02*
X018664Y013819D01*
X018744Y013918D02*
X017164Y013918D01*
X017159Y013913D02*
X017228Y013982D01*
X017265Y014072D01*
X017265Y014169D01*
X017228Y014259D01*
X017159Y014328D01*
X017069Y014365D01*
X016971Y014365D01*
X016881Y014328D01*
X016812Y014259D01*
X016775Y014169D01*
X016775Y014072D01*
X016812Y013982D01*
X016881Y013913D01*
X016971Y013875D01*
X017069Y013875D01*
X017159Y013913D01*
X017242Y014016D02*
X018917Y014016D01*
X018916Y014186D02*
X018849Y014208D01*
X018787Y014240D01*
X018730Y014281D01*
X018680Y014330D01*
X018639Y014387D01*
X018607Y014449D01*
X018586Y014516D01*
X018577Y014572D01*
X018972Y014572D01*
X019068Y014572D01*
X019068Y014177D01*
X019124Y014186D01*
X019191Y014208D01*
X019253Y014240D01*
X019310Y014281D01*
X019360Y014330D01*
X019401Y014387D01*
X019433Y014449D01*
X019454Y014516D01*
X019463Y014572D01*
X019068Y014572D01*
X019068Y014669D01*
X018972Y014669D01*
X018972Y015064D01*
X018916Y015055D01*
X018849Y015033D01*
X018787Y015001D01*
X002659Y015001D01*
X002601Y015026D02*
X002439Y015026D01*
X002290Y014964D01*
X002176Y014850D01*
X002115Y014701D01*
X002115Y014540D01*
X002176Y014391D01*
X002290Y014277D01*
X002439Y014215D01*
X002601Y014215D01*
X002750Y014277D01*
X002864Y014391D01*
X002925Y014540D01*
X002925Y014701D01*
X002864Y014850D01*
X002750Y014964D01*
X002601Y015026D01*
X002601Y015215D02*
X002439Y015215D01*
X002290Y015277D01*
X002176Y015391D01*
X002115Y015540D01*
X002115Y015701D01*
X002176Y015850D01*
X002290Y015964D01*
X002439Y016026D01*
X002601Y016026D01*
X002750Y015964D01*
X002864Y015850D01*
X002925Y015701D01*
X002925Y015540D01*
X002864Y015391D01*
X002750Y015277D01*
X002601Y015215D01*
X002770Y015297D02*
X018714Y015297D01*
X018730Y015281D02*
X018787Y015240D01*
X018849Y015208D01*
X018916Y015186D01*
X018972Y015177D01*
X018972Y015572D01*
X019068Y015572D01*
X019068Y015177D01*
X019124Y015186D01*
X019191Y015208D01*
X019253Y015240D01*
X019310Y015281D01*
X019360Y015330D01*
X019401Y015387D01*
X019433Y015449D01*
X019454Y015516D01*
X019463Y015572D01*
X019068Y015572D01*
X019068Y015669D01*
X018972Y015669D01*
X018972Y016064D01*
X018916Y016055D01*
X018849Y016033D01*
X018787Y016001D01*
X018730Y015960D01*
X018680Y015910D01*
X018639Y015854D01*
X018607Y015791D01*
X018586Y015725D01*
X018577Y015669D01*
X018972Y015669D01*
X018972Y015572D01*
X018577Y015572D01*
X018586Y015516D01*
X018607Y015449D01*
X018639Y015387D01*
X018680Y015330D01*
X018730Y015281D01*
X018635Y015395D02*
X005941Y015395D01*
X005929Y015383D02*
X006007Y015462D01*
X006050Y015565D01*
X006050Y015676D01*
X006007Y015779D01*
X005929Y015858D01*
X005826Y015900D01*
X005714Y015900D01*
X005611Y015858D01*
X005533Y015779D01*
X005490Y015676D01*
X005490Y015565D01*
X005533Y015462D01*
X005611Y015383D01*
X005714Y015340D01*
X005826Y015340D01*
X005929Y015383D01*
X006021Y015494D02*
X018593Y015494D01*
X018580Y015691D02*
X006044Y015691D01*
X006050Y015592D02*
X018972Y015592D01*
X019068Y015592D02*
X019972Y015592D01*
X019972Y015572D02*
X019972Y015669D01*
X019972Y016064D01*
X019916Y016055D01*
X019849Y016033D01*
X019787Y016001D01*
X019730Y015960D01*
X019680Y015910D01*
X019639Y015854D01*
X019607Y015791D01*
X019586Y015725D01*
X019577Y015669D01*
X019972Y015669D01*
X020068Y015669D01*
X020068Y016064D01*
X020124Y016055D01*
X020191Y016033D01*
X020253Y016001D01*
X020310Y015960D01*
X020360Y015910D01*
X020401Y015854D01*
X020433Y015791D01*
X020454Y015725D01*
X020463Y015669D01*
X020068Y015669D01*
X020068Y015572D01*
X020068Y015177D01*
X020124Y015186D01*
X020191Y015208D01*
X020253Y015240D01*
X020310Y015281D01*
X020360Y015330D01*
X020401Y015387D01*
X020433Y015449D01*
X020454Y015516D01*
X020463Y015572D01*
X020068Y015572D01*
X019972Y015572D01*
X019972Y015177D01*
X019916Y015186D01*
X019849Y015208D01*
X019787Y015240D01*
X019730Y015281D01*
X019680Y015330D01*
X019639Y015387D01*
X019607Y015449D01*
X019586Y015516D01*
X019577Y015572D01*
X019972Y015572D01*
X019972Y015494D02*
X020068Y015494D01*
X020068Y015592D02*
X020570Y015592D01*
X020570Y015494D02*
X020447Y015494D01*
X020405Y015395D02*
X020570Y015395D01*
X020570Y015297D02*
X020326Y015297D01*
X020162Y015198D02*
X020570Y015198D01*
X020570Y015100D02*
X000970Y015100D01*
X000970Y015198D02*
X018878Y015198D01*
X018972Y015198D02*
X019068Y015198D01*
X019162Y015198D02*
X019878Y015198D01*
X019972Y015198D02*
X020068Y015198D01*
X020068Y015297D02*
X019972Y015297D01*
X019972Y015395D02*
X020068Y015395D01*
X020068Y015691D02*
X019972Y015691D01*
X019972Y015789D02*
X020068Y015789D01*
X020068Y015888D02*
X019972Y015888D01*
X019972Y015986D02*
X020068Y015986D01*
X020274Y015986D02*
X020570Y015986D01*
X020570Y015888D02*
X020376Y015888D01*
X020433Y015789D02*
X020570Y015789D01*
X020570Y015691D02*
X020460Y015691D01*
X020570Y016085D02*
X017265Y016085D01*
X017265Y016072D02*
X017228Y015982D01*
X017159Y015913D01*
X017069Y015875D01*
X016971Y015875D01*
X016881Y015913D01*
X016812Y015982D01*
X016775Y016072D01*
X016775Y016169D01*
X016812Y016259D01*
X016881Y016328D01*
X016971Y016365D01*
X017069Y016365D01*
X017159Y016328D01*
X017228Y016259D01*
X017265Y016169D01*
X017265Y016072D01*
X017230Y015986D02*
X018766Y015986D01*
X018664Y015888D02*
X017099Y015888D01*
X016941Y015888D02*
X005856Y015888D01*
X005684Y015888D02*
X002826Y015888D01*
X002889Y015789D02*
X005543Y015789D01*
X005496Y015691D02*
X002925Y015691D01*
X002925Y015592D02*
X005490Y015592D01*
X005519Y015494D02*
X002906Y015494D01*
X002865Y015395D02*
X005599Y015395D01*
X005997Y015789D02*
X018607Y015789D01*
X018972Y015789D02*
X019068Y015789D01*
X019068Y015691D02*
X018972Y015691D01*
X019068Y015669D02*
X019068Y016064D01*
X019124Y016055D01*
X019191Y016033D01*
X019253Y016001D01*
X019310Y015960D01*
X019360Y015910D01*
X019401Y015854D01*
X019433Y015791D01*
X019454Y015725D01*
X019463Y015669D01*
X019068Y015669D01*
X019068Y015494D02*
X018972Y015494D01*
X018972Y015395D02*
X019068Y015395D01*
X019068Y015297D02*
X018972Y015297D01*
X019068Y015064D02*
X019068Y014669D01*
X019463Y014669D01*
X019454Y014725D01*
X019433Y014791D01*
X019401Y014854D01*
X019360Y014910D01*
X019310Y014960D01*
X019253Y015001D01*
X019787Y015001D01*
X019730Y014960D01*
X019680Y014910D01*
X019639Y014854D01*
X019607Y014791D01*
X019586Y014725D01*
X019577Y014669D01*
X019972Y014669D01*
X019972Y015064D01*
X019916Y015055D01*
X019849Y015033D01*
X019787Y015001D01*
X019675Y014903D02*
X019365Y014903D01*
X019426Y014804D02*
X019614Y014804D01*
X019583Y014706D02*
X019457Y014706D01*
X019577Y014572D02*
X019586Y014516D01*
X019607Y014449D01*
X019639Y014387D01*
X019680Y014330D01*
X019730Y014281D01*
X019787Y014240D01*
X019849Y014208D01*
X019916Y014186D01*
X019972Y014177D01*
X019972Y014572D01*
X020068Y014572D01*
X020068Y014177D01*
X020124Y014186D01*
X020191Y014208D01*
X020253Y014240D01*
X020310Y014281D01*
X020360Y014330D01*
X020401Y014387D01*
X020433Y014449D01*
X020454Y014516D01*
X020463Y014572D01*
X020068Y014572D01*
X020068Y014669D01*
X019972Y014669D01*
X019972Y014572D01*
X019577Y014572D01*
X019588Y014509D02*
X019452Y014509D01*
X019413Y014410D02*
X019627Y014410D01*
X019699Y014312D02*
X019341Y014312D01*
X019202Y014213D02*
X019838Y014213D01*
X019972Y014213D02*
X020068Y014213D01*
X020068Y014312D02*
X019972Y014312D01*
X019972Y014410D02*
X020068Y014410D01*
X020068Y014509D02*
X019972Y014509D01*
X019972Y014607D02*
X019068Y014607D01*
X018972Y014607D02*
X002925Y014607D01*
X002923Y014706D02*
X018583Y014706D01*
X018586Y014725D02*
X018577Y014669D01*
X018972Y014669D01*
X018972Y014572D01*
X018972Y014177D01*
X018916Y014186D01*
X018972Y014213D02*
X019068Y014213D01*
X019068Y014312D02*
X018972Y014312D01*
X018972Y014410D02*
X019068Y014410D01*
X019068Y014509D02*
X018972Y014509D01*
X018972Y014706D02*
X019068Y014706D01*
X019068Y014804D02*
X018972Y014804D01*
X018972Y014903D02*
X019068Y014903D01*
X019068Y015001D02*
X018972Y015001D01*
X019068Y015064D02*
X019124Y015055D01*
X019191Y015033D01*
X019253Y015001D01*
X019326Y015297D02*
X019714Y015297D01*
X019635Y015395D02*
X019405Y015395D01*
X019447Y015494D02*
X019593Y015494D01*
X019580Y015691D02*
X019460Y015691D01*
X019433Y015789D02*
X019607Y015789D01*
X019664Y015888D02*
X019376Y015888D01*
X019274Y015986D02*
X019766Y015986D01*
X019939Y016215D02*
X019790Y016277D01*
X019676Y016391D01*
X019615Y016540D01*
X019615Y016701D01*
X019676Y016850D01*
X019790Y016964D01*
X019939Y017026D01*
X020101Y017026D01*
X020250Y016964D01*
X020364Y016850D01*
X020425Y016701D01*
X020425Y016540D01*
X020364Y016391D01*
X020250Y016277D01*
X020101Y016215D01*
X019939Y016215D01*
X019785Y016282D02*
X019255Y016282D01*
X019250Y016277D02*
X019364Y016391D01*
X019425Y016540D01*
X019425Y016701D01*
X019364Y016850D01*
X019250Y016964D01*
X019101Y017026D01*
X018939Y017026D01*
X018790Y016964D01*
X018676Y016850D01*
X018615Y016701D01*
X018615Y016540D01*
X018676Y016391D01*
X018790Y016277D01*
X018939Y016215D01*
X019101Y016215D01*
X019250Y016277D01*
X019353Y016380D02*
X019687Y016380D01*
X019640Y016479D02*
X019400Y016479D01*
X019425Y016577D02*
X019615Y016577D01*
X019615Y016676D02*
X019425Y016676D01*
X019395Y016774D02*
X019645Y016774D01*
X019699Y016873D02*
X019341Y016873D01*
X019232Y016971D02*
X019808Y016971D01*
X019939Y017215D02*
X020101Y017215D01*
X020250Y017277D01*
X020364Y017391D01*
X020425Y017540D01*
X020425Y017701D01*
X020364Y017850D01*
X020250Y017964D01*
X020101Y018026D01*
X019939Y018026D01*
X019790Y017964D01*
X019676Y017850D01*
X019615Y017701D01*
X019615Y017540D01*
X019676Y017391D01*
X019790Y017277D01*
X019939Y017215D01*
X019814Y017267D02*
X019226Y017267D01*
X019250Y017277D02*
X019364Y017391D01*
X019425Y017540D01*
X019425Y017701D01*
X019364Y017850D01*
X019250Y017964D01*
X019101Y018026D01*
X018939Y018026D01*
X018790Y017964D01*
X018676Y017850D01*
X018615Y017701D01*
X018615Y017540D01*
X018676Y017391D01*
X018790Y017277D01*
X018939Y017215D01*
X019101Y017215D01*
X019250Y017277D01*
X019338Y017365D02*
X019702Y017365D01*
X019646Y017464D02*
X019394Y017464D01*
X019425Y017562D02*
X019615Y017562D01*
X019615Y017661D02*
X019425Y017661D01*
X019401Y017759D02*
X019639Y017759D01*
X019684Y017858D02*
X019356Y017858D01*
X019257Y017956D02*
X019783Y017956D01*
X020257Y017956D02*
X020570Y017956D01*
X020570Y017858D02*
X020356Y017858D01*
X020401Y017759D02*
X020570Y017759D01*
X020570Y017661D02*
X020425Y017661D01*
X020425Y017562D02*
X020570Y017562D01*
X020570Y017464D02*
X020394Y017464D01*
X020338Y017365D02*
X020570Y017365D01*
X020570Y017267D02*
X020226Y017267D01*
X020232Y016971D02*
X020570Y016971D01*
X020570Y016873D02*
X020341Y016873D01*
X020395Y016774D02*
X020570Y016774D01*
X020570Y016676D02*
X020425Y016676D01*
X020425Y016577D02*
X020570Y016577D01*
X020570Y016479D02*
X020400Y016479D01*
X020353Y016380D02*
X020570Y016380D01*
X020570Y016282D02*
X020255Y016282D01*
X020570Y016183D02*
X017259Y016183D01*
X017205Y016282D02*
X018785Y016282D01*
X018687Y016380D02*
X002853Y016380D01*
X002864Y016391D02*
X002925Y016540D01*
X002925Y016701D01*
X002864Y016850D01*
X002750Y016964D01*
X002601Y017026D01*
X002439Y017026D01*
X002290Y016964D01*
X002176Y016850D01*
X002115Y016701D01*
X002115Y016540D01*
X002176Y016391D01*
X002290Y016277D01*
X002439Y016215D01*
X002601Y016215D01*
X002750Y016277D01*
X002864Y016391D01*
X002900Y016479D02*
X018640Y016479D01*
X018615Y016577D02*
X002925Y016577D01*
X002925Y016676D02*
X018615Y016676D01*
X018645Y016774D02*
X002895Y016774D01*
X002841Y016873D02*
X018699Y016873D01*
X018808Y016971D02*
X002732Y016971D01*
X002601Y017215D02*
X002439Y017215D01*
X002290Y017277D01*
X002176Y017391D01*
X002115Y017540D01*
X002115Y017701D01*
X002176Y017850D01*
X002290Y017964D01*
X002439Y018026D01*
X002601Y018026D01*
X002750Y017964D01*
X002864Y017850D01*
X002925Y017701D01*
X002925Y017540D01*
X002864Y017391D01*
X002750Y017277D01*
X002601Y017215D01*
X002726Y017267D02*
X018814Y017267D01*
X018702Y017365D02*
X002838Y017365D01*
X002894Y017464D02*
X018646Y017464D01*
X018615Y017562D02*
X002925Y017562D01*
X002925Y017661D02*
X018615Y017661D01*
X018639Y017759D02*
X002901Y017759D01*
X002856Y017858D02*
X018684Y017858D01*
X018783Y017956D02*
X002757Y017956D01*
X002283Y017956D02*
X001757Y017956D01*
X001750Y017964D02*
X001601Y018026D01*
X001439Y018026D01*
X001290Y017964D01*
X001176Y017850D01*
X001115Y017701D01*
X001115Y017540D01*
X001176Y017391D01*
X001290Y017277D01*
X001439Y017215D01*
X001601Y017215D01*
X001750Y017277D01*
X001864Y017391D01*
X001925Y017540D01*
X001925Y017701D01*
X001864Y017850D01*
X001750Y017964D01*
X001856Y017858D02*
X002184Y017858D01*
X002139Y017759D02*
X001901Y017759D01*
X001925Y017661D02*
X002115Y017661D01*
X002115Y017562D02*
X001925Y017562D01*
X001894Y017464D02*
X002146Y017464D01*
X002202Y017365D02*
X001838Y017365D01*
X001726Y017267D02*
X002314Y017267D01*
X002308Y016971D02*
X001732Y016971D01*
X001750Y016964D02*
X001601Y017026D01*
X001439Y017026D01*
X001290Y016964D01*
X001176Y016850D01*
X001115Y016701D01*
X001115Y016540D01*
X001176Y016391D01*
X001290Y016277D01*
X001439Y016215D01*
X001601Y016215D01*
X001750Y016277D01*
X001864Y016391D01*
X001925Y016540D01*
X001925Y016701D01*
X001864Y016850D01*
X001750Y016964D01*
X001841Y016873D02*
X002199Y016873D01*
X002145Y016774D02*
X001895Y016774D01*
X001925Y016676D02*
X002115Y016676D01*
X002115Y016577D02*
X001925Y016577D01*
X001900Y016479D02*
X002140Y016479D01*
X002187Y016380D02*
X001853Y016380D01*
X001755Y016282D02*
X002285Y016282D01*
X002345Y015986D02*
X001695Y015986D01*
X001750Y015964D02*
X001601Y016026D01*
X001439Y016026D01*
X001290Y015964D01*
X001176Y015850D01*
X001115Y015701D01*
X001115Y015540D01*
X001176Y015391D01*
X001290Y015277D01*
X001439Y015215D01*
X001601Y015215D01*
X001750Y015277D01*
X001864Y015391D01*
X001925Y015540D01*
X001925Y015701D01*
X001864Y015850D01*
X001750Y015964D01*
X001826Y015888D02*
X002214Y015888D01*
X002151Y015789D02*
X001889Y015789D01*
X001925Y015691D02*
X002115Y015691D01*
X002115Y015592D02*
X001925Y015592D01*
X001906Y015494D02*
X002134Y015494D01*
X002175Y015395D02*
X001865Y015395D01*
X001770Y015297D02*
X002270Y015297D01*
X002381Y015001D02*
X001659Y015001D01*
X001601Y015026D02*
X001439Y015026D01*
X001290Y014964D01*
X001176Y014850D01*
X001115Y014701D01*
X001115Y014540D01*
X001176Y014391D01*
X001290Y014277D01*
X001439Y014215D01*
X001601Y014215D01*
X001750Y014277D01*
X001864Y014391D01*
X001925Y014540D01*
X001925Y014701D01*
X001864Y014850D01*
X001750Y014964D01*
X001601Y015026D01*
X001381Y015001D02*
X000970Y015001D01*
X000970Y014903D02*
X001229Y014903D01*
X001158Y014804D02*
X000970Y014804D01*
X000970Y014706D02*
X001117Y014706D01*
X001115Y014607D02*
X000970Y014607D01*
X000970Y014509D02*
X001128Y014509D01*
X001168Y014410D02*
X000970Y014410D01*
X000970Y014312D02*
X001255Y014312D01*
X000970Y014213D02*
X014043Y014213D01*
X014025Y014169D02*
X014062Y014259D01*
X014131Y014328D01*
X014221Y014365D01*
X014319Y014365D01*
X014409Y014328D01*
X014478Y014259D01*
X014515Y014169D01*
X014515Y014072D01*
X014478Y013982D01*
X014409Y013913D01*
X014319Y013875D01*
X014221Y013875D01*
X014131Y013913D01*
X014062Y013982D01*
X014025Y014072D01*
X014025Y014169D01*
X014025Y014115D02*
X000970Y014115D01*
X000970Y014016D02*
X001316Y014016D01*
X001472Y014016D02*
X001568Y014016D01*
X001568Y014064D02*
X001568Y013669D01*
X001963Y013669D01*
X001954Y013725D01*
X001933Y013791D01*
X001901Y013854D01*
X001860Y013910D01*
X001810Y013960D01*
X001753Y014001D01*
X001691Y014033D01*
X001624Y014055D01*
X001568Y014064D01*
X001568Y013918D02*
X001472Y013918D01*
X001472Y013819D02*
X001568Y013819D01*
X001568Y013721D02*
X001472Y013721D01*
X001472Y013524D02*
X001568Y013524D01*
X001568Y013425D02*
X001472Y013425D01*
X001472Y013327D02*
X001568Y013327D01*
X001568Y013228D02*
X001472Y013228D01*
X001732Y013228D02*
X002308Y013228D01*
X002287Y013240D02*
X002349Y013208D01*
X002416Y013186D01*
X002472Y013177D01*
X002472Y013572D01*
X002077Y013572D01*
X002086Y013516D01*
X002107Y013449D01*
X002139Y013387D01*
X002180Y013330D01*
X002230Y013281D01*
X002287Y013240D01*
X002184Y013327D02*
X001856Y013327D01*
X001920Y013425D02*
X002120Y013425D01*
X002084Y013524D02*
X001956Y013524D01*
X001955Y013721D02*
X002085Y013721D01*
X002122Y013819D02*
X001918Y013819D01*
X001852Y013918D02*
X002188Y013918D01*
X002316Y014016D02*
X001724Y014016D01*
X001785Y014312D02*
X002255Y014312D01*
X002168Y014410D02*
X001872Y014410D01*
X001912Y014509D02*
X002128Y014509D01*
X002115Y014607D02*
X001925Y014607D01*
X001923Y014706D02*
X002117Y014706D01*
X002158Y014804D02*
X001882Y014804D01*
X001811Y014903D02*
X002229Y014903D01*
X002811Y014903D02*
X018675Y014903D01*
X018680Y014910D02*
X018639Y014854D01*
X018607Y014791D01*
X018586Y014725D01*
X018614Y014804D02*
X002882Y014804D01*
X002912Y014509D02*
X018588Y014509D01*
X018627Y014410D02*
X002872Y014410D01*
X002785Y014312D02*
X014115Y014312D01*
X014048Y014016D02*
X002724Y014016D01*
X002568Y014016D02*
X002472Y014016D01*
X002472Y013918D02*
X002568Y013918D01*
X002568Y013819D02*
X002472Y013819D01*
X002472Y013524D02*
X002568Y013524D01*
X002568Y013425D02*
X002472Y013425D01*
X002472Y013327D02*
X002568Y013327D01*
X002568Y013228D02*
X002472Y013228D01*
X002732Y013228D02*
X005275Y013228D01*
X005289Y013327D02*
X002856Y013327D01*
X002920Y013425D02*
X005354Y013425D01*
X005686Y013425D02*
X018662Y013425D01*
X018621Y013524D02*
X002956Y013524D01*
X002852Y013918D02*
X014126Y013918D01*
X014414Y013918D02*
X016876Y013918D01*
X016798Y014016D02*
X014492Y014016D01*
X014515Y014115D02*
X016775Y014115D01*
X016793Y014213D02*
X014497Y014213D01*
X014425Y014312D02*
X016865Y014312D01*
X017175Y014312D02*
X018699Y014312D01*
X018838Y014213D02*
X017247Y014213D01*
X017265Y014115D02*
X020570Y014115D01*
X020570Y014213D02*
X020202Y014213D01*
X020341Y014312D02*
X020570Y014312D01*
X020570Y014410D02*
X020413Y014410D01*
X020452Y014509D02*
X020570Y014509D01*
X020570Y014607D02*
X020068Y014607D01*
X020068Y014669D02*
X020463Y014669D01*
X020454Y014725D01*
X020433Y014791D01*
X020401Y014854D01*
X020360Y014910D01*
X020310Y014960D01*
X020253Y015001D01*
X020570Y015001D01*
X020570Y014903D02*
X020365Y014903D01*
X020426Y014804D02*
X020570Y014804D01*
X020570Y014706D02*
X020457Y014706D01*
X020253Y015001D02*
X020191Y015033D01*
X020124Y015055D01*
X020068Y015064D01*
X020068Y014669D01*
X020068Y014706D02*
X019972Y014706D01*
X019972Y014804D02*
X020068Y014804D01*
X020068Y014903D02*
X019972Y014903D01*
X019972Y015001D02*
X020068Y015001D01*
X019068Y015888D02*
X018972Y015888D01*
X018972Y015986D02*
X019068Y015986D01*
X018787Y015001D02*
X018730Y014960D01*
X018680Y014910D01*
X019123Y014016D02*
X019917Y014016D01*
X019939Y014026D02*
X019790Y013964D01*
X019676Y013850D01*
X019615Y013701D01*
X019615Y013540D01*
X019676Y013391D01*
X019790Y013277D01*
X019939Y013215D01*
X020101Y013215D01*
X020250Y013277D01*
X020364Y013391D01*
X020425Y013540D01*
X020425Y013701D01*
X020364Y013850D01*
X020250Y013964D01*
X020101Y014026D01*
X019939Y014026D01*
X020123Y014016D02*
X020570Y014016D01*
X020570Y013918D02*
X020296Y013918D01*
X020376Y013819D02*
X020570Y013819D01*
X020570Y013721D02*
X020417Y013721D01*
X020425Y013622D02*
X020570Y013622D01*
X020570Y013524D02*
X020419Y013524D01*
X020378Y013425D02*
X020570Y013425D01*
X020570Y013327D02*
X020300Y013327D01*
X020133Y013228D02*
X020570Y013228D01*
X020570Y013130D02*
X007015Y013130D01*
X006998Y013031D02*
X010335Y013031D01*
X010312Y013009D02*
X010275Y012919D01*
X010275Y012822D01*
X010312Y012732D01*
X010381Y012663D01*
X010471Y012625D01*
X010569Y012625D01*
X010659Y012663D01*
X010728Y012732D01*
X010765Y012822D01*
X010765Y012919D01*
X010728Y013009D01*
X010659Y013078D01*
X010569Y013115D01*
X010471Y013115D01*
X010381Y013078D01*
X010312Y013009D01*
X010281Y012933D02*
X006929Y012933D01*
X006990Y013228D02*
X018907Y013228D01*
X018740Y013327D02*
X006910Y013327D01*
X006630Y013327D02*
X005751Y013327D01*
X005765Y013228D02*
X006550Y013228D01*
X006525Y013130D02*
X005737Y013130D01*
X005644Y013031D02*
X006542Y013031D01*
X010275Y012834D02*
X000970Y012834D01*
X000970Y012736D02*
X010311Y012736D01*
X010442Y012637D02*
X000970Y012637D01*
X000970Y012539D02*
X018751Y012539D01*
X018740Y012565D02*
X018783Y012462D01*
X018861Y012383D01*
X018964Y012340D01*
X019076Y012340D01*
X019179Y012383D01*
X019257Y012462D01*
X019300Y012565D01*
X019300Y012676D01*
X019257Y012779D01*
X019179Y012858D01*
X019076Y012900D01*
X018964Y012900D01*
X018861Y012858D01*
X018783Y012779D01*
X018740Y012676D01*
X018740Y012565D01*
X018740Y012637D02*
X010598Y012637D01*
X010729Y012736D02*
X018765Y012736D01*
X018838Y012834D02*
X010765Y012834D01*
X010759Y012933D02*
X020570Y012933D01*
X020570Y013031D02*
X010705Y013031D01*
X011981Y008500D02*
X020570Y008500D01*
X020570Y008402D02*
X012015Y008402D01*
X012007Y008303D02*
X020570Y008303D01*
X020570Y008205D02*
X011951Y008205D01*
X012004Y005545D02*
X014299Y005545D01*
X014249Y005447D02*
X011943Y005447D01*
X011566Y002984D02*
X020570Y002984D01*
X020570Y002886D02*
X011727Y002886D01*
X011798Y002787D02*
X020570Y002787D01*
X020570Y002689D02*
X011836Y002689D01*
X011352Y002984D02*
X010188Y002984D01*
X010349Y002886D02*
X011191Y002886D01*
X011120Y002787D02*
X010420Y002787D01*
X010458Y002689D02*
X011082Y002689D01*
X011082Y002590D02*
X010458Y002590D01*
X010436Y002492D02*
X011104Y002492D01*
X011153Y002393D02*
X010387Y002393D01*
X010281Y002295D02*
X011259Y002295D01*
X014741Y005545D02*
X014799Y005545D01*
X019148Y006235D02*
X019892Y006235D01*
X019734Y006333D02*
X019306Y006333D01*
X019381Y006432D02*
X019659Y006432D01*
X019619Y006530D02*
X019421Y006530D01*
X019425Y006629D02*
X019615Y006629D01*
X019626Y006727D02*
X019414Y006727D01*
X019374Y006826D02*
X019666Y006826D01*
X019751Y006924D02*
X019289Y006924D01*
X019112Y007220D02*
X019928Y007220D01*
X020112Y007220D02*
X020570Y007220D01*
X020570Y007318D02*
X020291Y007318D01*
X020374Y007417D02*
X020570Y007417D01*
X020570Y007515D02*
X020415Y007515D01*
X020425Y007614D02*
X020570Y007614D01*
X020570Y007712D02*
X020421Y007712D01*
X020380Y007811D02*
X020570Y007811D01*
X020570Y007909D02*
X020304Y007909D01*
X019736Y007909D02*
X019304Y007909D01*
X019380Y007811D02*
X019660Y007811D01*
X019619Y007712D02*
X019421Y007712D01*
X019425Y007614D02*
X019615Y007614D01*
X019625Y007515D02*
X019415Y007515D01*
X019374Y007417D02*
X019666Y007417D01*
X019749Y007318D02*
X019291Y007318D01*
X020289Y006924D02*
X020570Y006924D01*
X020570Y006826D02*
X020374Y006826D01*
X020414Y006727D02*
X020570Y006727D01*
X020570Y006629D02*
X020425Y006629D01*
X020421Y006530D02*
X020570Y006530D01*
X020570Y006432D02*
X020381Y006432D01*
X020306Y006333D02*
X020570Y006333D01*
X020570Y006235D02*
X020148Y006235D01*
X020068Y005545D02*
X019972Y005545D01*
X019972Y005447D02*
X020068Y005447D01*
X020068Y005348D02*
X019972Y005348D01*
X019972Y005250D02*
X020068Y005250D01*
X020268Y005250D02*
X020570Y005250D01*
X020570Y005348D02*
X020373Y005348D01*
X020431Y005447D02*
X020570Y005447D01*
X020570Y005545D02*
X020459Y005545D01*
X020570Y004954D02*
X020316Y004954D01*
X020399Y004856D02*
X020570Y004856D01*
X020570Y004757D02*
X020444Y004757D01*
X020570Y004659D02*
X020068Y004659D01*
X019972Y004659D02*
X019425Y004659D01*
X019425Y004560D02*
X019579Y004560D01*
X019577Y004572D02*
X019586Y004516D01*
X019607Y004449D01*
X019639Y004387D01*
X019680Y004330D01*
X019730Y004281D01*
X019787Y004240D01*
X019849Y004208D01*
X019916Y004186D01*
X019972Y004177D01*
X019972Y004572D01*
X019577Y004572D01*
X019603Y004462D02*
X019393Y004462D01*
X019336Y004363D02*
X019656Y004363D01*
X019752Y004265D02*
X019221Y004265D01*
X019236Y003969D02*
X019743Y003969D01*
X019652Y003871D02*
X019343Y003871D01*
X019396Y003772D02*
X019601Y003772D01*
X019578Y003674D02*
X019425Y003674D01*
X019425Y003575D02*
X019972Y003575D01*
X020068Y003575D02*
X020570Y003575D01*
X020570Y003477D02*
X020442Y003477D01*
X020395Y003378D02*
X020570Y003378D01*
X020570Y003280D02*
X020309Y003280D01*
X020068Y003280D02*
X019972Y003280D01*
X019972Y003378D02*
X020068Y003378D01*
X020068Y003477D02*
X019972Y003477D01*
X019972Y003674D02*
X020068Y003674D01*
X020068Y003669D02*
X020068Y004064D01*
X020124Y004055D01*
X020191Y004033D01*
X020253Y004001D01*
X020310Y003960D01*
X020360Y003910D01*
X020401Y003854D01*
X020433Y003791D01*
X020454Y003725D01*
X020463Y003669D01*
X020068Y003669D01*
X020068Y003772D02*
X019972Y003772D01*
X019972Y003871D02*
X020068Y003871D01*
X020068Y003969D02*
X019972Y003969D01*
X019972Y004265D02*
X020068Y004265D01*
X020068Y004363D02*
X019972Y004363D01*
X019972Y004462D02*
X020068Y004462D01*
X020068Y004560D02*
X019972Y004560D01*
X019972Y004757D02*
X020068Y004757D01*
X020068Y004856D02*
X019972Y004856D01*
X019972Y004954D02*
X020068Y004954D01*
X019724Y004954D02*
X019259Y004954D01*
X019358Y004856D02*
X019641Y004856D01*
X019596Y004757D02*
X019402Y004757D01*
X020288Y004265D02*
X020570Y004265D01*
X020570Y004363D02*
X020384Y004363D01*
X020437Y004462D02*
X020570Y004462D01*
X020570Y004560D02*
X020461Y004560D01*
X020570Y003969D02*
X020297Y003969D01*
X020388Y003871D02*
X020570Y003871D01*
X020570Y003772D02*
X020439Y003772D01*
X020462Y003674D02*
X020570Y003674D01*
X019731Y003280D02*
X019253Y003280D01*
X019351Y003378D02*
X019645Y003378D01*
X019598Y003477D02*
X019399Y003477D01*
X020570Y011160D02*
X000970Y011160D01*
X000970Y011258D02*
X020570Y011258D01*
X020570Y011357D02*
X000970Y011357D01*
X000970Y011455D02*
X016338Y011455D01*
X016312Y011482D02*
X016381Y011413D01*
X016471Y011375D01*
X016569Y011375D01*
X016659Y011413D01*
X016728Y011482D01*
X016765Y011572D01*
X016765Y011669D01*
X016728Y011759D01*
X016659Y011828D01*
X016569Y011865D01*
X016471Y011865D01*
X016381Y011828D01*
X016312Y011759D01*
X016275Y011669D01*
X016275Y011572D01*
X016312Y011482D01*
X016282Y011554D02*
X000970Y011554D01*
X000970Y011652D02*
X016275Y011652D01*
X016309Y011751D02*
X000970Y011751D01*
X000970Y011849D02*
X016433Y011849D01*
X016607Y011849D02*
X020570Y011849D01*
X020570Y011751D02*
X016731Y011751D01*
X016765Y011652D02*
X020570Y011652D01*
X020570Y011554D02*
X016758Y011554D01*
X016702Y011455D02*
X020570Y011455D01*
X020570Y011948D02*
X000970Y011948D01*
X000970Y012046D02*
X020570Y012046D01*
X020570Y012145D02*
X000970Y012145D01*
X000970Y012243D02*
X020570Y012243D01*
X020570Y012342D02*
X020079Y012342D01*
X020076Y012340D02*
X020179Y012383D01*
X020257Y012462D01*
X020300Y012565D01*
X020300Y012676D01*
X020257Y012779D01*
X020179Y012858D01*
X020076Y012900D01*
X019964Y012900D01*
X019861Y012858D01*
X019783Y012779D01*
X019740Y012676D01*
X019740Y012565D01*
X019783Y012462D01*
X019861Y012383D01*
X019964Y012340D01*
X020076Y012340D01*
X019961Y012342D02*
X019079Y012342D01*
X018961Y012342D02*
X000970Y012342D01*
X000970Y012440D02*
X018804Y012440D01*
X019236Y012440D02*
X019804Y012440D01*
X019751Y012539D02*
X019289Y012539D01*
X019300Y012637D02*
X019740Y012637D01*
X019765Y012736D02*
X019275Y012736D01*
X019202Y012834D02*
X019838Y012834D01*
X020202Y012834D02*
X020570Y012834D01*
X020570Y012736D02*
X020275Y012736D01*
X020300Y012637D02*
X020570Y012637D01*
X020570Y012539D02*
X020289Y012539D01*
X020236Y012440D02*
X020570Y012440D01*
X019907Y013228D02*
X019133Y013228D01*
X019300Y013327D02*
X019740Y013327D01*
X019662Y013425D02*
X019378Y013425D01*
X019419Y013524D02*
X019621Y013524D01*
X019615Y013622D02*
X019425Y013622D01*
X019417Y013721D02*
X019623Y013721D01*
X019664Y013819D02*
X019376Y013819D01*
X019296Y013918D02*
X019744Y013918D01*
X016810Y015986D02*
X002695Y015986D01*
X002755Y016282D02*
X016835Y016282D01*
X016781Y016183D02*
X000970Y016183D01*
X000970Y016085D02*
X016775Y016085D01*
X019143Y018807D02*
X019388Y018705D01*
X019652Y018705D01*
X019897Y018807D01*
X020084Y018994D01*
X020185Y019238D01*
X020185Y019503D01*
X020084Y019747D01*
X019897Y019934D01*
X019652Y020035D01*
X019388Y020035D01*
X019143Y019934D01*
X018956Y019747D01*
X018855Y019503D01*
X018855Y019238D01*
X018956Y018994D01*
X019143Y018807D01*
X019107Y018843D02*
X002433Y018843D01*
X002397Y018807D02*
X002584Y018994D01*
X002685Y019238D01*
X002685Y019503D01*
X002584Y019747D01*
X002397Y019934D01*
X002152Y020035D01*
X001888Y020035D01*
X001643Y019934D01*
X001456Y019747D01*
X001355Y019503D01*
X001355Y019238D01*
X001456Y018994D01*
X001643Y018807D01*
X001888Y018705D01*
X002152Y018705D01*
X002397Y018807D01*
X002247Y018744D02*
X019293Y018744D01*
X019009Y018941D02*
X012371Y018941D01*
X012356Y018936D02*
X012516Y019002D01*
X012639Y019124D01*
X012705Y019284D01*
X012705Y019457D01*
X012639Y019617D01*
X012516Y019739D01*
X012356Y019805D01*
X012184Y019805D01*
X012024Y019739D01*
X011901Y019617D01*
X011835Y019457D01*
X011835Y019284D01*
X011901Y019124D01*
X012024Y019002D01*
X012184Y018936D01*
X012356Y018936D01*
X012169Y018941D02*
X011474Y018941D01*
X011452Y018930D02*
X011519Y018964D01*
X011579Y019008D01*
X011632Y019061D01*
X011676Y019122D01*
X011710Y019188D01*
X011733Y019259D01*
X011743Y019320D01*
X011320Y019320D01*
X011320Y018898D01*
X011381Y018907D01*
X011452Y018930D01*
X011320Y018941D02*
X011220Y018941D01*
X011220Y018898D02*
X011159Y018907D01*
X011088Y018930D01*
X011021Y018964D01*
X010961Y019008D01*
X010908Y019061D01*
X010864Y019122D01*
X010830Y019188D01*
X010807Y019259D01*
X010797Y019320D01*
X011220Y019320D01*
X011320Y019320D01*
X011320Y019420D01*
X011743Y019420D01*
X011733Y019482D01*
X011710Y019553D01*
X011676Y019619D01*
X011632Y019680D01*
X011579Y019733D01*
X011519Y019776D01*
X011452Y019810D01*
X011381Y019833D01*
X011320Y019843D01*
X011320Y019420D01*
X011220Y019420D01*
X011220Y019320D01*
X011220Y018898D01*
X011220Y019040D02*
X011320Y019040D01*
X011320Y019138D02*
X011220Y019138D01*
X011220Y019237D02*
X011320Y019237D01*
X011320Y019335D02*
X011835Y019335D01*
X011835Y019434D02*
X011741Y019434D01*
X011717Y019532D02*
X011866Y019532D01*
X011916Y019631D02*
X011668Y019631D01*
X011582Y019729D02*
X012014Y019729D01*
X012526Y019729D02*
X018949Y019729D01*
X018908Y019631D02*
X012624Y019631D01*
X012674Y019532D02*
X018867Y019532D01*
X018855Y019434D02*
X012705Y019434D01*
X012705Y019335D02*
X018855Y019335D01*
X018855Y019237D02*
X012685Y019237D01*
X012645Y019138D02*
X018896Y019138D01*
X018937Y019040D02*
X012554Y019040D01*
X011986Y019040D02*
X011611Y019040D01*
X011685Y019138D02*
X011895Y019138D01*
X011855Y019237D02*
X011726Y019237D01*
X011320Y019434D02*
X011220Y019434D01*
X011220Y019420D02*
X011220Y019843D01*
X011159Y019833D01*
X011088Y019810D01*
X011021Y019776D01*
X010961Y019733D01*
X010908Y019680D01*
X010864Y019619D01*
X010830Y019553D01*
X010807Y019482D01*
X010797Y019420D01*
X011220Y019420D01*
X011220Y019335D02*
X010320Y019335D01*
X010320Y019320D02*
X010320Y019420D01*
X010743Y019420D01*
X010733Y019482D01*
X010710Y019553D01*
X010676Y019619D01*
X010632Y019680D01*
X010579Y019733D01*
X010519Y019776D01*
X010452Y019810D01*
X010381Y019833D01*
X010320Y019843D01*
X010320Y019420D01*
X010220Y019420D01*
X010220Y019320D01*
X010320Y019320D01*
X010320Y018898D01*
X010381Y018907D01*
X010452Y018930D01*
X010519Y018964D01*
X010579Y019008D01*
X010632Y019061D01*
X010676Y019122D01*
X010710Y019188D01*
X010733Y019259D01*
X010743Y019320D01*
X010320Y019320D01*
X010320Y019237D02*
X010220Y019237D01*
X010220Y019320D02*
X010220Y018898D01*
X010159Y018907D01*
X010088Y018930D01*
X010021Y018964D01*
X009961Y019008D01*
X009908Y019061D01*
X009864Y019122D01*
X009830Y019188D01*
X009807Y019259D01*
X009797Y019320D01*
X010220Y019320D01*
X010220Y019335D02*
X009705Y019335D01*
X009705Y019284D02*
X009705Y019457D01*
X009639Y019617D01*
X009516Y019739D01*
X009356Y019805D01*
X009184Y019805D01*
X009024Y019739D01*
X008901Y019617D01*
X008835Y019457D01*
X008835Y019284D01*
X008901Y019124D01*
X009024Y019002D01*
X009184Y018936D01*
X009356Y018936D01*
X009516Y019002D01*
X009639Y019124D01*
X009705Y019284D01*
X009685Y019237D02*
X009814Y019237D01*
X009855Y019138D02*
X009645Y019138D01*
X009554Y019040D02*
X009929Y019040D01*
X010066Y018941D02*
X009371Y018941D01*
X009169Y018941D02*
X002531Y018941D01*
X002603Y019040D02*
X008986Y019040D01*
X008895Y019138D02*
X002644Y019138D01*
X002685Y019237D02*
X008855Y019237D01*
X008835Y019335D02*
X002685Y019335D01*
X002685Y019434D02*
X008835Y019434D01*
X008866Y019532D02*
X002673Y019532D01*
X002632Y019631D02*
X008916Y019631D01*
X009014Y019729D02*
X002591Y019729D01*
X002503Y019828D02*
X010142Y019828D01*
X010159Y019833D02*
X010088Y019810D01*
X010021Y019776D01*
X009961Y019733D01*
X009908Y019680D01*
X009864Y019619D01*
X009830Y019553D01*
X009807Y019482D01*
X009797Y019420D01*
X010220Y019420D01*
X010220Y019843D01*
X010159Y019833D01*
X010220Y019828D02*
X010320Y019828D01*
X010398Y019828D02*
X011142Y019828D01*
X011220Y019828D02*
X011320Y019828D01*
X011398Y019828D02*
X019037Y019828D01*
X019136Y019926D02*
X002404Y019926D01*
X002178Y020025D02*
X019362Y020025D01*
X019678Y020025D02*
X020453Y020025D01*
X020501Y019926D02*
X019904Y019926D01*
X020003Y019828D02*
X020533Y019828D01*
X020561Y019729D02*
X020091Y019729D01*
X020132Y019631D02*
X020569Y019631D01*
X020570Y019532D02*
X020173Y019532D01*
X020185Y019434D02*
X020570Y019434D01*
X020570Y019335D02*
X020185Y019335D01*
X020185Y019237D02*
X020570Y019237D01*
X020570Y019138D02*
X020144Y019138D01*
X020103Y019040D02*
X020570Y019040D01*
X020570Y018941D02*
X020031Y018941D01*
X019933Y018843D02*
X020570Y018843D01*
X020570Y018744D02*
X019747Y018744D01*
X020570Y018646D02*
X000970Y018646D01*
X000970Y018744D02*
X001793Y018744D01*
X001607Y018843D02*
X000970Y018843D01*
X000970Y018941D02*
X001509Y018941D01*
X001437Y019040D02*
X000970Y019040D01*
X000970Y019138D02*
X001396Y019138D01*
X001355Y019237D02*
X000970Y019237D01*
X000970Y019335D02*
X001355Y019335D01*
X001355Y019434D02*
X000970Y019434D01*
X000970Y019532D02*
X001367Y019532D01*
X001408Y019631D02*
X000971Y019631D01*
X000979Y019729D02*
X001449Y019729D01*
X001537Y019828D02*
X001007Y019828D01*
X001039Y019926D02*
X001636Y019926D01*
X001862Y020025D02*
X001087Y020025D01*
X001159Y020123D02*
X020381Y020123D01*
X020286Y020222D02*
X001254Y020222D01*
X001389Y020320D02*
X020151Y020320D01*
X019788Y020419D02*
X001752Y020419D01*
X000970Y018547D02*
X020570Y018547D01*
X020570Y018449D02*
X000970Y018449D01*
X000970Y018350D02*
X020570Y018350D01*
X020570Y018252D02*
X000970Y018252D01*
X000970Y018153D02*
X020570Y018153D01*
X020570Y018055D02*
X000970Y018055D01*
X000970Y017956D02*
X001283Y017956D01*
X001184Y017858D02*
X000970Y017858D01*
X000970Y017759D02*
X001139Y017759D01*
X001115Y017661D02*
X000970Y017661D01*
X000970Y017562D02*
X001115Y017562D01*
X001146Y017464D02*
X000970Y017464D01*
X000970Y017365D02*
X001202Y017365D01*
X001314Y017267D02*
X000970Y017267D01*
X000970Y017168D02*
X020570Y017168D01*
X020570Y017070D02*
X000970Y017070D01*
X000970Y016971D02*
X001308Y016971D01*
X001199Y016873D02*
X000970Y016873D01*
X000970Y016774D02*
X001145Y016774D01*
X001115Y016676D02*
X000970Y016676D01*
X000970Y016577D02*
X001115Y016577D01*
X001140Y016479D02*
X000970Y016479D01*
X000970Y016380D02*
X001187Y016380D01*
X001285Y016282D02*
X000970Y016282D01*
X000970Y015986D02*
X001345Y015986D01*
X001214Y015888D02*
X000970Y015888D01*
X000970Y015789D02*
X001151Y015789D01*
X001115Y015691D02*
X000970Y015691D01*
X000970Y015592D02*
X001115Y015592D01*
X001134Y015494D02*
X000970Y015494D01*
X000970Y015395D02*
X001175Y015395D01*
X001270Y015297D02*
X000970Y015297D01*
X000970Y013918D02*
X001188Y013918D01*
X001122Y013819D02*
X000970Y013819D01*
X000970Y013721D02*
X001085Y013721D01*
X009705Y019434D02*
X009799Y019434D01*
X009823Y019532D02*
X009674Y019532D01*
X009624Y019631D02*
X009872Y019631D01*
X009958Y019729D02*
X009526Y019729D01*
X010220Y019729D02*
X010320Y019729D01*
X010320Y019631D02*
X010220Y019631D01*
X010220Y019532D02*
X010320Y019532D01*
X010320Y019434D02*
X010220Y019434D01*
X010220Y019138D02*
X010320Y019138D01*
X010320Y019040D02*
X010220Y019040D01*
X010220Y018941D02*
X010320Y018941D01*
X010474Y018941D02*
X011066Y018941D01*
X010929Y019040D02*
X010611Y019040D01*
X010685Y019138D02*
X010855Y019138D01*
X010814Y019237D02*
X010726Y019237D01*
X010741Y019434D02*
X010799Y019434D01*
X010823Y019532D02*
X010717Y019532D01*
X010668Y019631D02*
X010872Y019631D01*
X010958Y019729D02*
X010582Y019729D01*
X011220Y019729D02*
X011320Y019729D01*
X011320Y019631D02*
X011220Y019631D01*
X011220Y019532D02*
X011320Y019532D01*
D14*
X017020Y016120D03*
X017020Y014120D03*
X015270Y012683D03*
X014270Y012683D03*
X014270Y014120D03*
X016520Y011620D03*
X015270Y009620D03*
X015958Y009370D03*
X016270Y008995D03*
X014270Y009620D03*
X014270Y009995D03*
X013520Y009870D03*
X013520Y009370D03*
X013520Y008870D03*
X013520Y008370D03*
X013520Y007870D03*
X013520Y007370D03*
X013520Y006870D03*
X011770Y005620D03*
X011270Y006620D03*
X010270Y006620D03*
X010270Y006120D03*
X010020Y007620D03*
X009520Y007620D03*
X008770Y007620D03*
X008770Y007245D03*
X008770Y006870D03*
X007520Y006370D03*
X007520Y005870D03*
X007020Y005870D03*
X007020Y006370D03*
X007770Y005370D03*
X005520Y007120D03*
X005520Y007870D03*
X004770Y008370D03*
X005520Y009370D03*
X004770Y010120D03*
X004458Y010433D03*
X004270Y010120D03*
X004020Y010870D03*
X004270Y011120D03*
X005520Y010370D03*
X005770Y010620D03*
X005520Y012120D03*
X005520Y013245D03*
X005833Y014120D03*
X006770Y013120D03*
X008020Y010620D03*
X007770Y010370D03*
X008083Y008995D03*
X007520Y008620D03*
X007020Y008120D03*
X009333Y008683D03*
X010145Y008870D03*
X010145Y008495D03*
X010520Y008495D03*
X010895Y008495D03*
X010895Y008870D03*
X010520Y008870D03*
X010520Y009245D03*
X010145Y009245D03*
X010895Y009245D03*
X011770Y008370D03*
X011270Y007620D03*
X009395Y009995D03*
X009395Y010745D03*
X010645Y010495D03*
X010895Y010808D03*
X011145Y010495D03*
X013520Y010370D03*
X010520Y012870D03*
X002520Y012870D03*
X002520Y012370D03*
X002020Y012370D03*
X001520Y012370D03*
X001520Y012870D03*
X002020Y012870D03*
D15*
X005770Y015620D03*
X005770Y016620D03*
X010770Y016620D03*
X015020Y016620D03*
X015020Y017120D03*
X015520Y016245D03*
X015520Y015870D03*
X015520Y015495D03*
X015520Y015120D03*
X015520Y014745D03*
X015020Y014620D03*
X015020Y015120D03*
X015020Y015620D03*
X015020Y016120D03*
X019020Y012620D03*
X020020Y012620D03*
X017270Y010620D03*
X016770Y010620D03*
X016270Y010620D03*
X016270Y010120D03*
X016770Y010120D03*
X017270Y010120D03*
X015520Y007870D03*
X015520Y007370D03*
X015520Y006870D03*
X015020Y007370D03*
X014520Y007370D03*
X014520Y007870D03*
X015020Y007870D03*
X015520Y006370D03*
X015520Y005870D03*
X015520Y005370D03*
X015020Y005370D03*
X014520Y005370D03*
X011270Y004120D03*
X013520Y001120D03*
M02*
